<svg xmlns="http://www.w3.org/2000/svg" width="22" height="22" viewBox="0 0 22 22" fill="none">
  <path d="M1.83398 11.0007H6.99023M6.78398 4.58398H3.66732C2.80308 4.58398 2.37096 4.58398 2.10247 4.85247C1.83398 5.12096 1.83398 5.55308 1.83398 6.41732V15.584C1.83398 16.4482 1.83398 16.8803 2.10247 17.1488C2.37096 17.4173 2.80308 17.4173 3.66732 17.4173H6.78398C8.60653 17.4173 10.084 15.9809 10.084 14.209C10.084 12.4371 8.60653 11.0007 6.78398 11.0007C8.60653 11.0007 10.084 9.56423 10.084 7.79232C10.084 6.0204 8.60653 4.58398 6.78398 4.58398Z" stroke="white" stroke-width="1.5" stroke-linecap="round" stroke-linejoin="round"/>
  <path d="M18.334 6.41602H14.6673M12.834 12.8327H20.1673C20.1673 10.9615 18.5257 9.16602 16.5007 9.16602C14.4756 9.16602 12.834 10.9615 12.834 12.8327ZM12.834 12.8327V13.7493C12.834 15.7744 14.4756 17.416 16.5007 17.416C17.8579 17.416 19.0428 16.6786 19.6768 15.5827" stroke="white" stroke-width="1.5" stroke-linecap="round" stroke-linejoin="round"/>
</svg>
