<svg xmlns="http://www.w3.org/2000/svg" width="22" height="22" viewBox="0 0 22 22" fill="none">
  <path d="M11.0007 20.1673C16.0633 20.1673 20.1673 16.0633 20.1673 11.0007C20.1673 5.93804 16.0633 1.83398 11.0007 1.83398C5.93804 1.83398 1.83398 5.93804 1.83398 11.0007C1.83398 16.0633 5.93804 20.1673 11.0007 20.1673Z" stroke="white" stroke-width="1.5"/>
  <path d="M20.1667 12.1584C19.3171 11.9991 18.4433 11.916 17.5516 11.916C12.6452 11.916 8.28149 14.43 5.5 18.3327" stroke="white" stroke-width="1.5" stroke-linejoin="round"/>
  <path d="M17.4173 4.58398C14.5486 7.94579 10.2379 10.084 5.4178 10.084C4.18466 10.084 2.98484 9.94401 1.83398 9.67946" stroke="white" stroke-width="1.5" stroke-linejoin="round"/>
  <path d="M13.399 20.1667C13.6287 19.0538 13.7493 17.9013 13.7493 16.7206C13.7493 10.931 10.8475 5.81758 6.41602 2.75" stroke="white" stroke-width="1.5" stroke-linejoin="round"/>
</svg>
