<svg xmlns="http://www.w3.org/2000/svg" width="22" height="22" viewBox="0 0 22 22" fill="none">
  <path d="M4.12565 8.70898H3.66732C2.80308 8.70898 2.37096 8.70898 2.10247 8.97747C1.83398 9.24597 1.83398 9.67808 1.83398 10.5423V18.334C1.83398 19.1982 1.83398 19.6303 2.10247 19.8988C2.37096 20.1673 2.80308 20.1673 3.66732 20.1673H4.12565C4.98989 20.1673 5.42201 20.1673 5.6905 19.8988C5.95898 19.6303 5.95898 19.1982 5.95898 18.334V10.5423C5.95898 9.67808 5.95898 9.24597 5.6905 8.97747C5.42201 8.70898 4.98989 8.70898 4.12565 8.70898Z" stroke="white" stroke-width="1.5"/>
  <path d="M5.95898 3.89648C5.95898 5.03557 5.03557 5.95898 3.89648 5.95898C2.7574 5.95898 1.83398 5.03557 1.83398 3.89648C1.83398 2.7574 2.7574 1.83398 3.89648 1.83398C5.03557 1.83398 5.95898 2.7574 5.95898 3.89648Z" stroke="white" stroke-width="1.5"/>
  <path d="M11.2995 8.70898H10.5423C9.67808 8.70898 9.24597 8.70898 8.97747 8.97747C8.70898 9.24597 8.70898 9.67808 8.70898 10.5423V18.334C8.70898 19.1982 8.70898 19.6303 8.97747 19.8988C9.24597 20.1673 9.67808 20.1673 10.5423 20.1673H11.0007C11.8649 20.1673 12.297 20.1673 12.5655 19.8988C12.834 19.6303 12.834 19.1982 12.834 18.334L12.8341 15.1257C12.8341 13.607 13.3181 12.3757 14.7479 12.3757C15.4627 12.3757 16.0423 12.9914 16.0423 13.7507V17.8757C16.0423 18.74 16.0423 19.1721 16.3108 19.4406C16.5792 19.7091 17.0114 19.7091 17.8757 19.7091H18.3328C19.1968 19.7091 19.6289 19.7091 19.8974 19.4407C20.1659 19.1723 20.1659 18.7403 20.1661 17.8762L20.1674 12.8342C20.1674 10.5561 18.0007 8.7092 15.8561 8.7092C14.6351 8.7092 13.546 9.30766 12.8341 10.2435C12.834 9.66589 12.834 9.37714 12.7086 9.16273C12.6291 9.02694 12.516 8.91389 12.3802 8.83445C12.1658 8.70898 11.8771 8.70898 11.2995 8.70898Z" stroke="white" stroke-width="1.5" stroke-linejoin="round"/>
</svg>
