<svg xmlns="http://www.w3.org/2000/svg" width="22" height="22" viewBox="0 0 22 22" fill="none">
  <g clip-path="url(#clip0_16931_5409)">
    <path d="M2 19.9831L3.65 16.1831C2.38766 14.3912 1.82267 12.2002 2.06104 10.0212C2.29942 7.8423 3.32479 5.82526 4.94471 4.34864C6.56463 2.87203 8.66775 2.03734 10.8594 2.00122C13.051 1.96511 15.1805 2.73005 16.8482 4.1525C18.5159 5.57494 19.6071 7.5571 19.9172 9.72699C20.2272 11.8969 19.7347 14.1053 18.5321 15.9379C17.3295 17.7705 15.4994 19.1011 13.3854 19.6802C11.2713 20.2593 9.01863 20.047 7.05 19.0831L2 19.9831" stroke="white" stroke-width="1.5" stroke-linecap="round" stroke-linejoin="round"/>
    <path d="M8 9.5C8 9.63261 8.05268 9.75979 8.14645 9.85355C8.24021 9.94732 8.36739 10 8.5 10C8.63261 10 8.75979 9.94732 8.85355 9.85355C8.94732 9.75979 9 9.63261 9 9.5V8.5C9 8.36739 8.94732 8.24021 8.85355 8.14645C8.75979 8.05268 8.63261 8 8.5 8C8.36739 8 8.24021 8.05268 8.14645 8.14645C8.05268 8.24021 8 8.36739 8 8.5V9.5ZM8 9.5C8 10.8261 8.52678 12.0979 9.46447 13.0355C10.4021 13.9732 11.6739 14.5 13 14.5H14C14.1326 14.5 14.2598 14.4473 14.3536 14.3536C14.4473 14.2598 14.5 14.1326 14.5 14C14.5 13.8674 14.4473 13.7402 14.3536 13.6464C14.2598 13.5527 14.1326 13.5 14 13.5H13C12.8674 13.5 12.7402 13.5527 12.6464 13.6464C12.5527 13.7402 12.5 13.8674 12.5 14C12.5 14.1326 12.5527 14.2598 12.6464 14.3536C12.7402 14.4473 12.8674 14.5 13 14.5" stroke="white" stroke-width="1.5" stroke-linecap="round" stroke-linejoin="round"/>
  </g>
  <defs>
    <clipPath id="clip0_16931_5409">
      <rect width="22" height="22" fill="white"/>
    </clipPath>
  </defs>
</svg>
