<svg width="100" height="39" viewBox="0 0 100 39" fill="none" xmlns="http://www.w3.org/2000/svg">
<path d="M31.3432 26.3464L32.5565 23.5583C33.885 24.5255 35.6178 25.0375 37.351 25.0375C38.6219 25.0375 39.4305 24.554 39.4305 23.8145C39.4015 21.766 31.7765 23.3592 31.7185 18.209C31.6895 15.5916 34.0581 13.5716 37.409 13.5716C39.4015 13.5716 41.3948 14.0555 42.8099 15.1652L41.6761 18.0127C40.3741 17.1897 38.766 16.6159 37.2354 16.6159C36.1956 16.6159 35.5022 17.0993 35.5022 17.7256C35.5312 19.7456 43.2146 18.6358 43.3012 23.5583C43.3012 26.2327 40.9901 28.1106 37.6973 28.1106C35.2715 28.1106 33.0474 27.5417 31.3428 26.3464H31.3432ZM79.6556 22.5487C79.3493 23.0837 78.9039 23.529 78.3648 23.8389C77.8258 24.1487 77.2126 24.3121 76.5881 24.3121C74.642 24.3121 73.0646 22.7581 73.0646 20.8411C73.0646 18.9242 74.642 17.3701 76.5881 17.3701C77.2126 17.3701 77.8258 17.5335 78.3648 17.8434C78.9039 18.1532 79.3493 18.5985 79.6556 19.1335L83.0288 17.2927C81.7654 15.0728 79.3553 13.5716 76.5881 13.5716C72.5124 13.5716 69.2084 16.826 69.2084 20.8411C69.2084 24.8558 72.5124 28.1106 76.5881 28.1106C79.3553 28.1106 81.7654 26.6095 83.0288 24.3895L79.6556 22.5487ZM45.49 27.8259H49.707V7.52026H45.4904L45.49 27.8259ZM85.1584 7.52026V27.8259H89.3754V21.7424L94.3725 27.8259H99.7626L93.4081 20.5988L99.3003 13.8551H94.1413L89.3754 19.4617V7.52026H85.1584ZM62.699 13.8559V15.5065C62.0059 14.3682 60.3017 13.5716 58.511 13.5716C54.8138 13.5716 51.8967 16.7869 51.8967 20.8269C51.8967 24.8668 54.8138 28.1106 58.511 28.1106C60.3017 28.1106 62.0059 27.314 62.699 26.1757V27.8259H66.916V13.8559H62.699ZM62.699 22.5768C62.0925 23.5726 60.8216 24.3117 59.4065 24.3117C57.46 24.3117 55.8826 22.7581 55.8826 20.8411C55.8826 18.9242 57.46 17.3701 59.4065 17.3701C60.8216 17.3701 62.0925 18.1382 62.699 19.162V22.5768Z" fill="#1D1C1F"/>
<path d="M9.07277 7.07166C7.70618 7.07166 6.59849 8.16309 6.59849 9.50907C6.59816 9.82883 6.6619 10.1455 6.78607 10.4411C6.91024 10.7366 7.0924 11.0052 7.32216 11.2316C7.55192 11.4579 7.82477 11.6375 8.12514 11.7602C8.42551 11.8829 8.74751 11.9462 9.07277 11.9465H11.5475V9.50907C11.548 8.86324 11.2876 8.24364 10.8235 7.78654C10.3594 7.32945 9.72968 7.0723 9.07277 7.07166ZM9.07277 13.5714H2.47428C1.10769 13.5714 0 14.6629 0 16.0092C0 17.3552 1.10769 18.4467 2.47428 18.4467H9.07318C10.4394 18.4467 11.5475 17.3552 11.5475 16.0092C11.5475 14.6629 10.4394 13.5714 9.07277 13.5714Z" fill="#1D1C1F"/>
<path d="M24.7447 16.0092C24.7447 14.6629 23.6366 13.5714 22.27 13.5714C20.9034 13.5714 19.7958 14.6629 19.7958 16.0092V18.4467H22.27C22.927 18.446 23.5567 18.1889 24.0208 17.7318C24.4849 17.2747 24.7453 16.6551 24.7447 16.0092ZM18.1462 16.0092V9.50907C18.1468 8.86324 17.8864 8.24364 17.4223 7.78654C16.9582 7.32945 16.3285 7.0723 15.6715 7.07166C14.305 7.07166 13.1973 8.16309 13.1973 9.50907V16.0088C13.1973 17.3556 14.305 18.4471 15.6715 18.4471C16.3285 18.4464 16.9582 18.1893 17.4223 17.7322C17.8864 17.2751 18.1468 16.6555 18.1462 16.0096" fill="#1D1C1F"/>
<path d="M15.6715 31.4467C16.3285 31.446 16.9582 31.1889 17.4223 30.7318C17.8864 30.2747 18.1468 29.6551 18.1462 29.0092C18.1468 28.3634 17.8864 27.7438 17.4223 27.2867C16.9582 26.8296 16.3285 26.5725 15.6715 26.5718H13.1973V29.0092C13.1973 30.3552 14.305 31.4467 15.6715 31.4467ZM15.6715 24.9469H22.2705C23.6366 24.9469 24.7447 23.8554 24.7447 22.5091C24.7453 21.8632 24.4849 21.2436 24.0208 20.7865C23.5567 20.3295 22.927 20.0723 22.27 20.0717H15.6715C14.305 20.0717 13.1973 21.1631 13.1973 22.5091C13.1969 22.8288 13.2607 23.1455 13.3848 23.4411C13.509 23.7366 13.6912 24.0052 13.9209 24.2316C14.1507 24.4579 14.4235 24.6375 14.7239 24.7602C15.0243 24.8829 15.3463 24.9462 15.6715 24.9465" fill="#1D1C1F"/>
<path d="M1.24846e-06 22.5091C-0.000325311 22.8288 0.0634148 23.1455 0.187582 23.4411C0.31175 23.7366 0.493913 24.0052 0.723671 24.2316C0.953429 24.4579 1.22628 24.6375 1.52665 24.7602C1.82702 24.8829 2.14903 24.9462 2.47428 24.9465C3.1312 24.9458 3.76095 24.6887 4.22504 24.2316C4.68912 23.7745 4.94952 23.1549 4.94897 22.5091V20.0717H2.47428C1.10769 20.0717 1.24846e-06 21.1631 1.24846e-06 22.5091ZM6.59849 22.5091V29.0088C6.59849 30.3552 7.70618 31.4467 9.07277 31.4467C9.72969 31.446 10.3594 31.1889 10.8235 30.7318C11.2876 30.2747 11.548 29.6551 11.5475 29.0092V22.5091C11.5478 22.1893 11.484 21.8725 11.3598 21.577C11.2356 21.2814 11.0534 21.0128 10.8236 20.7864C10.5938 20.5601 10.3209 20.3805 10.0205 20.2578C9.72011 20.1352 9.39806 20.0719 9.07277 20.0717C7.70618 20.0717 6.59849 21.1631 6.59849 22.5091Z" fill="#1D1C1F"/>
</svg>
