<svg width="82" height="39" viewBox="0 0 82 39" fill="none" xmlns="http://www.w3.org/2000/svg">
<g clip-path="url(#clip0_1_2245)">
<path d="M71.5833 10.8921C66.6236 10.8921 62.5876 14.8812 62.5876 19.7852C62.5876 24.6891 66.6236 28.6782 71.5833 28.6782C76.5418 28.6782 80.5766 24.6891 80.5766 19.7852C80.5766 14.8812 76.5418 10.8921 71.5833 10.8921ZM71.5833 24.4635C68.9748 24.4635 66.8504 22.3625 66.8504 19.7852C66.8504 17.2067 68.9748 15.1068 71.5833 15.1068C74.1893 15.1068 76.3149 17.2067 76.3149 19.7852C76.3149 22.3636 74.1905 24.4635 71.5821 24.4635H71.5833ZM45.0942 17.9841L43.5213 17.2078C42.8384 16.8735 42.4102 16.6147 42.238 16.4235C42.0739 16.2541 41.9804 16.0301 41.9762 15.7961C41.9762 15.4961 42.1135 15.243 42.3835 15.0461C42.651 14.84 43.0315 14.7461 43.5143 14.7461C44.3974 14.7461 45.3758 15.2705 46.4531 16.3273L49.1081 13.7019C48.4557 12.8276 47.6026 12.1175 46.6183 11.6295C45.647 11.1485 44.5738 10.9006 43.4864 10.9059C41.8657 10.9059 40.5278 11.3765 39.4853 12.3245C38.4441 13.2725 37.9205 14.4118 37.9205 15.748C37.9205 17.8204 39.2992 19.547 42.0658 20.9175L43.5143 21.6332C44.7627 22.2549 45.3839 22.888 45.3839 23.543C45.3839 23.8979 45.2106 24.2048 44.8662 24.4773C44.5218 24.7509 44.0658 24.8803 43.5003 24.8803C42.9768 24.8803 42.3765 24.7028 41.7005 24.3422C41.027 23.9873 40.4278 23.5102 39.9344 22.9361L37.2934 25.7803C38.7826 27.7038 40.7686 28.6725 43.2653 28.6725C45.142 28.6725 46.6393 28.1675 47.7492 27.1645C48.8661 26.1627 49.4245 24.9078 49.4245 23.4067C49.4245 22.2812 49.1151 21.2931 48.5008 20.4538C47.8807 19.6146 46.7428 18.797 45.0942 17.9853V17.9841ZM18.3865 26.7409V11.2459H14.1167V12.2833C12.678 11.3732 11.0034 10.8902 9.29313 10.8921C4.33459 10.8921 0.299805 14.8812 0.299805 19.7852C0.299805 24.6891 4.33459 28.6782 9.29429 28.6782C10.984 28.6807 12.6396 28.2101 14.0679 27.3214C14.0679 27.4576 14.0609 27.5802 14.0609 27.6626C14.0609 30.2399 11.9364 32.341 9.3292 32.341C8.44268 32.339 7.57478 32.0905 6.82549 31.6242L4.71386 35.2801C6.10628 36.116 7.70517 36.5596 9.33618 36.5625C14.2959 36.5625 18.3865 32.5723 18.3865 27.6683C18.3865 27.4783 18.3993 26.9184 18.3865 26.7409ZM9.29429 24.4624C6.68821 24.4624 4.56262 22.3625 4.56262 19.7852C4.56262 17.2067 6.68704 15.1068 9.29429 15.1068C11.9015 15.1068 14.026 17.2067 14.026 19.7852C14.026 22.3625 11.9015 24.4635 9.29429 24.4635V24.4624ZM35.3947 11.2402H31.104V19.6947C31.111 20.8958 31.111 22.9693 30.2151 23.8556C29.787 24.278 29.3181 24.6605 28.3315 24.6605C27.338 24.6605 26.8691 24.278 26.4421 23.8556C25.5451 22.9682 25.5521 20.8889 25.5579 19.6947V11.2402H21.2683V19.6695C21.2544 21.4076 21.2334 24.6341 23.3858 26.7752C24.6481 28.0301 26.1524 28.6713 28.3245 28.6713C30.4978 28.6713 32.001 28.037 33.2633 26.7752C35.4157 24.6341 35.3947 21.4007 35.3808 19.6695L35.3947 11.2391V11.2402ZM59.7093 23.7067C59.3649 23.9655 58.5296 24.5391 57.5849 24.4097C56.8123 24.3067 56.1852 23.7479 56.0887 21.8793V14.8686H61.131V11.2265H56.0887V6.5H51.8119V7.42743H51.8049V21.3274C51.8049 23.5372 52.3703 28.6713 57.5779 28.6713C60.213 28.6312 61.8128 27.2195 62.4829 26.6676L62.5725 26.5989L60.006 23.4754C59.999 23.4811 59.8198 23.6243 59.7093 23.7067Z" fill="#1D1C1F"/>
</g>
<defs>
<clipPath id="clip0_1_2245">
<rect width="81" height="39" fill="white" transform="translate(0.299805)"/>
</clipPath>
</defs>
</svg>
