<svg width="80" height="39" viewBox="0 0 80 39" fill="none" xmlns="http://www.w3.org/2000/svg">
<path fillRule="evenodd" clipRule="evenodd" d="M65.0672 16.7352C65.3726 17.2598 65.4726 17.8567 65.5056 18.5276L65.5489 19.4219V25.6756L65.5933 26.5708C65.6819 28.0329 66.7652 29.1139 68.2455 29.2059L69.1402 29.25V19.4219L69.1845 18.5276C69.2213 17.8642 69.3203 17.2561 69.6305 16.7277C69.9466 16.1858 70.4003 15.7362 70.9462 15.4241C71.4921 15.1119 72.1109 14.9482 72.7404 14.9493C73.37 14.9505 73.9881 15.1164 74.5329 15.4306C75.0776 15.7447 75.5297 16.196 75.8438 16.739C76.1493 17.2636 76.2445 17.8717 76.2813 18.5276L76.3256 19.4191V25.6756L76.3699 26.5708C76.4623 28.0404 77.5371 29.1214 79.0221 29.2059L79.9169 29.25V18.5276C79.9169 16.6316 79.1603 14.8132 77.8136 13.4723C76.4669 12.1313 74.6402 11.3776 72.7353 11.3769C71.7157 11.3758 70.7076 11.5913 69.7784 12.009C68.8492 12.4267 68.0203 13.0369 67.3469 13.7989C66.6733 13.0372 65.8443 12.4271 64.9152 12.0093C63.9861 11.5915 62.9782 11.3756 61.9586 11.3759C60.467 11.3759 59.083 11.8264 57.9365 12.6043C57.2369 11.8273 55.6718 11.3759 54.7732 11.3759V29.25L55.6718 29.2059C57.1747 29.1074 58.2608 28.0554 58.3193 26.5708L58.3673 25.6756V19.4219L58.4117 18.5276C58.4494 17.8529 58.5437 17.2598 58.8501 16.7315C59.1664 16.1899 59.62 15.7404 60.1654 15.4279C60.7109 15.1154 61.3292 14.9507 61.9586 14.9504C62.5885 14.9505 63.2073 15.1155 63.7529 15.4288C64.2985 15.742 64.7517 16.1926 65.0672 16.7352ZM3.59127 29.2068L4.4898 29.25H17.9582L17.9139 28.3585C17.7923 26.8889 16.7467 25.8154 15.2655 25.7197L14.367 25.6756H6.28685L17.0597 14.9494L17.0154 14.0589C16.9456 12.5743 15.8557 11.5017 14.367 11.42L13.4684 11.3797L0 11.3759L0.0443134 12.2703C0.162168 13.7257 1.22286 14.8218 2.6918 14.9063L3.59127 14.9504H11.6714L0.898525 25.6765L0.942838 26.5708C1.03147 28.0441 2.0997 29.1111 3.59127 29.2059V29.2068ZM51.248 13.9923C52.0819 14.8221 52.7435 15.8074 53.1948 16.8917C53.6461 17.9761 53.8784 19.1383 53.8784 20.312C53.8784 21.4858 53.6461 22.648 53.1948 23.7323C52.7435 24.8167 52.0819 25.802 51.248 26.6318C49.5631 28.3074 47.2788 29.2486 44.897 29.2486C42.5152 29.2486 40.2309 28.3074 38.5461 26.6318C35.0396 23.1418 35.0396 17.4822 38.5461 13.9923C39.3792 13.1627 40.3684 12.5046 41.4572 12.0555C42.5459 11.6064 43.7128 11.3752 44.8914 11.375C46.0718 11.3742 47.2408 11.605 48.3315 12.0543C49.4223 12.5035 50.4133 13.1624 51.248 13.9932V13.9923ZM48.707 16.5232C49.717 17.5292 50.2843 18.8931 50.2843 20.3153C50.2843 21.7375 49.717 23.1015 48.707 24.1075C47.6963 25.1127 46.3259 25.6774 44.897 25.6774C43.4682 25.6774 42.0977 25.1127 41.087 24.1075C40.077 23.1015 39.5097 21.7375 39.5097 20.3153C39.5097 18.8931 40.077 17.5292 41.087 16.5232C42.0977 15.5179 43.4682 14.9532 44.897 14.9532C46.3259 14.9532 47.6963 15.5179 48.707 16.5232ZM26.0459 11.375C27.2245 11.3753 28.3915 11.6067 29.4802 12.0559C30.5689 12.5051 31.5581 13.1634 32.3912 13.9932C35.8986 17.4822 35.8986 23.1428 32.3912 26.6318C30.7064 28.3074 28.422 29.2486 26.0403 29.2486C23.6585 29.2486 21.3741 28.3074 19.6893 26.6318C16.1829 23.1418 16.1829 17.4822 19.6893 13.9923C20.5225 13.1627 21.5117 12.5046 22.6004 12.0555C23.6891 11.6064 24.8561 11.3752 26.0346 11.375H26.0459ZM29.8503 16.5213C30.8605 17.5273 31.428 18.8915 31.428 20.3139C31.428 21.7363 30.8605 23.1005 29.8503 24.1065C28.8395 25.1118 27.4691 25.6764 26.0403 25.6764C24.6114 25.6764 23.241 25.1118 22.2302 24.1065C21.2203 23.1005 20.6529 21.7365 20.6529 20.3144C20.6529 18.8922 21.2203 17.5282 22.2302 16.5222C23.241 15.517 24.6114 14.9523 26.0403 14.9523C27.4691 14.9523 28.8395 15.517 29.8503 16.5222V16.5213Z" fill="#1D1C1F"/>
</svg>
