<svg width="134" height="39" viewBox="0 0 134 39" fill="none" xmlns="http://www.w3.org/2000/svg">
<path d="M37.0352 11.3856H43.3012C47.296 11.3856 50.596 13.67 50.596 18.8859V19.9819C50.596 25.2373 47.5098 27.6009 43.4215 27.6009H37.0352V11.3856ZM40.5356 14.3303V24.6431H43.221C45.4923 24.6431 47.0154 23.1774 47.0154 19.9158V19.0575C47.0154 15.796 45.4122 14.3303 43.1008 14.3303H40.5356ZM52.4531 14.4887H55.2588L55.7131 17.539C56.2475 15.4659 57.6103 14.3567 60.082 14.3567H60.9504V17.8559H59.5075C56.6617 17.8559 55.9669 18.833 55.9669 21.606V27.6406H52.5066V14.4887H52.4531ZM61.6451 21.3287V20.959C61.6451 16.5618 64.4909 14.1586 68.3654 14.1586C72.3201 14.1586 75.0857 16.5618 75.0857 20.959V21.3287C75.0857 25.6467 72.4003 27.9707 68.3654 27.9707C64.0767 27.9311 61.6451 25.6599 61.6451 21.3287ZM71.5452 21.2891V20.959C71.5452 18.5161 70.3027 17.0504 68.3254 17.0504C66.3881 17.0504 65.1055 18.3973 65.1055 20.959V21.2891C65.1055 23.6528 66.348 24.9996 68.3254 24.9996C70.3027 24.96 71.5452 23.6528 71.5452 21.2891ZM76.9028 14.4887H79.7886L80.1226 16.9712C80.8174 15.3074 82.3004 14.1586 84.4915 14.1586C87.8717 14.1586 90.1029 16.5618 90.1029 21.0118V21.3815C90.1029 25.6995 87.6312 27.9839 84.4915 27.9839C82.3939 27.9839 80.951 27.0464 80.2429 25.541V32.183H76.8627L76.9028 14.4887ZM86.5891 21.2891V20.9986C86.5891 18.3841 85.2263 17.09 83.4093 17.09C81.472 17.09 80.1894 18.5557 80.1894 20.9986V21.2495C80.1894 23.5735 81.432 25.0392 83.3692 25.0392C85.3599 24.9996 86.5891 23.7452 86.5891 21.2891ZM95.22 25.2109L94.926 27.6142H91.96V10.0916H95.3402V16.8127C96.0884 15.0961 97.5714 14.1586 99.669 14.1586C102.849 14.1982 105.2 16.3638 105.2 20.7213V21.1307C105.2 25.4882 102.969 27.9839 99.5888 27.9839C97.3576 27.9311 95.9147 26.9143 95.22 25.2109ZM101.646 21.1307V20.8005C101.646 18.3973 100.324 17.0504 98.4666 17.0504C96.5694 17.0504 95.2467 18.5557 95.2467 20.8402V21.1307C95.2467 23.5735 96.5293 24.9996 98.4265 24.9996C100.457 24.9996 101.646 23.7452 101.646 21.1307ZM106.683 21.3287V20.959C106.683 16.5618 109.529 14.1586 113.404 14.1586C117.358 14.1586 120.124 16.5618 120.124 20.959V21.3287C120.124 25.6467 117.398 27.9707 113.404 27.9707C109.115 27.9311 106.683 25.6599 106.683 21.3287ZM116.61 21.2891V20.959C116.61 18.5161 115.368 17.0504 113.39 17.0504C111.453 17.0504 110.17 18.3973 110.17 20.959V21.2891C110.17 23.6528 111.413 24.9996 113.39 24.9996C115.381 24.96 116.61 23.6528 116.61 21.2891ZM124.653 20.8005L119.99 14.4887H123.985L126.67 18.4369L129.396 14.4887H133.351L128.621 20.7609L133.605 27.6142H129.69L126.644 23.2566L123.678 27.6142H119.589L124.653 20.8005Z" fill="#1D1C1F"/>
<path d="M15.4981 11.3857L7.74907 16.2715L15.4981 21.1572L7.74907 26.0429L0 21.1308L7.74907 16.245L0 11.3857L7.74907 6.5L15.4981 11.3857ZM7.70899 27.6143L15.4581 22.7285L23.2071 27.6143L15.4581 32.5L7.70899 27.6143ZM15.4981 21.1308L23.2472 16.245L15.4981 11.3857L23.2071 6.5L30.9562 11.3857L23.2071 16.2715L30.9562 21.1572L23.2071 26.0429L15.4981 21.1308Z" fill="#1D1C1F"/>
</svg>
