<svg width="127" height="39" viewBox="0 0 127 39" fill="none" xmlns="http://www.w3.org/2000/svg">
<g clip-path="url(#clip0_1_2247)">
<path d="M108.108 18.636V28.4283H111.281V21.9001H122.883V28.4283H126.055V18.636H108.108ZM110.918 15.4614H123.155C124.877 15.1484 126.1 13.6281 126.463 12.1973H107.61C107.972 13.6281 109.241 15.1036 110.918 15.4614ZM98.455 28.4283C100.041 27.7576 100.902 26.595 101.265 25.2536H86.9889V12.242H83.7711V28.4283H98.455ZM59.9779 15.4166H71.308C73.0302 14.9248 74.4351 13.6281 74.7977 12.242H56.8508V21.8107H71.5346V25.1642H60.0232C58.2104 25.656 56.6695 26.8633 55.8991 28.4283H74.7071V18.636H60.0232L59.9779 15.4166ZM32.0605 15.4614H44.297C46.0192 15.1484 47.2882 13.6281 47.6054 12.1973H28.7068C29.0693 13.6281 30.3383 15.1036 32.0605 15.4614ZM32.0605 21.8554H44.297C46.0192 21.5424 47.2882 20.0221 47.6054 18.5913H28.7068C29.0693 20.0221 30.3383 21.4977 32.0605 21.8554ZM32.0605 28.4283H44.297C46.0192 28.1153 47.2882 26.595 47.6054 25.1642H28.7068C29.0693 26.595 30.3383 28.1153 32.0605 28.4283Z" fill="#1D1C1F"/>
<path d="M0.200195 12.242C0.562759 13.6728 1.83173 15.1036 3.50859 15.4614H8.67513L8.94705 15.5508V28.3836H12.1648V15.5508L12.4367 15.4614H17.6033C19.3254 15.0142 20.5491 13.6728 20.9117 12.242V12.1973L0.200195 12.242Z" fill="#1D1C1F"/>
</g>
<defs>
<clipPath id="clip0_1_2247">
<rect width="126" height="39" fill="white" transform="translate(0.200195)"/>
</clipPath>
</defs>
</svg>
