<svg width="106" height="39" viewBox="0 0 106 39" fill="none" xmlns="http://www.w3.org/2000/svg">
<g clip-path="url(#clip0_1_2250)">
<path d="M22.5469 9.65526C22.526 9.51148 22.4006 9.42932 22.2961 9.42932C22.1916 9.42932 20.1225 9.38824 20.1225 9.38824C20.1225 9.38824 18.3877 7.74505 18.2205 7.56019C18.0533 7.39587 17.7189 7.43695 17.5935 7.47803C17.5935 7.47803 17.2591 7.58073 16.7157 7.74505C16.632 7.45749 16.4857 7.10831 16.2976 6.7386C15.6915 5.58836 14.7719 4.97216 13.6851 4.97216C13.6015 4.97216 13.5387 4.97216 13.4551 4.9927C13.4133 4.95162 13.3924 4.91054 13.3506 4.89C12.8699 4.39705 12.2638 4.15057 11.5323 4.17111C10.1319 4.21219 8.73159 5.21864 7.58205 6.98507C6.78783 8.23801 6.18171 9.79904 5.9936 11.0109C4.38425 11.5039 3.25561 11.853 3.21381 11.853C2.39868 12.0995 2.37778 12.12 2.27328 12.88C2.23148 13.4551 0.0996094 29.6611 0.0996094 29.6611L17.9906 32.701L25.7447 30.8114C25.7238 30.8114 22.5678 9.79904 22.5469 9.65526ZM15.8169 8.03261C15.3989 8.15585 14.9391 8.29963 14.4375 8.46395C14.4375 7.76559 14.333 6.77968 14.0195 5.95808C15.0854 6.1224 15.6079 7.31371 15.8169 8.03261ZM13.4969 8.73097C12.5564 9.01852 11.5323 9.32662 10.5081 9.63472C10.8008 8.54611 11.3442 7.47803 12.013 6.75914C12.2638 6.49212 12.6191 6.20456 13.0162 6.04024C13.4342 6.84129 13.5178 7.97099 13.4969 8.73097ZM11.5741 5.0954C11.9085 5.0954 12.1802 5.15702 12.4101 5.32134C12.0339 5.5062 11.6577 5.79376 11.3233 6.16348C10.4245 7.10831 9.73482 8.56665 9.46312 9.9839C8.60619 10.2509 7.77016 10.4974 7.01774 10.7233C7.51935 8.48449 9.42131 5.15702 11.5741 5.0954Z" fill="#1D1C1F"/>
<path d="M22.2958 9.42886C22.1913 9.42886 20.1221 9.38778 20.1221 9.38778C20.1221 9.38778 18.3873 7.74459 18.2201 7.55973C18.1574 7.49811 18.0738 7.45703 17.9902 7.45703V32.7006L25.7444 30.8109C25.7444 30.8109 22.5884 9.79858 22.5675 9.6548C22.5257 9.51102 22.4003 9.42886 22.2958 9.42886Z" fill="#1D1C1F"/>
<path d="M13.6853 13.3517L12.7866 16.6586C12.7866 16.6586 11.7834 16.2067 10.592 16.2889C8.83636 16.3916 8.83636 17.4802 8.83636 17.7472C8.94087 19.2261 12.8911 19.5547 13.121 23.0259C13.2882 25.7577 11.658 27.6269 9.27528 27.7707C6.43279 27.9144 4.86523 26.2712 4.86523 26.2712L5.47135 23.7448C5.47135 23.7448 7.05981 24.9156 8.31385 24.8335C9.12897 24.7924 9.44248 24.1146 9.40068 23.6627C9.27528 21.7319 6.05657 21.8552 5.84757 18.6715C5.68036 16.0013 7.45692 13.3106 11.3862 13.0641C12.912 12.9614 13.6853 13.3517 13.6853 13.3517Z" fill="#1D1C1F"/>
<path d="M36.2368 20.3972C35.3381 19.9248 34.8783 19.514 34.8783 18.9594C34.8783 18.2611 35.5262 17.8092 36.5294 17.8092C37.6999 17.8092 38.7449 18.2816 38.7449 18.2816L39.56 15.8168C39.56 15.8168 38.8076 15.2417 36.5921 15.2417C33.4988 15.2417 31.3461 16.9876 31.3461 19.4318C31.3461 20.8286 32.3493 21.8761 33.6869 22.6361C34.7738 23.2317 35.15 23.6631 35.15 24.2998C35.15 24.9571 34.6066 25.4911 33.6033 25.4911C32.1194 25.4911 30.6981 24.7311 30.6981 24.7311L29.8203 27.1959C29.8203 27.1959 31.1162 28.0586 33.3107 28.0586C36.4876 28.0586 38.7867 26.5181 38.7867 23.7452C38.7658 22.2458 37.6163 21.1777 36.2368 20.3972Z" fill="#1D1C1F"/>
<path d="M48.9027 15.2008C47.3352 15.2008 46.102 15.9402 45.1615 17.0494L45.1197 17.0289L46.4782 10.0453H42.946L39.4974 27.8328H43.0296L44.2 21.753C44.6599 19.4526 45.8721 18.0353 47.0007 18.0353C47.795 18.0353 48.1085 18.5693 48.1085 19.3293C48.1085 19.8017 48.0667 20.3974 47.9622 20.8698L46.6245 27.8328H50.1567L51.5362 20.6439C51.6825 19.8839 51.787 18.9801 51.787 18.364C51.8079 16.3921 50.7629 15.2008 48.9027 15.2008Z" fill="#1D1C1F"/>
<path d="M59.8126 15.2005C55.5488 15.2005 52.7272 18.9798 52.7272 23.1905C52.7272 25.8812 54.4202 28.0585 57.5971 28.0585C61.7772 28.0585 64.5988 24.3818 64.5988 20.0685C64.6197 17.5831 63.1358 15.2005 59.8126 15.2005ZM58.0778 25.4088C56.8656 25.4088 56.3639 24.4024 56.3639 23.1289C56.3639 21.1365 57.409 17.8912 59.3318 17.8912C60.5859 17.8912 61.0039 18.9593 61.0039 19.9863C61.0039 22.1224 59.938 25.4088 58.0778 25.4088Z" fill="#1D1C1F"/>
<path d="M73.6702 15.2005C71.2875 15.2005 69.929 17.275 69.929 17.275H69.8872L70.0962 15.4059H66.9611C66.8148 16.6588 66.5222 18.5896 66.2504 20.0274L63.7842 32.7621H67.3164L68.2987 27.6066H68.3823C68.3823 27.6066 69.1138 28.0585 70.4515 28.0585C74.6107 28.0585 77.3278 23.8683 77.3278 19.6371C77.3278 17.2956 76.2619 15.2005 73.6702 15.2005ZM70.2843 25.4499C69.3646 25.4499 68.8212 24.9364 68.8212 24.9364L69.4064 21.6911C69.8245 19.5139 70.974 18.0761 72.2071 18.0761C73.294 18.0761 73.6284 19.062 73.6284 19.9863C73.6284 22.2457 72.2698 25.4499 70.2843 25.4499Z" fill="#1D1C1F"/>
<path d="M82.3852 10.2095C81.2565 10.2095 80.3578 11.0928 80.3578 12.2224C80.3578 13.2494 81.0266 13.9683 82.0298 13.9683H82.0716C83.1794 13.9683 84.1199 13.2289 84.1408 11.9554C84.1408 10.949 83.4511 10.2095 82.3852 10.2095Z" fill="#1D1C1F"/>
<path d="M77.4319 27.8121H80.9641L83.3677 15.4882H79.8146L77.4319 27.8121Z" fill="#1D1C1F"/>
<path d="M92.3757 15.4678H89.9094L90.0348 14.8927C90.2438 13.7014 90.9545 12.6539 92.1458 12.6539C92.7728 12.6539 93.2744 12.8387 93.2744 12.8387L93.9642 10.1069C93.9642 10.1069 93.358 9.79883 92.0413 9.79883C90.7873 9.79883 89.5332 10.148 88.5718 10.9491C87.3595 11.9555 86.7952 13.4138 86.5235 14.8927L86.419 15.4678H84.7678L84.2453 18.0969H85.8965L84.0154 27.8329H87.5476L89.4287 18.0969H91.8741L92.3757 15.4678Z" fill="#1D1C1F"/>
<path d="M100.903 15.4882C100.903 15.4882 98.6875 20.9723 97.7052 23.9712H97.6634C97.6007 23.0058 96.7856 15.4882 96.7856 15.4882H93.0652L95.1971 26.8057C95.2389 27.0521 95.218 27.2165 95.1135 27.3808C94.6955 28.1613 94.0058 28.9213 93.1906 29.4758C92.5218 29.9483 91.7694 30.2564 91.1842 30.4618L92.1665 33.4195C92.8771 33.2757 94.382 32.6801 95.636 31.5298C97.2454 30.051 98.7502 27.7505 100.276 24.6284L104.602 15.4882H100.903Z" fill="#1D1C1F"/>
</g>
<defs>
<clipPath id="clip0_1_2250">
<rect width="105" height="39" fill="white" transform="translate(0.0996094)"/>
</clipPath>
</defs>
</svg>
