<svg width="138" height="39" viewBox="0 0 138 39" fill="none" xmlns="http://www.w3.org/2000/svg">
<path d="M5.57674 24.8041C5.32897 24.0651 5.20605 23.1324 5.20605 21.8783C5.20605 20.6238 5.32897 19.6891 5.57674 18.9521C6.26894 16.8373 8.10258 15.6819 10.5035 15.6819C12.2866 15.6819 13.6984 16.3952 14.6403 17.5265C14.7131 17.6242 14.7377 17.7716 14.6153 17.8696L13.0559 19.2223C12.9315 19.3213 12.8081 19.2967 12.7084 19.1739C12.1135 18.5104 11.4946 18.1408 10.504 18.1408C9.43969 18.1408 8.62317 18.6573 8.27561 19.6901C8.07895 20.2816 8.02834 20.9693 8.02834 21.8788C8.02834 22.7883 8.07847 23.5011 8.27561 24.0917C8.62268 25.0988 9.43969 25.6154 10.504 25.6154C11.4946 25.6154 12.1135 25.2462 12.7084 24.5841C12.8081 24.4595 12.9315 24.4595 13.0559 24.558L14.6153 25.9107C14.7377 26.0088 14.7131 26.132 14.6403 26.2553C13.6989 27.3624 12.287 28.0748 10.5035 28.0748C8.10258 28.0738 6.26894 26.9174 5.57674 24.8041Z" fill="#1D1C1F"/>
<path d="M59.6812 24.8041C59.4335 24.0651 59.3105 23.1324 59.3105 21.8783C59.3105 20.6238 59.4335 19.6891 59.6812 18.9521C60.3749 16.8373 62.2066 15.6819 64.6076 15.6819C66.3911 15.6819 67.8035 16.3952 68.7439 17.5265C68.8177 17.6242 68.8432 17.7716 68.7183 17.8696L67.1585 19.2223C67.0346 19.3213 66.9117 19.2967 66.8124 19.1739C66.2186 18.5104 65.5991 18.1408 64.6076 18.1408C63.5438 18.1408 62.7263 18.6573 62.3802 19.6901C62.1815 20.2816 62.1333 20.9693 62.1333 21.8788C62.1333 22.7883 62.1815 23.5011 62.3802 24.0917C62.7263 25.0988 63.5438 25.6154 64.6076 25.6154C65.5991 25.6154 66.2186 25.2462 66.8124 24.5841C66.9117 24.4595 67.0351 24.4595 67.1585 24.558L68.7183 25.9107C68.8432 26.0088 68.8177 26.132 68.7439 26.2553C67.8035 27.3624 66.3911 28.0748 64.6076 28.0748C62.2066 28.0738 60.3749 26.9174 59.6812 24.8041Z" fill="#1D1C1F"/>
<path d="M122.212 27.8041C122.063 27.8041 121.965 27.7065 121.965 27.5577V20.7228C121.965 19.1981 121.197 18.1403 119.71 18.1403C118.275 18.1403 117.433 19.1977 117.433 20.7228V27.5577C117.433 27.706 117.333 27.8041 117.186 27.8041H114.906C114.758 27.8041 114.659 27.7065 114.659 27.5577V20.7228C114.659 19.1981 113.891 18.1403 112.407 18.1403C110.971 18.1403 110.128 19.1977 110.128 20.7228V27.5577C110.128 27.706 110.029 27.8041 109.88 27.8041H107.602C107.452 27.8041 107.354 27.7065 107.354 27.5577V16.198C107.354 16.0501 107.452 15.9516 107.602 15.9516H109.88C110.029 15.9516 110.128 16.0501 110.128 16.198V17.0587H110.153C110.673 16.3208 111.713 15.6819 113.297 15.6819C114.709 15.6819 115.848 16.2463 116.565 17.2549H116.591C117.506 16.2724 118.695 15.6819 120.404 15.6819C123.177 15.6819 124.738 17.5501 124.738 20.083V27.5572C124.738 27.706 124.638 27.8041 124.489 27.8041H122.212Z" fill="#1D1C1F"/>
<path d="M128.178 32.2283C128.03 32.2283 127.931 32.1298 127.931 31.9814V30.015C127.931 29.8681 128.03 29.7681 128.178 29.7681H128.624C129.565 29.7681 130.037 29.3519 130.408 28.3676L130.755 27.3594L126.396 16.1965C126.346 16.0486 126.445 15.9501 126.595 15.9501H129.046C129.194 15.9501 129.294 16.0486 129.342 16.1965L132.042 23.9418H132.091L134.667 16.1965C134.716 16.0486 134.815 15.9501 134.962 15.9501H137.314C137.465 15.9501 137.564 16.0486 137.513 16.1965L132.958 28.5396C131.918 31.3431 130.927 32.2275 128.947 32.2275L128.178 32.2283Z" fill="#1D1C1F"/>
<path d="M16.9197 24.8042C16.6473 23.9666 16.5234 23.1804 16.5234 21.8774C16.5234 20.5765 16.6473 19.7892 16.9197 18.955C17.5883 16.8896 19.419 15.6843 21.845 15.6843C24.2456 15.6843 26.0773 16.8891 26.7458 18.955C27.0167 19.7892 27.1416 20.5765 27.1416 21.8774C27.1416 23.1804 27.0167 23.9666 26.7458 24.8042C26.0768 26.8681 24.2456 28.0725 21.845 28.0725C19.419 28.073 17.5883 26.8686 16.9197 24.8042ZM24.0725 24.0666C24.2711 23.4529 24.3203 22.8865 24.3203 21.8779C24.3203 20.8722 24.2711 20.3305 24.0725 19.6921C23.7264 18.7096 22.9585 18.1427 21.845 18.1427C20.732 18.1427 19.9386 18.7096 19.593 19.6921C19.3958 20.3309 19.3457 20.8722 19.3457 21.8779C19.3457 22.8865 19.3958 23.4529 19.593 24.0666C19.9386 25.0511 20.7325 25.6145 21.845 25.6145C22.9585 25.6141 23.7264 25.0506 24.0725 24.0666Z" fill="#1D1C1F"/>
<path d="M75.378 15.6819C73.4214 15.6819 72.1098 16.1487 71.1433 16.8373C71.0455 16.9123 71.02 17.0336 71.0952 17.1563L72.009 18.7801C72.0857 18.9033 72.2322 18.928 72.3571 18.8293C72.9268 18.3877 73.7429 18.0175 75.081 18.0175C77.0318 18.0175 77.6941 18.5995 77.7278 19.8787H77.7283V19.8944C77.7292 19.9242 77.7292 19.9546 77.7292 19.9863V23.8225C77.7292 25.1746 76.7889 25.8372 75.081 25.8372C73.7429 25.8372 73.0257 25.3467 73.0257 24.3637C73.0257 23.2566 73.8186 22.7636 75.6007 22.7636L76.1424 22.7646C76.2909 22.7646 76.3906 22.6661 76.3906 22.5196V20.9432C76.3906 20.7962 76.2909 20.6982 76.1424 20.6982H76.0234L75.1553 20.6977C72.2091 20.6977 70.375 21.8797 70.375 24.4599C70.375 26.9439 72.2091 28.0743 74.3869 28.0743C76.0692 28.0743 77.1841 27.5094 77.7539 26.6979H77.778V27.5586C77.778 27.7065 77.8782 27.8051 78.0262 27.8051H80.1057C80.2546 27.8051 80.3539 27.707 80.3539 27.5586V19.8133C80.3544 16.9123 79.0178 15.6819 75.378 15.6819Z" fill="#1D1C1F"/>
<path d="M45.7956 20.6963C45.7309 20.6963 45.6885 20.7385 45.6885 20.8019V20.8721V21.0778V22.3802V22.5551V22.6561C45.6885 22.7196 45.7309 22.7623 45.7956 22.7623H45.8573H51.927C52.1005 22.7623 52.1998 22.6646 52.1998 22.5182C52.1998 20.5986 52.075 19.7868 51.8036 18.9516C51.1341 16.9355 49.352 15.6819 46.9004 15.6819C44.5235 15.6819 42.6918 16.8862 42.0222 18.9516C41.776 19.7138 41.626 20.6485 41.626 21.8778C41.626 23.1072 41.7995 24.0163 42.0487 24.7794C42.7168 26.8439 44.4989 28.0733 47.0243 28.0733C49.2271 28.0733 50.9123 27.2373 51.9265 26.0572C52.0248 25.9349 52.0248 25.8121 51.9014 25.7126L50.4419 24.4344C50.317 24.3362 50.1936 24.3618 50.0693 24.4836C49.4759 25.1235 48.6092 25.6149 47.272 25.6149C45.9363 25.6149 44.9944 24.9761 44.5982 23.821C44.5384 23.6594 44.4888 23.4898 44.4575 23.3054H44.457C44.3668 22.8049 44.3138 22.3177 44.3138 21.602C44.3331 20.9275 44.3726 20.4968 44.47 19.9493C44.4709 19.9417 44.4724 19.9351 44.4738 19.928C44.4748 19.9223 44.4758 19.918 44.4767 19.9123V19.9128C44.5003 19.784 44.5327 19.6626 44.5726 19.5417C44.8947 18.5829 45.7859 18.0175 46.9259 18.0175C48.0404 18.0175 48.9302 18.5829 49.2522 19.5417C49.352 19.8384 49.4007 20.1318 49.4007 20.5508C49.4007 20.6489 49.3515 20.6972 49.2522 20.6972H45.999L45.9995 20.6967L45.7956 20.6963Z" fill="#1D1C1F"/>
<path d="M39.3268 11.0846H37.0527C36.9027 11.0846 36.8039 11.1827 36.8039 11.3287V17.0735V21.8243C36.8039 21.8371 36.8039 21.8499 36.8039 21.8622C36.8039 21.8751 36.8039 21.8878 36.8039 21.9002V22.531H36.7914C36.7648 23.2087 36.6901 23.6543 36.5576 24.0718C36.2361 25.0529 35.4682 25.5928 34.3321 25.5928C33.2195 25.5928 32.4535 25.0529 32.1306 24.0718C31.9581 23.531 31.8848 22.9424 31.8848 21.8622C31.8848 20.7826 31.9581 20.1925 32.1306 19.6536C32.4473 18.6911 33.1887 18.1474 34.2646 18.126H35.2354C35.2826 18.1147 35.3134 18.0782 35.3134 18.0251L35.326 15.7805C35.326 15.7232 35.2893 15.6847 35.2354 15.6781L34.4602 15.6753H33.5492V15.6758C31.556 15.6966 30.097 16.6521 29.4857 18.5218C29.1888 19.4313 29.0654 20.2674 29.0654 21.8622C29.0654 23.4576 29.1888 24.2927 29.4857 25.2003C30.1037 27.0913 31.5874 28.0488 33.6143 28.0488C35.2224 28.0488 36.2114 27.4605 36.7788 26.6492H36.8029V27.5331C36.8029 27.681 36.9023 27.779 37.0517 27.779H39.3259C39.4743 27.779 39.5736 27.6815 39.5736 27.5331V11.3287C39.5746 11.1822 39.4753 11.0846 39.3268 11.0846Z" fill="#1D1C1F"/>
<path d="M98.9464 20.6963C98.8828 20.6963 98.839 20.7385 98.839 20.8019V20.8721V21.0778V22.3802V22.5551V22.6561C98.839 22.7196 98.8828 22.7623 98.9464 22.7623H99.0092H105.079C105.252 22.7623 105.351 22.6646 105.351 22.5182C105.351 20.5986 105.227 19.7868 104.956 18.9516C104.286 16.9355 102.504 15.6819 100.053 15.6819C97.6755 15.6819 95.8443 16.8862 95.1741 18.9516C94.9279 19.7138 94.7783 20.6485 94.7783 21.8778C94.7783 23.1072 94.9519 24.0163 95.2006 24.7794C95.8683 26.8439 97.6507 28.0733 100.176 28.0733C102.379 28.0733 104.065 27.2373 105.079 26.0572C105.177 25.9349 105.177 25.8121 105.054 25.7126L103.594 24.4344C103.47 24.3362 103.346 24.3618 103.222 24.4836C102.629 25.1235 101.763 25.6149 100.424 25.6149C99.0885 25.6149 98.1473 24.9761 97.7507 23.821C97.6912 23.6594 97.6408 23.4898 97.6102 23.3054C97.5193 22.8049 97.4664 22.3177 97.4664 21.602C97.4846 20.9275 97.5243 20.4968 97.6218 19.9493C97.6243 19.9417 97.6251 19.9351 97.6259 19.928C97.6267 19.9223 97.6276 19.918 97.6292 19.9123V19.9128C97.6532 19.784 97.6854 19.6626 97.7251 19.5417C98.0465 18.5829 98.9382 18.0175 100.079 18.0175C101.193 18.0175 102.083 18.5829 102.405 19.5417C102.504 19.8384 102.553 20.1318 102.553 20.5508C102.553 20.6489 102.504 20.6972 102.405 20.6972H99.1514V20.6967L98.9464 20.6963Z" fill="#1D1C1F"/>
<path d="M92.593 11.0846H90.3148C90.166 11.0846 90.0669 11.1832 90.0669 11.3292V17.082V21.8405V21.8778V21.9163V22.5481H90.0544C90.0272 23.2268 89.952 23.6727 89.8198 24.0908C89.4975 25.0737 88.7282 25.615 87.5911 25.615C86.478 25.615 85.7103 25.0737 85.3872 24.0908C85.2145 23.549 85.1393 22.9599 85.1393 21.8778C85.1393 20.7968 85.2137 20.2053 85.3872 19.666C85.7037 18.7019 86.4466 18.1626 87.5242 18.1412L88.4968 18.1417C88.6455 18.1417 88.7447 18.0436 88.7447 17.8972V15.9269C88.7447 15.78 88.6455 15.6819 88.4968 15.6819H88.3778L86.9077 15.6815C86.8962 15.6815 86.8846 15.6815 86.8738 15.6815C86.8623 15.6815 86.8524 15.6815 86.8416 15.6815H86.8077V15.6819C84.8121 15.7023 83.3511 16.6596 82.7388 18.5323C82.4417 19.4432 82.3184 20.2797 82.3184 21.877C82.3184 23.4747 82.4417 24.3116 82.7388 25.2206C83.3577 27.1136 84.8443 28.0729 86.8738 28.0729C88.4844 28.0729 89.4744 27.4843 90.0437 26.6714H90.0677V27.5563C90.0677 27.7051 90.1668 27.8028 90.3164 27.8028H92.5946C92.7426 27.8028 92.8425 27.7056 92.8425 27.5563V11.3292C92.8409 11.1827 92.7409 11.0846 92.593 11.0846Z" fill="#1D1C1F"/>
<path d="M59.4951 31.1559V33.3963C59.4951 33.5437 59.5944 33.6414 59.7434 33.6414H68.1866C68.3375 33.6414 68.4372 33.5432 68.4372 33.3963V31.1559C68.4372 31.0104 68.3375 30.9124 68.1866 30.9124H59.7434C59.5944 30.9124 59.4951 31.0104 59.4951 31.1559Z" fill="#1D1C1F"/>
<path d="M57.3514 5.28264C57.3475 5.27885 57.3451 5.27411 57.3417 5.27079C57.3412 5.27032 57.3407 5.27032 57.3407 5.27032C57.2974 5.22813 57.2357 5.20349 57.1624 5.20349H57.1595H0.248727C0.229928 5.20349 0.212093 5.20538 0.194739 5.20823C0.189919 5.20918 0.185581 5.21107 0.180279 5.21202C0.169192 5.21487 0.157142 5.21723 0.147019 5.2215C0.145091 5.22198 0.143645 5.22292 0.142199 5.22387C0.0539872 5.25942 0 5.34046 0 5.44757V5.44852V33.3928V33.3946C0 33.48 0.0337421 33.5467 0.0906214 33.5894C0.0949597 33.5937 0.0988163 33.5974 0.104601 33.6003V33.6008C0.144127 33.6255 0.19233 33.6387 0.248727 33.6387H57.159H57.1619C57.2458 33.6387 57.3138 33.6069 57.3567 33.5524C57.3904 33.5117 57.4101 33.4581 57.4101 33.3942V33.3923V5.44852V5.44757C57.4101 5.38075 57.3885 5.32434 57.3514 5.28264ZM3.0204 30.9112C3.00256 30.9112 2.9852 30.9097 2.96978 30.9073C2.96496 30.9064 2.95966 30.904 2.95484 30.9026C2.94328 30.9002 2.93171 30.8978 2.9211 30.8936C2.91917 30.8931 2.9182 30.8917 2.91628 30.8912C2.82855 30.8561 2.77504 30.7756 2.77456 30.6694V10.4146V8.17513C2.77456 8.06755 2.82855 7.98752 2.91628 7.95145C2.91869 7.95096 2.92014 7.94958 2.92158 7.94909C2.93171 7.94527 2.96448 7.93723 2.96978 7.93585C2.98617 7.93349 3.00352 7.93203 3.02136 7.93203H54.3884C54.4066 7.93203 54.4236 7.93349 54.4399 7.93585C54.4452 7.93723 54.45 7.93918 54.4544 7.94056C54.466 7.94292 54.4775 7.94527 54.4881 7.94958C54.4905 7.95007 54.4915 7.95145 54.4934 7.95193C54.5816 7.98752 54.6351 8.06804 54.6351 8.17562V30.6698C54.6347 30.7765 54.5807 30.8571 54.4939 30.8921C54.492 30.8926 54.491 30.8941 54.4886 30.8945C54.4785 30.8983 54.4665 30.9012 54.4554 30.9035C54.45 30.905 54.4457 30.9073 54.4404 30.9083C54.424 30.9112 54.4081 30.9121 54.3903 30.9121H3.0204V30.9112Z" fill="#1D1C1F"/>
</svg>
