<svg width="78" height="39" viewBox="0 0 78 39" fill="none" xmlns="http://www.w3.org/2000/svg">
<g clip-path="url(#clip0_1_2234)">
<path d="M41.1417 17.2506C41.293 17.1202 41.4745 17.0154 41.6759 16.9422C41.8773 16.869 42.0945 16.829 42.315 16.8243C42.5355 16.8196 42.755 16.8505 42.9608 16.915C43.1665 16.9796 43.3546 17.0766 43.514 17.2004C43.6735 17.3243 43.8012 17.4726 43.8898 17.6367C43.9784 17.8009 44.0261 17.9776 44.0303 18.1568C44.0344 18.336 43.9949 18.5141 43.9139 18.6808C43.833 18.8476 43.7122 18.9996 43.5587 19.1283C43.2513 19.3857 42.8312 19.5339 42.39 19.5407C41.9487 19.5474 41.522 19.4121 41.203 19.1643C40.884 18.9165 40.6985 18.5762 40.6871 18.2177C40.6756 17.8593 40.839 17.5116 41.1417 17.2506ZM50.7217 29.2035C50.6772 28.1564 50.2957 27.0504 49.3224 26.32C48.2358 25.5049 46.6635 25.1308 45.2017 25.1308H38.6857C38.0423 25.1308 37.4732 24.7406 37.4732 24.259C37.4732 23.8614 37.8049 23.5153 38.2779 23.4159C38.2761 23.4152 38.3894 23.3924 38.509 23.3607C39.6981 23.806 40.9942 24.0309 42.3035 24.019C44.3127 24.019 46.3254 23.5418 47.7999 22.4285C49.2363 21.3439 49.9069 19.8278 49.9069 18.2756C49.9069 16.7234 49.2363 15.2088 47.7999 14.1249C47.381 13.8092 46.9141 13.5382 46.4106 13.3187C47.7945 13.5778 49.2227 13.2568 50.2051 11.8872L47.4365 10.2798L45.1283 12.8776C44.2143 12.6448 43.2614 12.5285 42.3035 12.533C40.2952 12.533 38.2807 13.0101 36.8062 14.1235C35.3707 15.2081 34.701 16.7242 34.701 18.2749C34.701 19.8256 35.3707 21.3432 36.8062 22.4278C36.9322 22.5213 37.0599 22.6104 37.1932 22.6958L36.9231 22.8114C36.2465 23.1263 35.6323 23.5225 35.1015 23.9866C34.1917 24.7693 33.2818 25.9415 33.2818 27.5018C33.2818 27.5018 33.1549 30.83 37.8855 30.83H41.3121C42.1005 30.83 42.9052 31.235 42.9052 31.8719C42.9052 32.095 42.8255 32.313 42.676 32.4993H49.23C50.2175 31.5909 50.7498 30.4145 50.7217 29.2027V29.2035ZM57.7723 17.2492C58.0078 17.0657 58.3045 16.9425 58.6255 16.8949C58.9464 16.8473 59.2775 16.8774 59.5777 16.9814C59.8778 17.0854 60.1336 17.2588 60.3135 17.48C60.4933 17.7012 60.5892 17.9604 60.5892 18.2255C60.5892 18.4906 60.4933 18.7499 60.3135 18.9711C60.1336 19.1923 59.8778 19.3657 59.5777 19.4697C59.2775 19.5737 58.9464 19.6038 58.6255 19.5562C58.3045 19.5086 58.0078 19.3854 57.7723 19.2019C57.475 18.9341 57.3105 18.5862 57.3105 18.2255C57.3105 17.8649 57.475 17.517 57.7723 17.2492ZM69.3813 29.2027C69.3378 28.1557 68.9554 27.0497 67.983 26.3193C66.8955 25.5041 65.3232 25.1301 63.8632 25.1301L56.2996 25.0859C55.822 25.0859 55.4586 24.8444 55.4586 24.4865C55.4586 24.192 55.639 23.7532 56.0966 23.6803C57.0011 23.9085 57.9427 24.0219 58.8897 24.0182C60.8997 24.0182 62.9134 23.5411 64.387 22.4278C65.8225 21.3432 66.4931 19.8271 66.4931 18.2749C66.4931 16.7227 65.8225 15.2081 64.387 14.1242C63.9678 13.8086 63.5006 13.5379 62.9968 13.3187C64.3806 13.5778 65.8089 13.2568 66.7913 11.8872L64.0245 10.2798L61.7145 12.8776C60.8005 12.6448 59.8475 12.5285 58.8897 12.533C56.8814 12.533 54.8668 13.0101 53.3924 14.1235C51.9587 15.2081 51.2872 16.7242 51.2872 18.2749C51.2872 19.8256 51.9578 21.3432 53.3924 22.4278C53.8138 22.7444 54.2841 23.0154 54.7907 23.2348C54.4228 23.4616 54.0793 23.7134 53.763 23.9858C52.8513 24.7693 51.9415 25.9415 51.9415 27.5018C51.9415 27.5018 51.8155 30.83 56.5461 30.83H59.9727C60.762 30.83 61.564 31.235 61.564 31.8719C61.564 32.095 61.4861 32.3122 61.3366 32.4993H67.8896C68.8778 31.5912 69.4102 30.4146 69.3813 29.2027ZM77.3128 27.4944V22.5272C75.9 22.6722 75.4097 21.8667 75.4097 21.0685V8.9375H68.408V21.9757C68.408 23.5941 68.7071 24.9445 69.4294 25.795C70.5386 27.088 72.0421 27.934 75.03 27.9451C75.581 27.9245 76.5017 27.8368 77.3128 27.4959V27.4944ZM25.7789 21.4536C25.4167 21.7787 24.9258 21.9905 24.3915 22.0524C23.8571 22.1143 23.313 22.0223 22.8533 21.7924C22.3937 21.5625 22.0475 21.2092 21.8749 20.7937C21.7022 20.3782 21.7139 19.9267 21.908 19.5175C22.102 19.1083 22.4662 18.7671 22.9373 18.5532C23.4085 18.3392 23.9569 18.266 24.4876 18.3461C25.0182 18.4262 25.4977 18.6547 25.8428 18.9919C26.1879 19.3291 26.3769 19.7537 26.3771 20.1923C26.391 20.6605 26.1759 21.114 25.7789 21.4536ZM30.9962 14.7015C29.1882 13.2104 26.7196 12.5728 24.2573 12.5728C21.7942 12.5728 19.3237 13.2104 17.5167 14.7015C15.7558 16.1528 14.9338 18.1821 14.9338 20.2578C14.9338 22.3343 15.7558 24.3643 17.5167 25.8156C19.3228 27.3059 21.7923 27.9443 24.2573 27.9443C26.7214 27.9443 29.1882 27.3059 30.9962 25.8163C32.7562 24.3643 33.579 22.335 33.579 20.2578C33.579 18.1814 32.7562 16.1528 30.9962 14.7015ZM12.3238 22.5478C11.1593 22.5478 10.6835 22.2591 10.2531 21.8174C9.97303 21.5287 9.83437 21.1046 9.83437 20.5545V17.9826H13.743V13.3731H9.83437V8.9375H4.84094V10.5964C4.84094 12.4328 3.10819 13.9217 0.973062 13.9217C0.814915 13.9214 0.656937 13.9133 0.5 13.8974L0.5 17.9826H3.12269V22.0891C3.12269 23.706 3.48337 24.9504 4.20475 25.7994C5.31944 27.0968 6.55375 27.9443 9.57066 27.9443C11.3197 27.9443 12.7824 27.6204 13.743 27.1874V22.3571C13.2878 22.489 12.8071 22.5536 12.3238 22.5478Z" fill="#1D1C1F"/>
</g>
<defs>
<clipPath id="clip0_1_2234">
<rect width="77" height="39" fill="white" transform="translate(0.5)"/>
</clipPath>
</defs>
</svg>
