<svg width="116" height="39" viewBox="0 0 116 39" fill="none" xmlns="http://www.w3.org/2000/svg">
<g clip-path="url(#clip0_1_2228)">
<path d="M17.4599 2.50171C7.85016 2.50171 0.0595703 10.141 0.0595703 19.5643C0.0595703 28.988 7.85016 36.6267 17.4599 36.6267C27.0707 36.6267 34.8604 28.988 34.8604 19.5643C34.8604 10.1416 27.0707 2.50252 17.4597 2.50252L17.4599 2.50171ZM25.4396 27.1109C25.1279 27.6121 24.4588 27.771 23.9477 27.4634C19.8623 25.0163 14.7192 24.4621 8.66238 25.8191C8.07872 25.9495 7.49693 25.5909 7.36395 25.0183C7.23035 24.4458 7.59459 23.8753 8.17971 23.7449C14.808 22.26 20.4935 22.8993 25.0801 25.6479C25.5912 25.9556 25.7533 26.6096 25.4396 27.1109ZM27.5693 22.4649C27.1766 23.0909 26.3413 23.2885 25.7034 22.9034C21.0263 20.0843 13.8966 19.2679 8.36442 20.9146C7.64695 21.1271 6.88917 20.7306 6.67141 20.0283C6.45532 19.3247 6.85987 18.583 7.5761 18.3691C13.8954 16.4889 21.7514 17.3996 27.1226 20.6362C27.7605 21.0213 27.962 21.8404 27.5693 22.4651V22.4649ZM27.7522 17.627C22.1441 14.3607 12.8916 14.0604 7.53724 15.6539C6.67744 15.9096 5.76818 15.4336 5.50762 14.5905C5.24706 13.747 5.73203 12.856 6.59246 12.5997C12.7389 10.77 22.9566 11.1235 29.4132 14.8821C30.1882 15.3322 30.4417 16.3116 29.9825 17.069C29.5254 17.8273 28.5239 18.0773 27.753 17.627H27.7522ZM47.4001 18.253C44.3955 17.5504 43.8615 17.0573 43.8615 16.0213C43.8615 15.0424 44.8007 14.3837 46.1991 14.3837C47.5538 14.3837 48.8961 14.8839 50.3049 15.9137C50.3464 15.9449 50.4005 15.9573 50.4524 15.9491C50.5064 15.9414 50.5521 15.9131 50.5833 15.8705L52.0502 13.8428C52.1105 13.7592 52.0939 13.6441 52.0128 13.5803C50.336 12.2614 48.4494 11.6202 46.2427 11.6202C42.9992 11.6202 40.7323 13.5292 40.7323 16.2605C40.7323 19.1894 42.6876 20.2265 46.0661 21.027C48.9397 21.6764 49.426 22.2204 49.426 23.1927C49.426 24.2706 48.4452 24.9409 46.8661 24.9409C45.1124 24.9409 43.6808 24.3602 42.0809 23.0032C42.0414 22.9686 41.9873 22.9543 41.9375 22.9564C41.8835 22.9604 41.8357 22.9849 41.8024 23.0236L40.1568 24.943C40.0882 25.0245 40.0965 25.1426 40.1755 25.2119C42.0372 26.8419 44.327 27.7018 46.7996 27.7018C50.2945 27.7018 52.5531 25.8293 52.5531 22.9299C52.5593 20.4834 51.0654 19.1285 47.4063 18.2556L47.4001 18.253ZM60.4613 15.3475C58.9465 15.3475 57.704 15.9326 56.6776 17.1317V15.7821C56.6776 15.6755 56.5903 15.5887 56.4822 15.5887H53.7915C53.6834 15.5887 53.5962 15.6755 53.5962 15.7821V30.7784C53.5962 30.8844 53.6834 30.972 53.7915 30.972H56.4822C56.5903 30.972 56.6776 30.8844 56.6776 30.7784V26.0453C57.704 27.172 58.9465 27.7242 60.4613 27.7242C63.2767 27.7242 66.1275 25.599 66.1275 21.5364C66.1317 17.473 63.2809 15.3473 60.4634 15.3473L60.4613 15.3475ZM62.9983 21.5364C62.9983 23.6043 61.6997 25.0489 59.8379 25.0489C57.9991 25.0489 56.6111 23.5391 56.6111 21.5364C56.6111 19.5335 57.9991 18.0241 59.8379 18.0241C61.6685 18.0239 62.9983 19.5007 62.9983 21.5362V21.5364ZM73.4311 15.3475C69.8053 15.3475 66.9649 18.0851 66.9649 21.5806C66.9649 25.0387 69.7866 27.7466 73.3874 27.7466C77.0257 27.7466 79.8744 25.0183 79.8744 21.5364C79.8744 18.0663 77.0444 15.3479 73.4311 15.3479V15.3475ZM73.4311 25.0693C71.5028 25.0693 70.0484 23.5493 70.0484 21.5354C70.0484 19.5124 71.453 18.0443 73.3874 18.0443C75.3281 18.0443 76.7909 19.5637 76.7909 21.5796C76.7909 23.6023 75.378 25.0693 73.4311 25.0693ZM87.6164 15.5887H84.6555V12.6208C84.6555 12.5145 84.5682 12.4277 84.4601 12.4277H81.7694C81.6613 12.4277 81.572 12.5145 81.572 12.6208V15.5887H80.2796C80.1715 15.5887 80.0843 15.6755 80.0843 15.7821V18.0492C80.0843 18.1556 80.1715 18.2426 80.2796 18.2426H81.572V24.1096C81.572 26.4792 82.775 27.6814 85.15 27.6814C86.1141 27.6814 86.9141 27.4858 87.6683 27.0661C87.7306 27.0335 87.768 26.9683 87.768 26.899V24.7392C87.768 24.674 87.7327 24.6108 87.6745 24.5762C87.6164 24.5395 87.5436 24.5375 87.4834 24.5681C86.966 24.8227 86.4652 24.9409 85.9042 24.9409C85.0419 24.9409 84.6555 24.5558 84.6555 23.696V18.2436H87.6164C87.7244 18.2436 87.8117 18.1568 87.8117 18.0502V15.7833C87.8158 15.6767 87.7286 15.5899 87.6184 15.5899L87.6164 15.5887ZM97.9307 15.6003V15.2358C97.9307 14.1635 98.3504 13.6853 99.2896 13.6853C99.8506 13.6853 100.301 13.7945 100.806 13.9595C100.869 13.9787 100.933 13.9691 100.983 13.9326C101.035 13.8961 101.064 13.8377 101.064 13.7757V11.5528C101.064 11.4678 101.01 11.3926 100.925 11.3676C100.393 11.2121 99.7114 11.0526 98.6891 11.0526C96.2061 11.0526 94.8908 12.4246 94.8908 15.019V15.5773H93.5984C93.4904 15.5773 93.401 15.6641 93.401 15.7704V18.0492C93.401 18.1556 93.4904 18.2426 93.5984 18.2426H94.8908V27.2902C94.8908 27.3982 94.9802 27.4837 95.0882 27.4837H97.7769C97.887 27.4837 97.9743 27.3982 97.9743 27.2902V18.2432H100.486L104.335 27.2902C103.898 28.2397 103.468 28.4292 102.882 28.4292C102.408 28.4292 101.908 28.2906 101.399 28.0155C101.351 27.9911 101.293 27.987 101.243 28.0013C101.191 28.0196 101.147 28.0563 101.126 28.1052L100.214 30.0673C100.171 30.161 100.208 30.269 100.299 30.3179C101.251 30.8232 102.109 31.0392 103.171 31.0392C105.157 31.0392 106.257 30.1305 107.223 27.6895L111.889 15.8644C111.914 15.8049 111.906 15.7376 111.869 15.6849C111.833 15.6325 111.773 15.6009 111.709 15.6009H108.908C108.823 15.6009 108.748 15.6533 108.721 15.7305L105.851 23.7653L102.71 15.7252C102.681 15.6504 102.608 15.6009 102.527 15.6009H97.9307V15.6003ZM91.9507 15.5887H89.2599C89.1519 15.5887 89.0625 15.6755 89.0625 15.7821V27.2902C89.0625 27.3982 89.1519 27.4837 89.2599 27.4837H91.9507C92.0587 27.4837 92.1481 27.3982 92.1481 27.2902V15.7829C92.1481 15.6763 92.0608 15.5895 91.9507 15.5895V15.5887ZM90.6209 10.3484C89.555 10.3484 88.6906 11.1944 88.6906 12.2394C88.6906 13.2851 89.555 14.1321 90.6209 14.1321C91.6868 14.1321 92.5491 13.2851 92.5491 12.2394C92.5491 11.1946 91.6847 10.3484 90.6209 10.3484ZM114.188 19.289C113.124 19.289 112.295 18.4506 112.295 17.4325C112.295 16.4143 113.134 15.5663 114.198 15.5663C115.262 15.5663 116.091 16.4045 116.091 17.4219C116.091 18.44 115.251 19.289 114.188 19.289ZM114.198 15.7509C113.228 15.7509 112.494 16.5068 112.494 17.4325C112.494 18.3577 113.223 19.1034 114.188 19.1034C115.158 19.1034 115.891 18.3481 115.891 17.4219C115.891 16.4966 115.162 15.7509 114.198 15.7509ZM114.618 17.6128L115.154 18.3479H114.701L114.219 17.6735H113.805V18.3479H113.427V16.3992H114.312C114.776 16.3992 115.079 16.6309 115.079 17.0209C115.081 17.3404 114.892 17.5356 114.62 17.6128H114.618ZM114.298 16.7336H113.805V17.3499H114.298C114.543 17.3499 114.69 17.232 114.69 17.0415C114.69 16.841 114.543 16.7336 114.298 16.7336Z" fill="#1D1C1F"/>
</g>
<defs>
<clipPath id="clip0_1_2228">
<rect width="116" height="39" fill="white"/>
</clipPath>
</defs>
</svg>
