<svg width="96" height="39" viewBox="0 0 96 39" fill="none" xmlns="http://www.w3.org/2000/svg">
<path d="M30.8246 17.3937C30.8246 15.7186 29.1185 13.9319 26.2749 13.9319C23.09 13.9319 19.4502 16.277 18.8815 20.9671C18.3128 25.6573 21.2701 27.779 24.3412 27.779C27.4123 27.779 28.891 26.6623 30.4834 25.0989C29.1185 23.4239 27.2986 24.2056 26.9573 24.3172C26.6161 24.5406 26.0474 24.7639 25.1374 24.7639C24 24.7639 22.7488 24.2056 22.7488 22.0838C30.2559 21.3021 30.8246 19.0687 30.8246 17.3937ZM27.1848 17.617C27.1848 18.1754 26.9573 19.0687 23.2038 19.5154C24 16.7236 25.4787 16.5003 26.1611 16.5003C26.8436 16.612 27.1848 17.0587 27.1848 17.617ZM14.5592 18.0637C14.5592 18.0637 12.9668 22.9772 12.8531 23.4239C12.8531 22.9772 11.6019 14.1552 11.6019 14.1552C8.87204 14.1552 7.39336 16.0536 6.7109 18.0637C6.7109 18.0637 4.77725 22.9772 4.66351 23.4239C4.54976 23.0889 4.32228 18.1754 4.32228 18.1754C4.09479 15.7186 1.81991 14.1552 0 14.1552L2.27488 27.5557C5.11848 27.5557 6.7109 25.6573 7.50711 23.6472C7.50711 23.6472 9.21327 19.2921 9.32701 19.0687C9.32701 19.2921 10.5782 27.5557 10.5782 27.5557C13.4218 27.5557 15.0142 25.769 15.8104 23.8706L19.7915 14.1552C16.8341 14.1552 15.3555 16.0536 14.5592 18.0637ZM41.4028 13.8202C39.6967 13.8202 38.3318 14.7136 37.1943 16.1653L38.1043 8.125C35.7156 8.125 33.8957 10.1351 33.4408 13.0385L31.6209 27.444C32.9858 27.444 34.3507 27.109 35.1469 26.104C35.8294 26.9973 36.8531 27.6674 38.3318 27.6674C42.3128 27.6674 45.0427 23.2005 45.0427 18.9571C45.1564 15.0486 43.2228 13.8202 41.4028 13.8202ZM40.9479 20.7438C40.4929 23.0889 39.2417 24.6523 37.8768 24.6523C36.6256 24.6523 36.0569 24.0939 36.0569 24.0939C36.2844 22.0838 36.5118 20.7438 36.9668 19.6271C37.4218 18.5104 38.5592 16.8353 39.6967 16.8353C40.8341 16.947 41.4028 18.3987 40.9479 20.7438ZM55.0521 14.1552H52.3223V14.0435C52.5498 12.2568 52.891 11.3634 54.3697 11.2518C55.2796 11.1401 55.7346 10.6934 55.8483 10.1351C55.9621 9.68839 56.1896 8.23667 56.1896 8.23667C50.6161 8.23667 48.91 10.5818 48.455 14.1552V14.2669H48.3412C47.4313 14.2669 46.4076 15.2719 46.2938 16.5003L46.1801 16.947H48L46.4076 29.4541L45.9526 31.6875C46.0664 31.6875 46.0663 31.6875 46.1801 31.6875C48.7962 31.5758 50.3886 29.5658 50.8436 26.6623L52.0948 16.8353H53.0047C53.8009 16.8353 54.8246 16.0536 55.0521 14.6019V14.1552ZM69.3839 13.9319C66.1991 13.9319 63.2417 16.277 62.3317 19.8504C61.4218 23.4239 62.7867 27.779 67.4502 27.779C72.1137 27.779 74.8436 23.3122 74.8436 19.6271C74.7299 15.9419 72.2275 13.9319 69.3839 13.9319ZM70.6351 20.6321C70.5213 22.3072 69.7251 24.7639 67.6777 24.7639C65.6303 24.7639 65.9716 21.8605 66.0853 20.5204C66.3128 19.0687 67.109 16.947 68.9289 16.947C70.6351 16.947 70.8626 18.8454 70.6351 20.6321ZM90.5403 18.0637C90.5403 18.0637 88.9479 22.9772 88.8341 23.4239C88.8341 22.9772 87.5829 14.1552 87.5829 14.1552C84.8531 14.1552 83.3744 16.0536 82.6919 18.0637C82.6919 18.0637 80.7583 22.9772 80.6446 23.4239C80.6446 23.0889 80.3033 18.1754 80.3033 18.1754C80.1896 15.7186 77.8009 14.2669 75.981 14.2669L78.2559 27.6674C81.0995 27.6674 82.6919 25.769 83.4882 23.7589C83.4882 23.7589 85.1943 19.4037 85.3081 19.1804C85.3081 19.4037 86.5592 27.6674 86.5592 27.6674C89.4028 27.6674 90.9953 25.8806 91.7915 23.9822L95.545 14.1552C92.7014 14.1552 91.2227 16.0536 90.5403 18.0637ZM57.6683 8.23667L55.3934 26.5507L54.9384 28.7841C55.0521 28.7841 55.0521 28.7841 55.1659 28.7841C57.6682 28.7841 59.4881 26.5507 59.7156 23.8706L61.0806 13.3735C61.4218 10.2467 59.3744 8.23667 57.6683 8.23667Z" fill="#1D1C1F"/>
</svg>
