<svg width="116" height="39" viewBox="0 0 116 39" fill="none" xmlns="http://www.w3.org/2000/svg">
<path d="M37.2464 17.3937C37.2464 15.7186 35.1848 13.9319 31.7488 13.9319C27.9005 13.9319 23.5024 16.277 22.8152 20.9671C22.128 25.6573 25.7014 27.779 29.4123 27.779C33.1232 27.779 34.91 26.6623 36.8341 25.0989C35.1848 23.4239 32.9858 24.2056 32.5735 24.3172C32.1611 24.5406 31.4739 24.7639 30.3744 24.7639C29 24.7639 27.4881 24.2056 27.4881 22.0838C36.5592 21.3021 37.2464 19.0687 37.2464 17.3937ZM32.8483 17.617C32.8483 18.1754 32.5735 19.0687 28.0379 19.5154C29 16.7236 30.7867 16.5003 31.6114 16.5003C32.436 16.612 32.8483 17.0587 32.8483 17.617ZM17.5924 18.0637C17.5924 18.0637 15.6682 22.9772 15.5308 23.4239C15.5308 22.9772 14.019 14.1552 14.019 14.1552C10.7204 14.1552 8.93365 16.0536 8.109 18.0637C8.109 18.0637 5.77251 22.9772 5.63507 23.4239C5.49763 23.0889 5.22275 18.1754 5.22275 18.1754C4.94787 15.7186 2.19905 14.1552 0 14.1552L2.74882 27.5557C6.18483 27.5557 8.109 25.6573 9.07109 23.6472C9.07109 23.6472 11.1327 19.2921 11.2701 19.0687C11.2701 19.2921 12.782 27.5557 12.782 27.5557C16.218 27.5557 18.1422 25.769 19.1043 23.8706L23.9147 14.1552C20.3412 14.1552 18.5545 16.0536 17.5924 18.0637ZM50.0284 13.8202C47.9668 13.8202 46.3175 14.7136 44.9431 16.1653L46.0427 8.125C43.1564 8.125 40.9573 10.1351 40.4076 13.0385L38.2085 27.444C39.8578 27.444 41.5071 27.109 42.4692 26.104C43.2938 26.9973 44.5308 27.6674 46.3175 27.6674C51.128 27.6674 54.4265 23.2005 54.4265 18.9571C54.564 15.0486 52.2275 13.8202 50.0284 13.8202ZM49.4787 20.7438C48.9289 23.0889 47.4171 24.6523 45.7678 24.6523C44.2559 24.6523 43.5687 24.0939 43.5687 24.0939C43.8436 22.0838 44.1185 20.7438 44.6682 19.6271C45.218 18.5104 46.5924 16.8353 47.9668 16.8353C49.3412 16.947 50.0284 18.3987 49.4787 20.7438ZM66.5213 14.1552H63.2227V14.0435C63.4976 12.2568 63.91 11.3634 65.6967 11.2518C66.7962 11.1401 67.346 10.6934 67.4834 10.1351C67.6208 9.68839 67.8957 8.23667 67.8957 8.23667C61.1611 8.23667 59.0995 10.5818 58.5498 14.1552V14.2669H58.4123C57.3128 14.2669 56.0758 15.2719 55.9384 16.5003L55.8009 16.947H58L56.0758 29.4541L55.5261 31.6875C55.6635 31.6875 55.6635 31.6875 55.8009 31.6875C58.9621 31.5758 60.8863 29.5658 61.436 26.6623L62.9479 16.8353H64.0474C65.0095 16.8353 66.2465 16.0536 66.5213 14.6019V14.1552ZM83.8389 13.9319C79.9905 13.9319 76.4171 16.277 75.3175 19.8504C74.218 23.4239 75.8673 27.779 81.5024 27.779C87.1374 27.779 90.436 23.3122 90.436 19.6271C90.2986 15.9419 87.2749 13.9319 83.8389 13.9319ZM85.3507 20.6321C85.2133 22.3072 84.2512 24.7639 81.7772 24.7639C79.3033 24.7639 79.7156 21.8605 79.8531 20.5204C80.128 19.0687 81.09 16.947 83.2891 16.947C85.3507 16.947 85.6256 18.8454 85.3507 20.6321ZM109.403 18.0637C109.403 18.0637 107.479 22.9772 107.341 23.4239C107.341 22.9772 105.829 14.1552 105.829 14.1552C102.531 14.1552 100.744 16.0536 99.9194 18.0637C99.9194 18.0637 97.5829 22.9772 97.4455 23.4239C97.4455 23.0889 97.0332 18.1754 97.0332 18.1754C96.8957 15.7186 94.0095 14.2669 91.8104 14.2669L94.5592 27.6674C97.9953 27.6674 99.9194 25.769 100.882 23.7589C100.882 23.7589 102.943 19.4037 103.081 19.1804C103.081 19.4037 104.592 27.6674 104.592 27.6674C108.028 27.6674 109.953 25.8806 110.915 23.9822L115.45 14.1552C112.014 14.1552 110.227 16.0536 109.403 18.0637ZM69.6825 8.23667L66.9336 26.5507L66.3839 28.7841C66.5213 28.7841 66.5213 28.7841 66.6588 28.7841C69.6825 28.7841 71.8815 26.5507 72.1564 23.8706L73.8057 13.3735C74.218 10.2467 71.7441 8.23667 69.6825 8.23667Z" fill="#1D1C1F"/>
</svg>
