<svg width="119" height="39" viewBox="0 0 119 39" fill="none" xmlns="http://www.w3.org/2000/svg">
<path fillRule="evenodd" clipRule="evenodd" d="M0 31.6356C0 33.1456 0.989765 34.1249 2.51552 34.1249L9.86527 34.125C14.2498 34.125 17.8364 32.6569 20.2749 30.0868H0V31.6356ZM9.86527 6.50014L2.51552 6.5C0.989765 6.5 0 7.47944 0 8.98941V10.5382H20.2749C17.8364 7.96812 14.2498 6.50014 9.86527 6.50014ZM16.2794 24.2487C16.2794 25.4703 17.0835 26.2628 18.3233 26.2628H22.7273C23.2266 25.0368 23.562 23.689 23.7179 22.2346H18.3233C17.0835 22.2346 16.2794 23.027 16.2794 24.2487ZM10.175 16.3862C10.175 17.608 10.9791 18.4004 12.2189 18.4004H23.7179C23.562 16.9459 23.2266 15.5981 22.7273 14.3721H12.2189C10.9791 14.3721 10.175 15.1645 10.175 16.3862ZM12.2175 24.2487C12.2175 23.027 11.4134 22.2346 10.1736 22.2346H0V26.2628H10.1736C11.4134 26.2628 12.2175 25.4704 12.2175 24.2487ZM6.11307 16.3862C6.11307 15.1645 5.30894 14.3721 4.06919 14.3721H0V18.4004H4.06919C5.30894 18.4004 6.11307 17.608 6.11307 16.3862Z" fill="#1D1C1F"/>
<path fillRule="evenodd" clipRule="evenodd" d="M51.7222 19.8966C52.0497 18.3202 53.1076 17.5186 54.4981 17.5186C55.8766 17.5186 56.8846 18.3561 57.2062 19.8966H51.7222ZM54.5737 14.7876C51.0332 14.7876 48.8311 17.594 48.8311 21.0268C48.8311 24.582 51.1842 27.2188 54.6817 27.2188C57.0938 27.2188 58.5569 26.1122 59.4624 24.7187L57.2108 23.2915C56.6447 24.0588 55.7389 24.4642 54.768 24.4642C53.1798 24.4642 52.1163 23.7264 51.7538 22.251H57.6968C57.6963 22.2529 57.6959 22.2549 57.6953 22.2569L59.8618 22.2695C59.944 21.8813 59.9924 21.4801 59.9924 21.0268C59.9924 18.0367 58.1358 14.7876 54.5737 14.7876Z" fill="#1D1C1F"/>
<path fillRule="evenodd" clipRule="evenodd" d="M39.7627 24.4563C37.5843 24.4563 36.2747 22.9102 36.2747 21.0031C36.2747 19.096 37.6094 17.55 39.7627 17.55C41.9159 17.55 43.2506 19.096 43.2506 21.0031C43.2506 22.9102 41.941 24.4563 39.7627 24.4563ZM43.0132 16.6127C42.1434 15.5784 40.9084 14.9444 39.3753 14.9444C35.9488 14.9444 33.4844 17.6922 33.4844 21.0816C33.4844 24.4711 35.9254 27.2188 39.3753 27.2188C40.9084 27.2188 42.1434 26.5848 43.0132 25.5505V26.9166H46.0409V10.6438H43.0132V16.6127Z" fill="#1D1C1F"/>
<path fillRule="evenodd" clipRule="evenodd" d="M69.2515 20.7993C70.0734 21.3678 70.5944 22.2202 70.5944 23.3451C70.5944 25.6185 69.0466 27.1958 66.1528 27.1958C63.4295 27.1958 61.9692 25.8143 61.3877 24.4191L63.8873 22.974C63.8873 22.974 64.2238 24.4818 66.1079 24.4818C67.2744 24.4818 67.6334 23.9714 67.6334 23.5207C67.6334 23.3119 67.566 22.9276 66.7361 22.6028C65.0691 21.9506 61.8459 21.658 61.8459 18.6826C61.8459 16.247 63.7742 14.9481 66.1528 14.9481C68.377 14.9481 69.8057 16.3181 70.348 17.3842L67.9025 18.7986C67.9025 18.7986 67.4315 17.6155 66.1753 17.6155C64.9192 17.6155 64.8069 18.3347 64.8069 18.5434C64.8069 19.1524 65.434 19.4023 66.781 19.7961C67.5785 20.0292 68.3976 20.2409 69.254 20.7971C69.2532 20.7979 69.2523 20.7986 69.2515 20.7993ZM118.59 18.1491H116.055V22.9739C116.055 24.4818 117.535 24.157 118.59 24.157V26.871C118.59 26.871 118.034 26.9637 117.064 26.9637C114.911 26.9637 113.161 26.3143 113.161 22.9739V18.1491H111.21V15.2727H113.161V12.0251H116.055V15.2727H118.59V18.1491ZM77.7883 24.273C78.9891 24.273 79.9124 23.6806 80.379 22.709L82.8874 24.1962C81.9046 25.9787 80.0733 27.2189 77.7883 27.2189C74.3227 27.2189 71.8999 24.4772 71.8999 21.0951C71.8999 17.7129 74.345 14.9712 77.7883 14.9712C80.0397 14.9712 81.8642 16.1911 82.8576 17.9499L80.3548 19.4711C79.8791 18.5122 78.9631 17.9171 77.7883 17.9171C76.0372 17.9171 74.7937 19.3399 74.7937 21.0951C74.7937 22.8501 76.0257 24.273 77.7883 24.273Z" fill="#1D1C1F"/>
<path fillRule="evenodd" clipRule="evenodd" d="M104.389 24.2412C102.504 24.2412 101.371 22.7863 101.371 20.9916C101.371 19.197 102.526 17.7422 104.389 17.7422C106.252 17.7422 107.407 19.197 107.407 20.9916C107.407 22.7863 106.274 24.2412 104.389 24.2412ZM104.749 14.9073C107.931 14.9073 110.219 17.6315 110.219 20.9916C110.219 24.3519 107.952 27.0759 104.749 27.0759C103.326 27.0759 102.179 26.4474 101.371 25.422V31.3626H98.5599V15.2301H101.371V16.5613C102.179 15.5359 103.326 14.9073 104.749 14.9073ZM93.1556 26.7763V15.253H95.9667V26.7763H93.1556ZM87.9166 17.2214C88.4592 15.825 89.5644 15.0263 91.2289 15.0227V18.3414C89.2773 18.1462 87.8674 19.1724 87.9189 21.5966C87.9181 21.5949 87.9174 21.593 87.9166 21.5912V26.7763H85.1055V15.2532H87.9166V17.2214ZM93.1556 13.7152V10.6438H96.0594V13.7152H93.1556Z" fill="#1D1C1F"/>
</svg>
