<svg width="95" height="39" viewBox="0 0 95 39" fill="none" xmlns="http://www.w3.org/2000/svg">
<g clip-path="url(#clip0_1_2243)">
<path d="M26.2013 25.2556C23.5763 25.2556 21.8386 23.2962 21.3539 22.5373C21.9758 17.736 23.7959 16.2179 26.2013 16.2179C28.5793 16.2179 30.4268 18.0537 30.4268 20.7367C30.4268 23.4197 28.5793 25.2556 26.2013 25.2556ZM26.2013 13.2701C21.921 13.2701 19.5247 15.962 18.8388 18.7333C18.0613 17.3212 17.4852 15.4325 17.037 13.6761H11.1195V20.7809C11.1195 23.358 9.9031 25.2644 7.52513 25.2644C5.14717 25.2644 3.78442 23.358 3.78442 20.7809L3.81185 13.6761H0.400391V20.7809C0.400391 22.855 1.09549 24.7349 2.36678 26.0763C3.67467 27.462 5.45813 28.1857 7.52513 28.1857C11.6408 28.1857 14.5127 25.1409 14.5127 20.7809V16.0061C14.9425 17.5771 15.9669 20.5955 17.9241 23.2433L16.095 33.2959H19.5613L20.7685 26.1734C21.1618 26.4911 21.5825 26.7736 22.0307 27.0296C23.1922 27.7356 24.5184 28.1328 25.8903 28.1769C25.8903 28.1769 26.1006 28.1857 26.2104 28.1857C30.4542 28.1857 33.829 25.0173 33.829 20.7367C33.829 16.4562 30.445 13.2701 26.2013 13.2701Z" fill="#1D1C1F"/>
<path d="M75.2146 15.195V13.677H71.8672V27.7364H75.2603V22.2291C75.2603 18.84 75.5804 16.4041 80.2906 16.7218V13.5093C78.0956 13.3504 76.3853 13.7917 75.2146 15.195Z" fill="#1D1C1F"/>
<path d="M51.6557 13.6772L49.1954 23.5092L46.5705 13.6772H42.2536L39.6195 23.5092L37.1684 13.6772H33.7295L37.4977 27.7456H41.5768L44.4121 17.7548L47.2199 27.7456H51.299L55.2867 13.6772H51.6557Z" fill="#1D1C1F"/>
<path d="M62.7592 25.2644C60.3447 25.2644 58.5338 23.4287 58.5338 20.7367C58.5338 18.0449 60.3539 16.2179 62.7592 16.2179C65.1372 16.2179 66.9847 18.0537 66.9847 20.7367C66.9847 23.4197 65.1372 25.2644 62.7592 25.2644ZM62.7592 13.2701C58.488 13.2701 55.1406 16.4651 55.1406 20.7367C55.1406 25.0084 58.488 28.1769 62.7592 28.1769C67.003 28.1769 70.3779 25.0084 70.3779 20.7367C70.3779 16.4651 67.0122 13.2701 62.7592 13.2701Z" fill="#1D1C1F"/>
<path d="M85.1572 20.8253H85.9438L90.6814 27.7447H94.5136L89.0625 20.0751C91.7058 19.0778 93.4801 16.4742 93.4801 13.6764H90.096C90.096 16.7125 87.6175 17.8598 85.1572 17.8598V8.125H81.7549V27.7447H85.148L85.1572 20.8253Z" fill="#1D1C1F"/>
</g>
<defs>
<clipPath id="clip0_1_2243">
<rect width="94" height="39" fill="white" transform="translate(0.400391)"/>
</clipPath>
</defs>
</svg>
