<svg width="151" height="41" viewBox="0 0 151 41" fill="none" xmlns="http://www.w3.org/2000/svg">
<path d="M146.778 31.445C145.065 31.445 143.755 31.0168 142.848 30.1605C141.942 29.3041 141.488 27.9692 141.488 26.1558V7.45461C141.488 5.8897 142.757 4.62109 144.322 4.62109C145.887 4.62109 147.155 5.8897 147.155 7.4546V25.5513C147.155 26.1558 147.294 26.5839 147.571 26.8358C147.848 27.0877 148.251 27.2136 148.78 27.2136C149.531 27.2136 150.14 27.8225 150.14 28.5737V29.3293C150.14 30.4978 149.193 31.445 148.024 31.445H146.778Z" fill="#0D2D2E"/>
<path d="M125.186 31.8969C123.096 31.8969 121.459 31.2294 120.275 29.8945C119.116 28.5596 118.537 26.6706 118.537 24.2275V14.0269C118.537 12.462 119.806 11.1934 121.371 11.1934C122.936 11.1934 124.204 12.462 124.204 14.0269V22.9052C124.204 24.4668 124.443 25.6128 124.922 26.3432C125.4 27.0484 126.156 27.401 127.189 27.401C128.347 27.401 129.241 26.998 129.871 26.1921C130.526 25.3861 130.853 24.2023 130.853 22.6407V14.0269C130.853 12.462 132.122 11.1934 133.687 11.1934C135.252 11.1934 136.52 12.462 136.52 14.0269V28.822C136.52 30.2698 135.335 31.4435 133.887 31.4435C132.479 31.4435 131.315 30.321 131.279 28.9128L131.204 26.0456C131.199 25.8312 131.395 25.6678 131.605 25.712C131.777 25.7482 131.891 25.9127 131.861 26.0859C131.533 27.9481 130.832 29.3688 129.758 30.3479C128.624 31.3805 127.101 31.8969 125.186 31.8969Z" fill="#0D2D2E"/>
<path d="M102.44 31.8983C100.778 31.8983 99.3167 31.4702 98.0574 30.6138C96.798 29.7323 95.8283 28.4981 95.1483 26.9114C94.4934 25.3246 94.166 23.4608 94.166 21.3199C94.166 19.179 94.506 17.3152 95.1861 15.7285C95.8661 14.1417 96.8232 12.9201 98.0574 12.0638C99.3167 11.1822 100.778 10.7415 102.44 10.7415C103.876 10.7415 105.11 11.0437 106.142 11.6482C107.2 12.2275 108.006 13.0335 108.56 14.0661V7.4546C108.56 5.8897 109.829 4.62109 111.394 4.62109C112.959 4.62109 114.227 5.8897 114.227 7.4546V28.6732C114.227 30.204 112.986 31.445 111.455 31.445C109.966 31.445 108.742 30.2672 108.686 28.7784L108.674 28.4604C108.119 29.5434 107.288 30.3871 106.18 30.9916C105.097 31.5961 103.85 31.8983 102.44 31.8983ZM104.329 27.5536C105.236 27.5536 106.004 27.3144 106.633 26.8358C107.263 26.3573 107.742 25.6646 108.069 24.7579C108.397 23.826 108.56 22.68 108.56 21.3199C108.56 19.9598 108.397 18.8138 108.069 17.8819C107.742 16.95 107.263 16.2574 106.633 15.804C106.004 15.3255 105.236 15.0862 104.329 15.0862C102.994 15.0862 101.936 15.6529 101.155 16.7863C100.375 17.8945 99.9842 19.4057 99.9842 21.3199C99.9842 23.2089 100.375 24.7201 101.155 25.8535C101.961 26.9869 103.019 27.5536 104.329 27.5536Z" fill="#0D2D2E"/>
<path d="M84.7051 14.0266C84.7051 12.4617 85.9737 11.1931 87.5386 11.1931C89.1035 11.1931 90.3722 12.4617 90.3722 14.0266V28.6098C90.3722 30.1747 89.1035 31.4433 87.5386 31.4433C85.9737 31.4433 84.7051 30.1747 84.7051 28.6098V14.0266ZM84.5918 6.43282C84.5918 5.1809 85.6067 4.16602 86.8586 4.16602H88.1809C89.4328 4.16602 90.4477 5.1809 90.4477 6.43282C90.4477 7.68475 89.4328 8.69963 88.1809 8.69963H86.8586C85.6067 8.69963 84.5918 7.68475 84.5918 6.43282Z" fill="#0D2D2E"/>
<path d="M61.6133 7.4546C61.6133 5.8897 62.8819 4.62109 64.4468 4.62109C66.0117 4.62109 67.2803 5.8897 67.2803 7.4546V15.5676C67.2803 15.7608 67.1237 15.9174 66.9305 15.9174C66.7168 15.9174 66.5524 15.7269 66.5944 15.5174C66.8931 14.0255 67.5751 12.8743 68.6404 12.0638C69.799 11.1822 71.2094 10.7415 72.8718 10.7415C75.063 10.7415 76.7505 11.4467 77.9343 12.8572C79.1181 14.2424 79.71 16.0937 79.71 18.4108V28.6115C79.71 30.1764 78.4414 31.445 76.8765 31.445C75.3115 31.445 74.0429 30.1764 74.0429 28.6115V19.7709C74.0429 18.2345 73.8037 17.1011 73.3251 16.3707C72.8466 15.6151 72.0658 15.2373 70.9828 15.2373C69.799 15.2373 68.8797 15.6403 68.2248 16.4463C67.5951 17.2522 67.2803 18.4108 67.2803 19.922V28.6115C67.2803 30.1764 66.0117 31.445 64.4468 31.445C62.8819 31.445 61.6133 30.1764 61.6133 28.6115V7.4546Z" fill="#0D2D2E"/>
<path d="M47.8446 31.8952C45.7792 31.8952 43.9658 31.467 42.4042 30.6106C40.8678 29.7291 39.6715 28.4949 38.8151 26.9082C37.9839 25.2962 37.5684 23.4324 37.5684 21.3167C37.5684 19.201 37.9839 17.3498 38.8151 15.763C39.6715 14.1511 40.8678 12.9169 42.4042 12.0606C43.9658 11.179 45.7792 10.7383 47.8446 10.7383C49.8847 10.7383 51.6729 11.179 53.2093 12.0606C54.7709 12.9169 55.9799 14.1511 56.8362 15.763C57.6926 17.3498 58.1207 19.201 58.1207 21.3167C58.1207 23.4324 57.6926 25.2962 56.8362 26.9082C55.9799 28.4949 54.7709 29.7291 53.2093 30.6106C51.6729 31.467 49.8847 31.8952 47.8446 31.8952ZM47.8446 27.5504C49.255 27.5504 50.338 27.0089 51.0936 25.9259C51.8744 24.8177 52.2648 23.2813 52.2648 21.3167C52.2648 19.3521 51.8744 17.8284 51.0936 16.7453C50.338 15.6371 49.255 15.083 47.8446 15.083C46.4341 15.083 45.3385 15.6371 44.5577 16.7453C43.7769 17.8284 43.3865 19.3521 43.3865 21.3167C43.3865 23.3065 43.7769 24.8429 44.5577 25.9259C45.3385 27.0089 46.4341 27.5504 47.8446 27.5504Z" fill="#0D2D2E"/>
<path d="M19.7344 0.711079C27.7316 0.711255 34.6175 5.46822 37.7178 12.3068C35.6475 14.7224 34.3965 17.8612 34.3965 21.2921C34.3966 24.4276 35.441 27.3193 37.2012 29.6378C33.8953 35.9076 27.315 40.1826 19.7344 40.1828C8.8347 40.1828 -0.00171294 31.347 -0.00195312 20.4474C-0.00195312 9.54758 8.83455 0.711079 19.7344 0.711079Z" fill="#0D2D2E"/>
<path d="M20.2109 13.7402C20.2568 13.7023 20.3027 13.6645 20.35 13.6254C21.8751 12.4223 23.7506 11.8852 25.7406 12.0204C27.5963 12.2401 29.3065 13.0691 30.5162 14.4096C31.5376 15.6454 32.1353 17.028 32.1311 18.5953C32.1317 18.7198 32.1317 18.7198 32.1324 18.8468C32.1335 19.1187 32.1334 19.3906 32.1332 19.6625C32.1336 19.8527 32.1339 20.0429 32.1343 20.2331C32.135 20.6306 32.1349 21.0282 32.1345 21.4257C32.134 21.9344 32.1354 22.4431 32.1374 22.9519C32.1386 23.3442 32.1387 23.7365 32.1384 24.1288C32.1385 24.3164 32.1389 24.504 32.1397 24.6915C32.1408 24.9538 32.1402 25.216 32.1392 25.4783C32.1399 25.5553 32.1405 25.6322 32.1412 25.7114C32.1356 26.4014 31.9599 26.9244 31.443 27.4339C30.8619 27.9155 30.3014 28.0245 29.5337 27.9957C28.9661 27.9382 28.4641 27.7604 28.0865 27.3426C27.6161 26.66 27.4878 26.1378 27.4868 25.3409C27.4864 25.2658 27.4859 25.1906 27.4855 25.1131C27.4846 24.9502 27.4839 24.7872 27.4833 24.6242C27.4823 24.3659 27.4807 24.1075 27.4789 23.8492C27.4737 23.1148 27.4692 22.3803 27.4664 21.6459C27.4646 21.1964 27.4617 20.7468 27.4579 20.2973C27.4568 20.1264 27.456 19.9555 27.4558 19.7845C27.4553 19.5449 27.4534 19.3053 27.4511 19.0656C27.4514 18.9957 27.4516 18.9257 27.4519 18.8536C27.4427 18.2004 27.2728 17.6057 26.8291 17.0907C26.3736 16.694 25.7265 16.4145 25.1001 16.3847C24.4611 16.4282 23.902 16.5812 23.3947 16.9454C23.3117 16.9712 23.2288 16.997 23.1433 17.0236C23.0497 17.1677 23.0497 17.1677 22.9758 17.3362C22.9471 17.3851 22.9185 17.434 22.889 17.4844C22.8606 17.5338 22.8322 17.5833 22.803 17.6343C22.7743 17.6832 22.7457 17.732 22.7162 17.7824C22.517 18.2549 22.5454 18.7739 22.5476 19.2737C22.5476 19.4287 22.5475 19.5837 22.5475 19.7387C22.5476 19.8202 22.5477 19.9018 22.5478 19.9858C22.5481 20.4205 22.546 20.8553 22.5442 21.29C22.5422 21.8419 22.5409 22.3937 22.5422 22.9456C22.5432 23.3928 22.5417 23.84 22.5386 24.2872C22.5379 24.4568 22.5381 24.6264 22.5392 24.7961C22.5498 26.5691 22.5498 26.5691 21.9704 27.2644C21.3646 27.8103 20.8596 27.9995 20.0157 27.9967C19.5552 27.9856 19.2408 27.9047 18.8704 27.6553C18.784 27.6037 18.6976 27.5521 18.6086 27.4989C18.0432 27.0104 17.842 26.4121 17.8101 25.7153C17.802 25.3046 17.805 24.8944 17.8094 24.4837C17.8093 24.3046 17.8089 24.1256 17.8083 23.9465C17.8072 23.4772 17.8088 23.0079 17.8112 22.5386C17.815 21.7871 17.8163 21.0356 17.8146 20.2841C17.8146 20.0228 17.8168 19.7615 17.8191 19.5002C17.8192 19.3389 17.8191 19.1776 17.819 19.0163C17.8202 18.9446 17.8214 18.8729 17.8227 18.799C17.8188 18.1999 17.6355 17.7135 17.31 17.1994C16.8276 16.773 16.1863 16.4174 15.5126 16.3862C14.7519 16.4343 14.1885 16.5942 13.6026 17.0578C13.0431 17.6873 12.8967 18.1858 12.9005 18.9846C12.9002 19.0628 12.8999 19.141 12.8996 19.2216C12.899 19.3911 12.8988 19.5605 12.8989 19.7299C12.899 19.9984 12.8979 20.2669 12.8964 20.5355C12.8926 21.2988 12.8905 22.0621 12.89 22.8254C12.8895 23.2928 12.8875 23.7602 12.8845 24.2275C12.8837 24.4052 12.8835 24.5829 12.8839 24.7606C12.8845 25.0096 12.8831 25.2585 12.8812 25.5075C12.8822 25.6167 12.8822 25.6167 12.8832 25.728C12.8738 26.4329 12.6227 26.9963 12.084 27.4989C11.3819 27.9729 10.7576 28.0277 9.9057 27.9679C9.6462 27.8998 9.45296 27.8018 9.23544 27.6553C9.14904 27.6037 9.06264 27.5521 8.97362 27.4989C8.42298 27.0251 8.20809 26.4266 8.17515 25.7479C8.16703 25.3633 8.17004 24.9792 8.17441 24.5945C8.17432 24.4266 8.17396 24.2586 8.17334 24.0906C8.17222 23.6503 8.17379 23.21 8.17623 22.7697C8.18004 22.0655 8.18132 21.3613 8.17962 20.6571C8.17965 20.4128 8.1818 20.1686 8.18412 19.9243C8.18842 18.6711 8.01724 17.714 7.1147 16.7353C6.92051 16.5794 6.73289 16.4577 6.51775 16.3298C5.99245 16.0109 5.52131 15.582 5.38145 14.991C5.29224 14.1977 5.42222 13.6133 5.9365 12.978C6.41535 12.5012 6.94899 12.3103 7.64357 12.2891C8.81499 12.3341 9.64594 12.9583 10.4922 13.6621C10.7534 13.5501 10.988 13.4101 11.2269 13.2616C14.1956 11.4229 17.4661 11.7368 20.2109 13.7402Z" fill="#5FF25C"/>
</svg>
