<svg width="194" height="194" viewBox="0 0 194 194" fill="none" xmlns="http://www.w3.org/2000/svg">
<path fillRule="evenodd" clipRule="evenodd" d="M55.1672 53.2649L55.2222 53.8944C55.2377 54.0708 55.3225 54.2338 55.4581 54.3476C55.5937 54.4614 55.769 54.5166 55.9454 54.5012C56.1217 54.4858 56.2847 54.4009 56.3985 54.2653C56.5123 54.1297 56.5676 53.9544 56.5521 53.7781L56.494 53.1131C56.4696 52.9391 56.3793 52.781 56.2417 52.6717C56.1041 52.5624 55.9297 52.5101 55.7547 52.5256C55.6671 52.5344 55.5821 52.5607 55.5048 52.6028C55.4276 52.645 55.3595 52.7023 55.3048 52.7712C55.25 52.8401 55.2096 52.9193 55.186 53.0041C55.1623 53.0889 55.1559 53.1776 55.1672 53.2649ZM54.7479 51.4344C55.703 51.1186 56.4436 50.3927 55.0328 50.6054C54.6857 50.6852 54.3455 50.7926 54.0156 50.9267C52.7338 51.5928 53.9057 51.7136 54.7479 51.4344ZM136.635 50.4883C136.301 51.3813 135.678 52.137 134.866 52.6353C134.834 52.65 134.808 52.6752 134.793 52.7068C134.777 52.7384 134.774 52.7744 134.782 52.8085C134.79 52.8427 134.81 52.8728 134.838 52.8939C134.866 52.915 134.901 52.9256 134.936 52.924C135.227 52.9495 135.52 52.9027 135.789 52.7879C136.058 52.673 136.295 52.4937 136.478 52.2657C136.661 52.0377 136.785 51.768 136.84 51.4806C136.894 51.1932 136.876 50.8968 136.789 50.6178C136.786 50.5801 136.767 50.5454 136.739 50.5211C136.71 50.4968 136.672 50.485 136.635 50.4883ZM132.491 43.7662C132.317 43.7375 132.138 43.778 131.993 43.8791C131.849 43.9803 131.749 44.134 131.716 44.3075C131.661 44.6031 131.672 44.9073 131.749 45.198C131.765 45.3743 131.85 45.5373 131.985 45.6511C132.121 45.7649 132.296 45.8202 132.473 45.8047C132.649 45.7893 132.812 45.7045 132.926 45.5688C133.039 45.4332 133.095 45.258 133.079 45.0816C133.023 44.4432 133.117 43.8811 132.491 43.7662ZM109.621 133.544C108.871 133.243 95.216 135.34 95.0051 136.913C94.9637 137.256 95.2986 138.531 95.7073 138.71C96.5144 139.05 109.66 137.149 110.261 135.65C110.437 135.282 110.469 134.862 110.351 134.472C110.232 134.082 109.972 133.751 109.621 133.544ZM95.8432 138.323C95.5322 137.917 95.3412 137.432 95.292 136.923C95.3995 136.11 102.676 135.036 103.478 134.912C103.522 135.63 103.768 136.321 104.189 136.905C103.192 137.153 96.3445 138.538 95.8455 138.349L95.8432 138.323ZM109.581 135.334C108.924 135.892 105.409 136.655 104.567 136.836C104.58 136.127 104.369 135.433 103.964 134.851C105.013 134.688 108.375 134.206 109.384 134.207C109.668 134.379 109.729 134.981 109.583 135.352L109.581 135.334ZM86.5048 137.683C86.4796 137.67 86.4513 137.665 86.4231 137.667C86.3948 137.67 86.3679 137.68 86.3453 137.697C86.3375 137.609 70.2378 148.63 69.812 149.686C69.7934 149.736 69.7861 149.79 69.7908 149.844C69.7955 149.898 69.812 149.95 69.8392 149.996C70.5157 151.5 89.5837 165.931 90.3514 166.23C90.5735 166.318 90.8232 166.109 91.6179 165.592C93.3081 164.489 107.735 155.079 109.182 153.639C109.577 153.157 109.494 149.144 109.215 148.713C108.936 148.282 86.5126 137.772 86.5048 137.683ZM90.4821 165.477C88.4625 164.144 72.3263 151.976 70.4682 149.834C71.8837 148.245 86.0491 138.295 86.478 137.989C88.8873 139.181 106.228 147.76 108.462 148.994C107.375 149.413 106.357 149.993 105.441 150.714C104.979 151.246 106.317 152.04 108.212 153.581C105.693 155.534 93.0768 163.785 90.4821 165.477ZM108.673 153.031C108.576 152.95 106.257 151.054 106.153 150.982C106.967 150.369 107.812 149.798 108.683 149.269C108.796 150.522 108.786 151.782 108.655 153.033L108.673 153.031Z" fill="#1D1C1F"/>
<path fillRule="evenodd" clipRule="evenodd" d="M101.162 152.044C100.565 152.364 93.2126 155.536 91.1519 156.592C90.5513 156.96 89.883 157.204 89.1866 157.309C89.0624 157.32 89.6596 155.874 94.7237 151.16C95.2524 150.667 96.2692 149.73 96.324 149.028C96.647 146.695 90.749 150.659 85.3969 153.307C84.8508 153.665 84.2427 153.918 83.6039 154.054C83.5101 153.696 84.6601 152.443 84.7322 152.347C87.7196 148.405 91.7815 146.531 91.3798 145.208C90.7608 143.136 83.4241 147.914 81.8598 148.721C80.5448 149.417 78.4243 150.299 78.5573 150.287C78.2748 150.428 78.5852 150.607 78.6361 150.575C78.6869 150.544 81.4222 149.438 82.0786 149.077C83.064 148.598 89.5943 144.712 90.7967 145.384C91.2768 145.664 86.6809 148.683 84.2219 151.927C83.7881 152.483 82.5852 153.643 83.0587 154.459C83.1433 154.584 83.2636 154.681 83.4038 154.737C83.5441 154.793 83.698 154.806 83.8456 154.774C85.1667 154.659 93.7799 149.358 95.6205 149.054C95.2443 149.652 94.7792 150.19 94.2412 150.648C93.0117 151.81 89.4546 155.266 88.6936 156.78C88.2977 157.565 88.7178 157.975 89.3214 157.931C90.1194 157.861 91.0473 157.235 93.3709 156.121C101.244 152.269 101.514 152.389 101.355 152.108C101.347 152.091 101.335 152.076 101.321 152.063C101.307 152.051 101.29 152.041 101.272 152.035C101.254 152.029 101.235 152.027 101.216 152.029C101.197 152.03 101.179 152.035 101.162 152.044Z" fill="#1D1C1F"/>
<path fillRule="evenodd" clipRule="evenodd" d="M183.08 110.811C182.153 101.547 179.664 82.691 177.026 73.6751C175.633 68.8921 172.958 62.4167 168.785 59.5388C167.017 58.3266 164.473 57.2358 159.854 55.1832C159.897 55.0632 152.635 52.8396 152.39 53.8082C151.976 52.2149 151.454 50.6517 150.828 49.1294C151.465 48.8592 151.005 46.9697 151.185 45.864C151.366 44.7583 152.335 43.8962 152.79 42.963C153.814 40.8811 153.716 37.4144 153.293 35.1374C152.894 33.0193 149.355 28.5224 147.23 27.9221C145.105 27.3219 142.997 27.5331 140.787 27.2887C138.982 27.0803 137.584 26.211 135.576 26.1365C133.568 26.062 132.479 27.3008 130.777 27.4497C129.075 27.5986 127.044 26.4451 125.253 26.4946C124.283 26.5643 123.372 26.9835 122.688 27.6742C122.004 28.365 121.594 29.2805 121.534 30.2506C121.444 31.6968 121.741 33.1408 122.394 34.4341C123.048 35.7274 124.034 36.8232 125.251 37.6087C126.716 38.3654 128.326 38.8003 129.973 38.8841C130.263 43.424 130.635 42.1675 130.138 42.613C129.641 43.0585 130.054 45.8366 130.308 46.5917C130.415 46.895 130.505 47.0033 130.897 47.094C130.761 47.9993 129.431 50.0454 130.819 50.3974C131.002 50.444 131.722 50.5061 131.796 50.5265C132.051 51.3514 132.39 52.1479 132.808 52.9037C133.221 53.6641 133.785 54.3317 134.467 54.8653C135.148 55.3988 135.931 55.7869 136.769 56.0057C138.089 56.3905 139.111 56.435 139.879 56.627C140.013 56.9847 140.1 57.3586 140.137 57.739C137.043 58.8482 134.184 60.5255 131.707 62.6845C127.251 66.9963 121.845 83.7381 120.218 85.6672C119.586 86.4104 103.575 90.9917 101.315 92.8333C100.873 93.1936 100.88 93.47 100.991 94.032C100.416 94.1895 97.9912 94.8662 97.7621 95.4134C97.7142 95.8005 97.7701 96.1933 97.9242 96.5517C95.6945 96.3339 93.455 96.2317 91.2148 96.2453C90.8085 96.2904 90.4163 96.4203 90.0634 96.6266C89.7106 96.8329 89.405 97.1111 89.1665 97.443C88.4993 98.3947 89.089 98.1913 88.289 98.1362C86.5924 98.0434 80.7661 100.581 80.0435 101.002C80.0156 100.683 79.9962 100.461 79.6438 100.313C78.6291 100.113 77.5863 100.101 76.5675 100.278C75.9833 100.749 78.3647 100.398 79.4027 100.825C79.4625 101.508 80.1639 108.505 80.1955 109.887C80.2172 110.135 80.2141 110.099 80.0302 110.142C79.1545 110.344 77.8669 110.332 77.5016 110.649C77.3735 107.552 76.5708 100.01 76.1064 99.604C75.826 99.3606 71.0419 99.2073 65.8364 99.0374C65.5286 95.3088 64.9954 91.6023 64.2399 87.9381C62.5714 79.7933 59.7368 70.2675 53.1 65.8898C53.4725 66.0052 53.8713 66.0046 54.2434 65.888C54.7325 65.6426 55.2704 65.5101 55.8176 65.5002C56.7251 65.662 56.897 66.2991 58.9832 64.6157C59.1166 64.5057 59.4913 64.4998 59.7582 64.1816C60.6725 63.0921 60.0484 61.7798 59.96 60.769C60.0467 60.069 60.0328 59.3603 59.9188 58.6642C59.8825 58.5621 59.823 58.4698 59.7452 58.3945C59.6673 58.3192 59.5731 58.2629 59.4698 58.23C59.4442 57.9374 59.7088 57.3871 59.2158 56.8585C59.8247 56.4657 60.4821 56.0151 60.067 55.3546C59.2947 54.3303 58.635 53.2259 58.0992 52.0604C57.7344 51.0559 57.9919 49.7112 57.8773 48.6044C57.8105 47.842 57.8104 46.9218 57.6577 46.0953C58.2998 45.558 58.7634 44.8382 58.987 44.0314C59.0241 43.71 58.9816 43.3843 58.8633 43.0831C58.7451 42.7819 58.5546 42.5143 58.3088 42.304C57.9999 42.1434 57.9541 42.335 57.9149 41.7845C57.9301 41.5888 57.9041 41.3921 57.8387 41.207C57.7733 41.0219 57.6698 40.8526 57.535 40.7099C57.1308 40.379 56.2448 40.0545 55.9462 39.7054C55.4358 39.08 55.1117 38.4383 54.2373 38.2468C53.6173 38.1045 53.0832 38.5354 52.6638 38.438C52.0897 38.3096 51.4606 37.7571 50.8781 38.4513C50.7423 38.5411 50.5902 38.6032 50.4304 38.634C50.2706 38.6648 50.1063 38.6639 49.9468 38.6311C49.3753 38.2254 49.1741 37.4569 48.255 37.3675C47.733 37.3239 46.744 37.6605 46.3399 37.5351C45.6596 37.1206 44.9219 36.8088 44.1505 36.6099C43.3071 36.6034 42.4693 36.7493 41.6778 37.0406C41.1204 37.2055 40.388 37.2071 39.8017 37.3477C38.5864 37.6506 38.3248 38.7455 37.5541 39.3311C36.7834 39.9167 35.4099 40.0458 34.7305 41.2667C34.1598 42.2994 34.3939 43.342 34.2221 44.3398C34.1522 44.7658 33.6259 45.2854 33.4503 45.7296C33.0399 46.7571 33.5081 47.7168 33.5737 48.5687C33.6393 49.4206 33.1135 50.2528 33.3719 51.2666C33.5537 51.7682 33.8212 52.2345 34.1625 52.6447C34.1788 52.7881 34.1734 52.9331 34.1466 53.0749C33.9371 53.7963 33.9483 54.5638 34.1786 55.2788C34.3849 55.9656 34.7791 56.5809 35.3168 57.0554C35.9847 57.5419 36.2915 57.3721 36.8111 58.1039C37.037 58.4952 37.354 58.826 37.7353 59.0684C38.4302 59.4543 39.2036 59.0024 39.6108 59.1634C39.8647 59.2703 40.1365 59.3284 40.412 59.3345C40.2034 59.4639 40.0289 59.6415 39.9034 59.8525C35.1337 60.8862 29.0758 64.963 25.6136 70.1171C24.2528 72.2284 21.9225 75.309 21.1562 77.681C16.9877 89.8744 21.1337 108.059 19.5385 113.925L15.5421 127.881C15.3504 128.55 14.9936 131.824 15.3211 132.912C15.8378 134.529 17.3859 132.312 18.3386 131.049C17.8865 133.438 17.9489 134.049 18.406 143.256C18.5509 146.138 18.7272 149.276 18.9132 151.913C18.9124 151.932 18.9156 151.951 18.9227 151.969C18.9298 151.987 18.9407 152.003 18.9546 152.016C18.9684 152.029 18.985 152.039 19.0031 152.046C19.0212 152.052 19.0404 152.054 19.0594 152.052C19.3077 152.031 19.1729 152.328 18.8957 144.973C18.7021 139.799 18.5743 134.968 18.5668 134.576C18.5654 133.049 18.769 131.529 19.1719 130.056C21.4861 127.99 24.1505 126.353 27.0398 125.222C30.2629 124.051 33.756 123.835 37.0987 124.601C38.011 124.816 40.4479 125.202 41.2642 124.728C42.9598 123.686 47.2691 120.352 47.8668 118.504C48.1616 117.585 48.4003 116.841 48.6347 116.15C50.002 116.155 51.6991 116.355 53.1813 116.244C54.8393 116.099 55.88 115.739 57.5733 113.956C64.3336 113.517 71.7544 112.662 75.2893 112.219C77.7341 112.898 85.2316 114.86 87.1488 116.452C87.8993 117.066 88.4716 118.91 88.9029 120.98C89.4486 123.453 89.7557 125.972 89.8201 128.503C85.0429 129.859 78.9831 131.872 74.2993 133.479C74.0247 133.428 73.7427 133.431 73.4694 133.489C72.2131 133.733 72.8522 134.195 72.323 132.946C72.3434 132.949 72.3641 132.947 72.3835 132.94C72.4028 132.933 72.4201 132.921 72.4338 132.906C72.4475 132.89 72.4572 132.872 72.462 132.852C72.4668 132.832 72.4665 132.811 72.4613 132.791C72.2991 131.088 71.9514 129.408 71.4244 127.781C71.3406 127.538 70.8953 127.452 70.6223 127.395C67.6768 126.813 56.4875 126.666 54.1044 127.509C52.5538 128.065 42.0651 134.7 41.6741 135.949C41.2831 137.198 40.5699 144.569 40.4388 145.929C34.8402 148.108 30.4306 149.887 28.28 150.835C28.2621 150.842 28.246 150.853 28.2326 150.867C28.2192 150.881 28.2088 150.898 28.202 150.916C28.1952 150.934 28.1922 150.954 28.1932 150.973C28.1942 150.992 28.1991 151.011 28.2076 151.029C28.3427 151.347 31.1189 149.586 60.2242 139.151C60.5904 139.889 61.0378 140.584 61.558 141.223C60.69 141.513 59.7222 141.991 59.501 142.832C59.4641 143.009 59.4714 143.192 59.5224 143.365C59.5734 143.539 59.6665 143.697 59.7934 143.825C60.592 144.576 61.6106 145.051 62.6992 145.179C64.6151 145.485 66.572 145.417 68.462 144.979C70.2855 144.657 72.0623 144.112 73.7518 143.354C75.5793 142.39 75.3512 141.213 74.5769 140.736C73.7891 140.361 72.9396 140.132 72.07 140.062C72.7488 138.528 72.0518 139.242 73.232 138.843C73.9001 138.621 74.4928 138.216 74.9434 137.675C75.6538 136.809 76.0047 134.795 75.177 133.911C78.8409 132.698 93.561 127.657 97.2645 127.61C103.983 127.514 154.271 143.225 166.099 146.067C166.117 146.072 166.136 146.072 166.155 146.069C166.174 146.066 166.192 146.059 166.208 146.049C166.224 146.039 166.238 146.025 166.249 146.01C166.26 145.994 166.268 145.977 166.272 145.958C166.276 145.94 166.277 145.921 166.274 145.902C166.271 145.883 166.264 145.865 166.254 145.849C166.244 145.833 166.23 145.819 166.215 145.808C166.199 145.797 166.182 145.789 166.163 145.785C163.066 145.001 156.13 142.919 147.825 140.412C148.133 139.438 148.896 136.315 149.603 135.199C149.893 134.745 149.873 134.711 152.813 134.624C160.521 134.396 167.259 133.601 174.413 130.608C178.781 128.769 180.697 125.243 181.584 120.671C181.848 120.728 182.569 120.898 182.822 120.929C182.894 120.94 182.968 120.934 183.037 120.911C183.107 120.887 183.17 120.848 183.221 120.796C184.02 119.824 183.233 112.558 183.08 110.811ZM56.4753 60.4574C56.243 60.5659 55.9858 60.61 55.7306 60.5851C55.4755 60.5603 55.2316 60.4675 55.0246 60.3163C54.8198 60.1799 54.6526 59.9942 54.5383 59.7763C54.424 59.5584 54.3663 59.3152 54.3705 59.0692C54.3555 59.0338 54.3553 58.9939 54.3697 58.9583C54.3842 58.9227 54.4122 58.8943 54.4477 58.8793C54.4831 58.8644 54.523 58.8641 54.5586 58.8786C54.5942 58.893 54.6226 58.9211 54.6376 58.9565C55.1304 59.5478 55.7908 59.9759 56.5318 60.1845C56.5563 60.2014 56.5752 60.2251 56.5863 60.2527C56.5974 60.2803 56.6001 60.3106 56.594 60.3397C56.588 60.3688 56.5735 60.3955 56.5524 60.4165C56.5313 60.4374 56.5045 60.4517 56.4753 60.4574ZM47.4705 53.4191C47.478 53.156 47.5611 52.9006 47.7099 52.6834C47.8879 52.4713 48.4927 52.5435 48.8846 52.2233C49.1747 51.9497 49.3825 51.6004 49.4843 51.2149C49.8947 50.1873 50.7505 50.8807 51.708 49.1621C51.9487 48.6812 52.1233 48.1701 52.2272 47.6425C52.8222 47.2956 53.6663 47.6506 54.334 46.2968C54.5531 45.8398 54.682 45.3729 55.1322 45.2085C55.5106 45.5506 55.9789 46.9212 57.3325 46.2578C57.3743 46.7366 57.4797 49.1663 57.4702 49.3637C57.4064 49.9581 57.396 50.557 57.4391 51.1532C57.5943 52.9265 58.4953 53.8304 59.5617 55.6043C59.7292 55.8844 59.0093 56.2333 58.6547 56.4698C58.1125 56.3223 57.5566 56.2302 56.9958 56.1951C55.2393 55.9288 53.9434 56.9445 52.4984 57.4819C52.2476 57.5054 51.9948 57.4976 51.7459 57.4584C51.1827 57.4541 50.6472 58.0727 49.8674 58.2482C49.6652 58.3065 49.4501 58.3028 49.25 58.2375C49.05 58.1722 48.8741 58.0482 48.7454 57.8817C48.6214 57.5654 48.5241 57.2392 48.4546 56.9066C48.3469 56.5944 48.2214 56.2837 48.1233 55.9796C47.9256 55.3537 48.3206 55.069 47.7554 54.225C47.3657 53.6516 47.3979 53.9168 47.4705 53.4191ZM49.3898 71.4765C49.8877 70.2914 50.2707 69.0612 50.5336 67.8028C51.3 70.8448 51.7025 72.382 51.8949 73.1513C51.2003 72.6671 51.1204 72.4687 49.3867 71.441L49.3898 71.4765ZM52.3653 74.8523C53.0325 77.4742 52.8822 76.8798 53.0101 77.4225C52.7634 77.0421 52.4719 76.6926 52.1418 76.3817C52.1898 75.7874 52.1824 75.1898 52.1196 74.5969L52.3653 74.8523ZM49.2954 76.729C48.7178 76.2248 48.1825 75.6741 47.6951 75.0822C48.0438 74.0186 48.4506 72.975 48.9136 71.9559C50.9003 73.2205 50.7569 73.2152 51.2684 73.7511C51.4021 74.5003 51.4686 75.2599 51.467 76.0209L49.2954 76.729ZM49.4611 77.2952C50.7217 79.5525 51.4847 83.372 51.9313 85.9238C50.5412 82.7821 48.7822 79.8169 46.6915 77.0908C47.008 76.5682 47.2828 76.0214 47.5133 75.4555C47.938 76.1036 48.4309 76.7045 48.9834 77.2477C49.051 77.2824 49.1254 77.3017 49.2013 77.3043C49.2772 77.307 49.3527 77.2928 49.4225 77.2629L49.4611 77.2952ZM42.5346 58.7825C42.6088 58.7986 42.6843 58.8069 42.7602 58.8074C42.9658 58.7801 43.1571 58.6869 43.3054 58.5419C43.4538 58.3969 43.5512 58.2078 43.5832 58.0028C43.7173 57.9018 43.8151 57.7949 43.7915 57.6272C43.7679 57.4596 41.6337 55.0197 43.9459 53.4684C44.1581 53.4264 44.3783 53.4631 44.5654 53.5717C44.7524 53.6803 44.8936 53.8533 44.9623 54.0584C45.1184 54.5213 45.3985 54.9325 45.7721 55.2473C45.8486 55.8116 45.972 56.3686 46.1412 56.9124C46.2408 57.2343 46.0298 57.6816 46.0162 58.1384C45.9696 59.0359 46.9149 59.9359 47.2951 60.7067C47.8056 61.743 47.6228 62.9205 48.6988 63.7823C49.7748 64.6441 49.5203 63.8801 50.0523 65.9778C49.7849 67.6862 49.3576 69.3657 48.7758 70.9942C47.6498 69.6633 41.8539 61.826 40.6691 60.0267C41.0302 59.7628 42.1593 58.9851 42.4961 58.7501L42.5346 58.7825ZM39.978 60.1944C40.7571 61.645 48.0963 71.2949 48.1041 71.3835C47.8799 72.3948 46.4546 76.6291 45.6511 77.1461C43.6825 75.9872 37.3867 62.5384 36.913 61.3113C37.8758 60.7952 38.9023 60.4081 39.966 60.1597L39.978 60.1944ZM52.5525 98.5378C51.55 98.3129 47.4679 87.9045 44.1399 82.2367C42.1451 78.8376 38.3253 73.2665 34.5803 72.0217C30.5325 70.6873 23.6314 75.3382 23.3162 80.619C23.146 84.0984 23.7304 87.5734 25.0293 90.8057C30.3211 103.092 36.8693 112.686 49.2244 114.517C49.4585 113.925 48.4977 114.482 56.4781 113.999C56.1144 114.336 55.7228 114.643 55.3074 114.914C53.8885 115.851 51.0036 115.451 48.891 115.404L49.1066 114.804C36.3972 113.111 29.6434 103.106 24.3814 91.059C23.0275 87.7306 22.4094 84.1488 22.5694 80.5592C22.8741 74.8506 30.03 70.1506 34.3107 71.1876C35.4055 71.4899 36.4289 72.0079 37.3208 72.7111C36.6145 69.1929 36.2035 65.6219 36.0919 62.0353C36.2422 61.8763 36.4058 61.7305 36.5809 61.5994C37.5761 64.1925 43.0328 76.5265 45.3638 77.743C45.5111 77.8135 45.6779 77.832 45.837 77.7954C45.9961 77.7587 46.138 77.6692 46.2396 77.5413C48.5347 80.798 50.7037 84.1461 51.7719 87.7781C52.3718 89.7818 52.6625 91.8652 52.6341 93.9565C50.919 88.8534 46.7753 81.622 42.4964 78.3602C47.1602 85.0011 51.0916 95.9319 52.6058 98.0239C53.147 98.1234 53.6956 98.177 54.2458 98.1842C53.5499 92.8847 52.4022 81.8087 49.729 77.1914C50.0038 77.1674 51.909 76.5808 51.909 76.5808C52.296 76.9706 52.6341 77.406 52.9159 77.8775C53.3407 78.5461 53.17 78.025 54.0455 81.7006C58.2094 98.6594 58.0509 98.5839 58.413 98.7398C56.6558 98.6702 53.5807 98.7516 52.5525 98.5378ZM58.1293 94.4763C52.9541 75.1492 52.8706 74.6026 50.6998 66.5375C50.7809 66.1373 50.8417 65.8104 50.8836 65.5745C51.4946 66.2268 54.8272 69.8036 55.2289 70.6172C54.7793 71.0943 53.089 71.9927 53.6729 72.5402C53.9363 72.7941 56.0632 74.3323 56.7381 74.8986C57.1999 76.2966 58.0362 91.983 58.1293 94.4763ZM40.7834 145.783C40.9331 144.635 41.9149 137.17 42.2771 136.102C42.5384 135.311 52.7346 128.701 54.3819 128.128C56.7554 127.277 70.0984 127.432 71.0725 127.945C71.6241 129.455 72.0068 131.022 72.2137 132.616C70.5691 130.973 59.0842 132.452 59.1788 134.963C59.1836 135.045 59.2079 135.125 59.2499 135.196C59.2918 135.267 59.3502 135.327 59.42 135.37C59.5079 136.443 59.7234 137.5 60.062 138.522C53.4133 140.953 46.7717 143.463 40.7834 145.783ZM74.4689 141.442C75.0491 142.866 69.7934 143.96 68.275 144.271C66.4764 144.69 64.6141 144.759 62.7894 144.474C61.9906 144.33 60.4958 143.889 60.1589 143.203C59.9964 142.878 60.4029 142.521 60.7074 142.325C61.0933 142.078 61.508 141.88 61.9422 141.734C62.4834 142.357 63.1774 142.829 63.956 143.104C64.8768 143.416 68.6386 142.81 69.9259 142.411C70.4914 142.237 71.0884 142.015 71.8355 140.547C72.3744 140.58 74.2755 140.968 74.4689 141.442ZM70.2038 141.503C69.5737 141.96 64.9026 142.69 64.1588 142.46C61.6997 141.72 60.081 138.127 59.7547 135.52C61.7234 135.776 63.7187 135.749 65.6798 135.439C67.1434 135.115 70.5927 134.205 71.8217 133.446C72.8475 136.286 71.5753 140.534 70.2038 141.503ZM74.7597 136.494C74.5612 136.99 74.2607 137.438 73.8777 137.811C73.4947 138.183 73.0378 138.47 72.5365 138.654C72.8915 137.37 72.9956 136.029 72.8432 134.705C72.9003 134.553 72.9906 134.414 73.1076 134.301C73.2245 134.187 73.3652 134.101 73.5194 134.048C73.6737 133.995 73.8378 133.977 73.9998 133.995C74.1619 134.014 74.3179 134.068 74.4566 134.153C75.1596 134.529 74.9686 135.717 74.7597 136.494ZM159.69 55.4566C165.973 58.2393 168.754 59.3897 170.922 62.1214C169.627 61.1908 168.044 60.75 166.454 60.8774C160.754 61.1795 158.697 69.8378 157.719 75.4089C156.102 84.6988 158.588 96.0597 158.602 97.7559C157.193 99.3176 149.695 104.083 146.35 106.297C146.658 104.197 147.702 96.1098 148.563 92.8808C149.72 88.5448 153.252 78.3726 153.359 76.2192C153.383 75.5827 153.252 75.5138 151.285 74.4709C152.003 74.408 153.928 74.0431 154.52 73.8751C154.778 73.8526 154.901 73.7257 154.951 73.1763C155.114 71.268 154.398 55.723 154.306 54.0693C154.241 54.0392 158.889 55.0888 159.717 55.4542L159.69 55.4566ZM152.669 53.9356C153.07 53.8712 153.48 53.8808 153.877 53.9639C153.996 60.4306 154.542 71.7737 154.252 73.2554C153.79 73.3851 152.133 73.6462 151.49 73.7472C150.113 73.948 150.071 73.8713 149.946 74.0787C149.821 74.2862 150.04 74.5351 150.312 74.69C150.793 74.9696 152.383 75.7864 152.617 76.016C152.505 77.0895 152.28 78.1483 151.947 79.1748C148.101 92.9122 148.045 88.7986 145.951 103.678C145.565 96.672 145.601 89.6489 146.059 82.647C146.436 78.7814 146.983 75.1331 149.135 66.7435C149.985 63.4975 151.79 57.2645 151.881 57.2922C152.234 56.1937 152.506 55.0711 152.695 53.9333L152.669 53.9356ZM142.029 109.694C142.255 110.336 142.247 110.247 142.194 110.261L141.915 110.231C141.907 110.143 140.65 101.283 140.558 97.5835C140.405 91.0305 140.319 83.9176 140.219 77.065C140.17 73.7458 140.455 66.5827 140.451 66.851L141.281 66.1173C141.713 66.8191 142.192 67.4906 142.716 68.1269C142.914 68.3508 143.18 68.6313 143.466 68.6331C143.411 70.2549 142.191 90.3113 142.429 103.039C142.553 109.97 142.904 108.465 142.259 109.156C142.18 109.22 142.12 109.303 142.085 109.397C142.049 109.491 142.039 109.593 142.055 109.692L142.029 109.694ZM143.742 68.6179C144.416 68.559 145.019 67.0768 145.852 66.3963C146.23 66.7296 147.428 68.3758 148.14 68.5458C145.91 76.853 143.753 88.3521 145.383 106.882C144.665 107.355 143.697 108.03 142.981 108.53C142.764 100.946 143.807 75.9023 143.768 68.6156L143.742 68.6179ZM152.009 55.8874C151.803 56.7988 148.481 67.3367 148.229 67.8322C147.733 67.424 147.282 66.9631 146.885 66.4578C146.053 65.5211 145.767 65.2156 144.624 66.7539C146.193 63.043 149.549 59.1223 150.935 57.1963C152.259 55.383 152.077 55.5419 152.009 55.8874ZM130.52 39.006C131.199 39.1519 131.906 39.09 132.55 38.8284C133.036 38.5592 133.588 38.4305 134.143 38.4567C134.95 38.7461 135.773 38.9844 136.609 39.1701C137.615 39.0732 138.612 38.9054 139.594 38.6678C140.068 38.8409 140.484 39.1452 140.793 39.5451C141.101 39.9451 141.29 40.4244 141.337 40.9274C139.706 41.3119 138.158 41.9892 136.768 42.9264C136.653 42.6431 136.453 42.4025 136.195 42.2379C135.937 42.0732 135.635 41.9925 135.33 42.0069C133.86 41.9592 132.39 42.0698 130.945 42.3369C130.717 41.2153 130.572 40.0782 130.513 38.9351L130.52 39.006ZM130.835 46.5991C130.58 46.2284 129.881 43.243 130.295 42.8762C130.374 42.9587 130.04 42.711 131.726 42.5813C132.916 42.5149 134.11 42.5179 135.3 42.5902C136.111 42.6623 136.275 43.0141 136.298 43.7894C136.423 45.2168 136.455 45.0711 136.45 45.5183C136.461 45.6424 136.436 45.9751 136.345 46.0545C134.55 46.5441 132.681 46.7046 130.829 46.5282L130.835 46.5991ZM139.858 55.8784C137.368 55.3993 135.135 55.5054 133.366 52.5511C132.226 50.6496 132.708 50.0268 131.808 49.8464C131.479 49.8361 131.152 49.7929 130.831 49.7174C130.779 49.1234 131.416 47.817 131.502 47.1751C132.99 47.2223 134.478 47.0921 135.935 46.7872C136.81 46.5767 137.267 46.3848 136.968 44.5974L136.848 43.2232C138.202 42.6758 141.093 41.7171 141.44 41.5885C141.484 42.0706 141.591 42.5448 141.759 42.9989C141.924 43.2793 142.183 43.4913 142.491 43.596C142.54 43.6129 142.592 43.6183 142.644 43.6116C142.696 43.6049 142.745 43.5865 142.788 43.5576C142.831 43.5288 142.868 43.4903 142.894 43.4452C142.92 43.4002 142.935 43.3497 142.938 43.2978C143.07 42.4554 143.165 41.7056 143.196 41.3455C143.213 41.5406 143.222 40.7179 143.779 40.3475C144.625 39.8089 146.089 40.7171 146.314 42.1627C146.429 42.8673 145.833 44.2149 145.43 45.7421C145.189 46.6567 147.155 46.8688 147.857 47.1379C148.156 47.6925 148.062 48.3529 148.429 48.6692C148.962 48.9366 149.536 49.1129 150.127 49.1907C150.91 51.0969 151.531 53.0659 151.982 55.0767C149.938 57.641 149.482 58.2526 148.932 58.9171C146.773 61.3612 145.002 64.1225 143.681 67.1045C142.728 63.4624 141.245 60.3043 141.019 59.2432C140.839 58.4191 140.888 56.9318 140.429 56.1768C140.361 56.0881 140.275 56.0153 140.177 55.9637C140.078 55.9122 139.969 55.883 139.858 55.8784ZM140.378 58.8615C140.941 60.4024 142.525 65.4278 143.033 67.456C142.42 66.6876 141.638 65.3982 141.638 65.3982C141.61 65.3521 141.573 65.3127 141.528 65.2831C141.484 65.2534 141.433 65.2342 141.38 65.2268C141.327 65.2194 141.273 65.2241 141.222 65.2404C141.171 65.2568 141.125 65.2845 141.086 65.3213L140.482 65.8745C140.529 63.5476 140.571 61.1763 140.404 58.8592L140.378 58.8615ZM140.052 58.0949C140.543 64.6273 139.748 70.5576 139.785 77.103C139.923 99.1043 139.829 98.0315 140.683 105.747C139.114 98.8445 136.586 85.3698 135.206 78.0664C135.694 77.6217 138.052 75.4767 138.285 74.8667C138.393 74.5713 138.234 74.2904 137.596 74.3462C136.494 74.527 135.379 74.6245 134.262 74.6379C134.696 71.8305 137.675 61.4654 138.471 58.7156C138.981 58.5191 139.402 58.3304 140.052 58.0949ZM101.613 93.4773C102.861 91.9119 119.811 87.034 120.671 86.0386C121.875 84.5931 124.788 76.0207 127.947 69.437C130.629 63.8419 132.168 61.7239 138.096 58.9271C136.943 62.6998 134.694 70.0795 133.763 74.3421C133.706 74.6062 133.615 74.9 133.825 75.0514C134.355 75.4875 136.369 75.0254 137.541 74.9407C136.788 75.8374 134.665 77.7117 134.665 77.7117C134.624 77.7478 134.594 77.794 134.576 77.8457C134.559 77.8974 134.555 77.9528 134.566 78.0063C135.298 82.0876 139.734 106.438 141.038 109.915L139.407 109.647C138.331 109.231 137.185 109.027 136.031 109.049C137.173 98.8178 136.2 96.0708 135.969 90.5698C135.919 90.0024 132.528 78.81 132.502 78.7228C132.499 78.6852 132.481 78.6504 132.452 78.6262C132.423 78.6019 132.386 78.5901 132.348 78.5934C132.311 78.5967 132.276 78.6148 132.251 78.6437C132.227 78.6727 132.215 78.71 132.219 78.7477C132.709 82.6178 134.132 86.2188 135.256 90.3909C132.652 93.299 130.004 97.2383 125.276 98.858C122.354 99.873 108.631 104.147 106.78 104.443C105.106 102.874 101.473 94.6331 101.613 93.4773ZM100.032 94.8039C100.032 94.8039 101.073 94.4537 101.041 94.2868C102.141 97.3297 103.451 100.293 104.961 103.155C104.177 103.475 103.369 103.733 102.545 103.929C102.04 103.973 102.433 104.385 100.945 101.567C100.026 99.8149 99.2122 98.0097 98.5065 96.1612C98.3022 95.5627 98.0506 95.6472 100.032 94.8039ZM89.813 97.5829C90.446 96.7503 90.9413 96.5908 98.0231 96.8647C98.831 98.9242 99.7674 100.931 100.827 102.873C99.4839 104.123 97.9037 105.091 96.18 105.719C96.0935 105.342 95.9794 105.468 96.2832 105.468C96.5385 105.453 96.7871 105.381 97.0107 105.257C97.2343 105.133 97.4273 104.961 97.5754 104.752C97.7235 104.544 97.8229 104.305 97.8664 104.053C97.9098 103.801 97.8961 103.542 97.8264 103.296C97.6779 102.416 94.9808 100.794 94.2185 100.351C94.6524 100.402 95.0919 100.329 95.4867 100.142C95.5221 100.127 95.5501 100.099 95.5646 100.063C95.5791 100.027 95.5788 99.9875 95.5638 99.9521C95.5489 99.9167 95.5205 99.8886 95.4849 99.8742C95.4493 99.8597 95.4094 99.86 95.3739 99.8749C93.9186 100.395 92.2562 98.754 92.0565 98.7178C91.3591 98.6091 91.9235 100.159 90.4904 101.24C90.2811 101.401 89.402 101.157 89.3108 100.727C89.1522 100.199 89.115 99.6419 89.2019 99.0975C89.2889 98.553 89.4978 98.0353 89.813 97.5829ZM80.145 101.243C81.2442 100.736 86.8683 98.4392 88.5723 98.7189C88.4467 99.4436 88.4691 100.186 88.6382 100.902C88.7147 101.127 88.8389 101.334 89.0023 101.507C89.1657 101.68 89.3645 101.815 89.5852 101.905C89.8058 101.994 90.0431 102.034 90.2809 102.024C90.5186 102.013 90.7513 101.951 90.9629 101.842C91.5448 101.376 91.9563 100.731 92.1335 100.007C92.9645 100.416 97.1106 102.671 97.138 103.598C97.1923 104.219 96.9101 104.77 96.2848 104.771C95.7444 104.63 95.2264 104.413 94.7455 104.129C94.2583 103.805 93.7494 103.515 93.2223 103.262C93.139 103.227 93.046 103.225 92.9611 103.255C92.8761 103.285 92.8054 103.346 92.7624 103.425C92.7194 103.504 92.7072 103.596 92.7282 103.684C92.7492 103.771 92.8019 103.848 92.8761 103.899C92.8761 103.899 93.5845 104.338 94.3623 104.752C95.5481 105.542 96.0007 106.324 94.6629 106.861C94.4534 106.944 94.229 106.982 94.0039 106.974C93.7787 106.966 93.5577 106.912 93.3545 106.815C93.0896 106.388 92.7544 106.01 92.3632 105.695C92.1659 105.295 91.8463 104.968 91.4508 104.762C91.0553 104.556 90.6043 104.48 90.1633 104.548C89.7069 104.641 89.6916 104.875 89.7173 104.658C89.8378 103.584 88.4343 103.064 87.51 103.324C86.0203 103.758 85.3533 105.835 84.9848 107.341C84.7392 108.006 85.8652 107.193 80.8398 109.491C80.7607 106.903 80.5349 104.322 80.1634 101.76C80.0656 101.152 80.0602 101.295 80.145 101.243ZM85.2415 107.417C85.6376 106.328 86.539 104.275 87.6672 103.998C88.1036 103.879 89.0254 104.102 88.9675 104.563C88.8805 105.78 88.4243 106.942 87.6597 107.894C87.7816 108.062 85.0111 108.358 85.2415 107.417ZM90.1116 105.285C90.3058 105.053 91.5851 105.379 91.6787 106.041C91.8377 107.144 90.8982 108.557 90.0385 109.249C89.7638 109.478 88.529 108.639 88.2296 108.281C88.7761 107.234 89.4054 106.232 90.1116 105.285ZM91.8683 108.106C91.9226 108.012 92.637 105.966 92.9305 107.584C93.0484 108.217 92.1292 108.637 91.5008 108.603C91.6322 108.444 91.7549 108.278 91.8683 108.106ZM112.595 117.907C109.116 121.133 108.918 124.992 109.927 129.486C103.748 127.883 99.0485 126.865 97.2533 126.87C94.8456 127.131 92.4711 127.638 90.167 128.383C90.1977 125.977 89.3591 117.617 87.5152 116.045C85.6712 114.473 79.3215 112.661 76.9298 111.977L77.4529 111.931C77.6476 111.807 77.2292 110.906 77.9959 110.785C78.9222 110.65 80.2565 110.891 80.6495 110.481C80.7597 110.277 80.8136 110.047 80.8057 109.815C81.7538 109.42 83.9889 108.518 85.124 108.115C85.5415 108.391 86.0175 108.566 86.5142 108.627C87.011 108.687 87.515 108.631 87.9865 108.464C88.3044 109.034 89.6597 110.229 90.3938 109.736C90.597 109.594 90.7893 109.436 90.9692 109.266C91.5436 109.372 92.1369 109.295 92.6652 109.046C92.9472 108.942 93.1905 108.754 93.3623 108.507C93.534 108.26 93.6259 107.967 93.6256 107.666C94.1014 107.759 94.5946 107.695 95.0305 107.482C95.4664 107.27 95.8215 106.922 96.042 106.49C97.9477 105.883 99.6904 104.851 101.138 103.471C101.339 103.82 101.525 104.116 101.677 104.318C101.728 104.389 101.795 104.446 101.873 104.484C101.951 104.523 102.038 104.541 102.125 104.537C103.019 104.549 105.026 103.39 105.115 103.382C105.474 103.989 105.904 104.552 106.396 105.057C106.57 105.203 106.832 105.135 107.078 105.087C109.622 104.552 122.149 100.686 125.488 99.5363C129.824 98.0402 132.442 94.6753 135.224 91.448C135.501 96.5519 136.383 98.9762 135.244 109.144C131.105 110.031 127.028 111.187 123.04 112.607C119.556 113.939 115.388 115.322 112.596 117.916L112.595 117.907ZM127.061 134.268L126.74 134.171C126.275 129.673 127.029 125.426 130.058 122.061C130.356 122.11 130.657 122.14 130.959 122.152C127.818 125.357 126.85 129.712 127.061 134.268ZM139.768 118.263C137.244 120.057 138.098 120.831 135.683 121.301C133.741 121.606 131.765 121.625 129.818 121.358C128.232 120.997 128.996 120.332 130.594 120.013C130.872 120.033 133.037 119.862 134.051 119.711C134.134 119.69 134.206 119.641 134.255 119.572C134.304 119.503 134.327 119.419 134.32 119.334C134.312 119.25 134.275 119.171 134.215 119.111C134.154 119.052 134.075 119.016 133.99 119.01C132.832 119.012 131.675 119.095 130.528 119.259C129.793 119.313 129.054 119.291 128.324 119.193C128.243 119.083 128.19 118.955 128.17 118.819C128.15 118.684 128.165 118.545 128.212 118.417C129.094 117.777 133.501 117.606 134.226 117.515C134.31 117.494 134.384 117.444 134.435 117.373C134.485 117.303 134.509 117.216 134.501 117.129C134.494 117.043 134.455 116.962 134.393 116.901C134.331 116.84 134.25 116.803 134.163 116.797C132.711 116.955 131.249 117.006 129.789 116.948C129.159 116.895 127.687 116.712 127.738 116.073C127.834 114.921 130.251 115.692 131.881 115.433C133.037 115.315 134.164 114.999 135.212 114.499C135.291 114.467 135.355 114.405 135.388 114.327C135.421 114.248 135.422 114.16 135.39 114.081C135.359 114.002 135.297 113.939 135.218 113.906C135.14 113.872 135.052 113.871 134.973 113.903C133.887 114.267 132.778 114.561 131.655 114.783C131.582 114.775 131.514 114.739 131.465 114.685C131.416 114.63 131.388 114.559 131.388 114.485C131.386 114.318 131.414 114.152 131.47 113.995C131.875 113.359 132.449 112.848 133.127 112.519C135.554 111.253 137.56 112.131 140.458 112.065C140.963 113.673 141.564 115.25 142.256 116.786C141.403 117.217 140.583 117.709 139.803 118.26L139.768 118.263ZM143.06 116.885C142.658 115.866 141.173 112.173 140.981 111.296C141.419 111.032 141.886 110.821 142.373 110.665C142.913 112.145 143.897 114.713 144.514 116.142C144.059 116.421 143.585 116.669 143.095 116.882L143.06 116.885ZM145.569 116.666C145.006 115.643 143.18 110.809 142.753 109.595C144.168 108.212 157.269 100.285 159.129 98.0583C159.711 97.3641 156.506 85.5389 158.168 75.4321C159.05 69.9946 160.961 61.4026 166.43 61.1118C170.182 60.9086 172.568 63.5765 174.095 67.0344C176.894 73.4007 176.804 82.5838 176.797 82.4951C177.447 89.9338 175.766 101.347 170.911 107.132C167.247 111.508 148.109 116.899 145.607 116.689L145.569 116.666ZM182.714 120.206C181.652 120.022 176.737 118.683 174.71 118.691C164.179 118.719 164.653 116.676 157.941 114.404C161.41 113.207 169.112 110.461 171.501 107.643C176.545 101.681 178.111 90.1617 177.415 82.5214C177.386 79.8268 177.151 77.1384 176.712 74.4798C179.644 85.4265 183.598 116.734 182.714 120.206Z" fill="#1D1C1F"/>
<path fillRule="evenodd" clipRule="evenodd" d="M40.3813 72.2653L37.5027 72.8566C38.4622 73.6128 39.3495 74.4563 40.1532 75.3764L40.7273 72.646C40.7477 72.5962 40.7536 72.5416 40.7443 72.4885C40.7349 72.4355 40.7108 72.3862 40.6745 72.3463C40.6383 72.3065 40.5915 72.2777 40.5396 72.2634C40.4877 72.249 40.4328 72.2497 40.3813 72.2653ZM131.564 145.819C130.792 145.42 129.956 145.161 129.094 145.053C130.82 141.605 130.123 137.816 129.561 137.525C129.016 137.059 128.322 136.803 127.604 136.803C124.895 136.477 118.446 136.997 116.867 138.564C116.522 138.907 116.345 139.432 116.738 139.737C116.749 141.854 117.373 143.922 118.536 145.691C117.664 145.937 116.665 146.364 116.398 147.191C116.355 147.368 116.355 147.552 116.399 147.729C116.442 147.905 116.528 148.069 116.648 148.205C117.402 148.99 118.387 149.514 119.459 149.702C121.359 150.103 123.318 150.135 125.23 149.795C127.064 149.559 128.863 149.102 130.587 148.433C132.483 147.535 132.36 146.339 131.564 145.819ZM117.062 139.87C119.013 140.223 121.005 140.296 122.977 140.085C125.118 139.749 127.208 139.146 129.199 138.29C129.483 139.494 129.527 140.742 129.327 141.963C129.127 143.184 128.688 144.354 128.035 145.405C127.884 145.733 127.648 146.017 127.353 146.226C127.058 146.435 126.713 146.563 126.352 146.597C125.125 146.865 121.746 147.25 121.027 147C118.693 146.159 117.255 142.488 117.062 139.87ZM125.123 148.992C123.308 149.325 121.446 149.3 119.64 148.917C118.825 148.77 118.057 148.43 117.401 147.925C117.246 147.787 116.989 147.506 117.043 147.313C117.223 146.708 118.322 146.308 118.934 146.147C119.437 146.786 120.096 147.285 120.847 147.597C121.773 147.971 126.681 147.489 127.553 146.939C128.091 146.542 128.532 146.026 128.841 145.432C129.378 145.537 131.258 145.998 131.426 146.484C131.958 147.974 126.715 148.799 125.127 149.036L125.123 148.992Z" fill="#1D1C1F"/>
</svg>
