<svg width="203" height="203" viewBox="0 0 203 203" fill="none" xmlns="http://www.w3.org/2000/svg">
<g clip-path="url(#clip0_14456_9162)">
<path d="M50.373 130.448C50.6998 130.55 52.5181 130.909 52.5649 130.592C52.5922 130.407 52.2563 130.367 52.2563 130.367C52.5084 128.964 54.3477 128.876 55.5152 129.804C55.8371 130.059 56.1262 130.352 56.3757 130.678C54.5565 130.508 51.9797 131.387 51.8742 133.198C51.8964 133.677 52.0269 134.146 52.256 134.568C52.4851 134.989 52.8068 135.354 53.1969 135.633C53.6664 136.106 54.2253 136.481 54.841 136.736C55.4568 136.99 56.1171 137.12 56.7834 137.117C57.9877 136.992 59.111 136.452 59.9599 135.588C61.5483 135.875 63.1867 135.584 64.5793 134.768C64.638 134.734 64.6892 134.689 64.7297 134.634C64.7702 134.58 64.7992 134.518 64.8149 134.452C64.8604 134.144 64.8578 134.162 63.3856 131.947C63.3439 131.884 63.2878 131.832 63.2218 131.795C63.1559 131.758 63.0821 131.738 63.0066 131.736C62.9312 131.733 62.8562 131.749 62.7881 131.782C62.7201 131.814 62.6608 131.863 62.6154 131.923C62.5793 131.957 62.5467 131.994 62.5179 132.035C62.3393 132.277 62.0827 132.45 61.7915 132.525C61.5002 132.6 61.192 132.572 60.9187 132.446C60.076 132.061 59.2847 129.56 57.4211 127.863C55.7956 126.382 53.4277 125.663 51.5064 126.855C50.678 127.378 50.031 128.143 49.6534 129.046C49.5155 129.322 49.4879 129.64 49.5762 129.935C49.7743 130.193 50.056 130.374 50.373 130.448ZM53.2011 134.204C52.9852 133.996 52.8556 133.714 52.8381 133.414C52.8206 133.115 52.9166 132.82 53.1068 132.588C53.5769 132.106 54.1802 131.776 54.8394 131.639C54.2086 132.419 53.6617 133.264 53.2076 134.16L53.2011 134.204ZM61.7004 134.037C62.0053 133.434 61.7615 133.623 62.1371 133.517C62.4236 133.423 62.6914 133.28 62.9283 133.094L63.5891 134.163C62.8635 134.486 62.0858 134.676 61.2932 134.724C61.415 134.508 61.6079 134.176 61.7069 133.993L61.7004 134.037ZM58.8447 131.321C59.5264 132.493 60.0842 133.529 61.3764 133.612C61.1383 133.964 60.9326 134.337 60.762 134.726C60.1128 134.675 60.0468 134.513 59.7759 134.581C59.2454 134.7 58.1513 136.383 56.1451 136.078C56.3113 135.817 56.4354 135.532 56.5129 135.232C57.0978 135.202 57.6666 135.029 58.1704 134.73C58.3879 134.592 58.5473 134.379 58.6188 134.131C58.6643 133.823 58.6171 133.411 58.0423 132.795C58.361 132.317 58.6319 131.809 58.8512 131.277L58.8447 131.321ZM55.395 134.213C54.6813 133.684 56.1099 133.149 56.96 133.301C57.156 133.332 57.3394 133.417 57.4889 133.547C57.6384 133.678 57.748 133.848 57.8049 134.038C57.6593 134.21 57.4801 134.35 57.2783 134.451C57.0765 134.551 56.8564 134.609 56.6314 134.621C56.4064 134.633 56.1812 134.6 55.9697 134.522C55.7582 134.444 55.5649 134.324 55.4015 134.169L55.395 134.213ZM57.2296 128.978C57.7524 129.574 58.2113 130.224 58.5987 130.916C58.245 131.383 57.9521 131.893 57.7268 132.434C57.3725 132.273 56.9889 132.187 56.5999 132.18C56.2108 132.174 55.8246 132.248 55.4652 132.397C53.7239 133.039 53.8178 135.023 56.0867 135.133C55.9178 135.367 55.7804 135.622 55.6778 135.892C54.8112 135.582 54.0349 135.063 53.4181 134.38C54.1854 133.502 54.8267 132.522 55.3236 131.467C55.6891 131.36 56.0722 131.328 56.4505 131.371C56.8288 131.415 57.1945 131.534 57.5263 131.72L57.8139 131.052L57.6332 130.936C57.261 130.593 57.1086 130.345 56.6891 129.897C56.913 129.601 57.0969 129.277 57.2361 128.934L57.2296 128.978ZM54.0214 127.065C55.1203 127.247 56.1325 127.775 56.9118 128.571C56.7012 128.906 56.5277 129.264 56.3945 129.637C56.0214 129.244 55.5561 128.949 55.0407 128.78C54.5254 128.612 53.9761 128.574 53.4424 128.67C53.7071 128.164 53.9019 127.624 54.0214 127.065ZM51.9038 127.454C52.448 127.146 53.0688 127 53.6931 127.034C53.3325 127.586 53.0691 128.195 52.9143 128.835C52.6287 128.954 52.3807 129.148 52.1967 129.396C52.0126 129.645 51.8995 129.939 51.8692 130.246C51.2473 130.189 50.6438 130.005 50.0958 129.706C50.3712 128.747 51.0149 127.936 51.8862 127.451L51.9038 127.454ZM38.967 124.041C37.4836 123.12 33.6614 124.634 32.8575 125.631C32.7289 125.858 32.6895 126.125 32.747 126.379C32.9909 128.565 37.0707 136.761 37.86 138.056C37.9961 138.292 38.2679 138.035 38.1547 137.766C37.8086 136.942 37.6365 138.473 41.098 131.238C41.3275 131.185 41.5471 131.096 41.7487 130.974C41.8437 130.896 41.9063 130.785 41.9243 130.663C41.9423 130.541 41.9145 130.416 41.8462 130.314C41.7808 130.203 41.7023 130.101 41.6122 130.009L42.4699 128.04L44.4916 129.58C43.8822 130.627 43.3866 131.736 43.0134 132.888C42.0785 133.077 41.179 133.412 40.3479 133.88C39.744 134.376 40.4068 135.553 40.8238 136.262C41.2409 136.972 41.6086 137.467 41.6911 137.578C41.7737 137.689 42.0961 137.638 42.0931 137.475C42.056 137.34 41.9994 137.21 41.925 137.091C41.5576 136.278 41.2638 135.433 41.047 134.568C41.7918 134.26 42.5647 134.024 43.355 133.865C43.6422 133.809 44.5264 133.669 44.7346 133.844C45.7762 134.606 46.8809 135.278 48.0366 135.852C48.0822 135.883 48.1381 135.894 48.192 135.883C48.2458 135.873 48.2933 135.841 48.3239 135.795C48.3545 135.75 48.3657 135.694 48.3551 135.64C48.3445 135.586 48.3129 135.539 48.2673 135.508L46.8807 134.359C47.3135 133.671 47.6368 132.921 47.8389 132.134L51.2981 134.723C51.5075 134.889 51.7369 134.554 51.5839 134.433C51.431 134.311 41.0916 125.371 38.967 124.041ZM37.4909 124.776C37.8117 124.73 38.1393 124.778 38.4329 124.916C38.6224 125.034 39.0765 125.37 39.691 125.839C39.3733 126.429 39.1242 127.053 38.9485 127.7C38.408 127.278 38.0935 126.971 37.6151 126.981C37.3524 127 37.0976 127.08 36.8702 127.213C37.0596 126.539 37.2169 126.023 37.4909 124.776ZM33.683 126.193C34.7247 125.458 35.927 124.981 37.1899 124.804C36.4133 126.811 35.7729 128.869 35.2729 130.962C34.5927 129.425 34.0636 127.826 33.6931 126.186L33.683 126.193ZM36.5869 134.188C36.2209 133.316 35.824 132.348 35.4508 131.403C35.9361 130.188 36.1187 129.621 36.4792 128.46C36.8375 129.366 37.2779 130.238 37.7948 131.065C37.285 132.061 36.883 133.108 36.5957 134.19L36.5869 134.188ZM37.7532 136.951C37.5104 136.403 37.2055 135.665 36.8059 134.715C37.3033 133.66 37.6922 132.557 37.9668 131.423C38.0916 131.918 39.9161 131.504 40.4087 131.397C39.9054 132.429 38.1516 136.021 37.762 136.953L37.7532 136.951ZM38.3329 131.198C37.9267 130.173 37.5889 129.123 37.3219 128.053L37.6169 127.944C37.7298 128.032 40.4783 130.256 40.6776 130.429C39.927 130.764 39.1443 131.022 38.3417 131.2L38.3329 131.198ZM41.2603 129.651C40.6649 129.114 39.8462 128.444 39.2179 127.946C39.5449 127.358 39.7949 126.729 39.9618 126.077L42.2542 127.855C42.1608 128.183 41.7601 128.826 41.3131 129.659L41.2603 129.651ZM46.5688 134.034L45.3338 133.015C44.7664 132.688 44.0961 132.589 43.4584 132.738C43.9517 131.759 44.3554 130.738 44.6648 129.686L47.592 131.918C47.1603 132.588 46.8311 133.319 46.6151 134.086L46.5688 134.034Z" fill="#1D1C1F"/>
<path d="M177.725 156.605C178.259 143.117 168.983 120.884 163.287 108.644C167.339 109.578 171.438 110.288 175.568 110.773C176.739 110.946 179.834 111.187 180.441 111.16C180.795 111.14 180.896 110.822 180.379 110.728C179.862 110.633 176.19 109.911 175.689 109.828L166.735 108.506C165.354 108.356 163.187 108.162 163.064 108.144C161.017 103.73 159.549 100.94 159.532 100.929C159.515 100.905 159.493 100.886 159.468 100.871C159.442 100.857 159.414 100.848 159.385 100.846C159.356 100.843 159.327 100.847 159.299 100.857C159.272 100.866 159.247 100.882 159.226 100.902C159.205 100.922 159.188 100.946 159.177 100.973C159.166 101 159.161 101.029 159.163 101.059C159.164 101.088 159.171 101.116 159.185 101.142C159.198 101.168 159.216 101.191 159.239 101.209C159.596 101.595 173.551 130.222 176.347 148.934C177.455 156.358 177.415 165.465 170.095 166.904C152.707 170.364 23.0585 153.18 11.8535 144.436C10.2959 143.226 10.1949 141.168 10.9273 138.524C11.9993 134.858 14.7631 130.094 18.0304 124.782C20.3786 127.828 40.0143 152.04 43.8103 151.8C47.6063 151.56 69.7255 145.002 70.8512 143.288C71.5361 142.083 71.9989 140.765 72.2176 139.396C72.343 139.268 72.4176 139.099 72.4275 138.92C72.4373 138.741 72.3818 138.565 72.2712 138.424C71.1068 136.866 47.2026 111.403 45.4502 111.207C44.2274 111.08 41.8416 112.006 40.7029 112.467C40.4452 111.861 40.0037 111.352 39.4407 111.01C38.8777 110.669 38.2216 110.513 37.5652 110.565C36.9308 110.718 36.3395 111.013 35.8356 111.428C35.3318 111.843 34.9287 112.367 34.6565 112.96C34.6593 113.009 34.679 113.056 34.7121 113.092C34.7453 113.128 34.7899 113.152 34.8385 113.159C34.8871 113.166 34.9367 113.156 34.9789 113.131C35.0211 113.106 35.0534 113.067 35.0703 113.021C35.7321 112.204 36.6706 111.657 37.7081 111.485C38.1293 111.483 38.5425 111.6 38.8998 111.823C39.257 112.046 39.5435 112.366 39.7261 112.746L29.3179 115.482C28.877 114.871 28.2858 114.384 27.6015 114.068C25.9936 113.381 24.7041 114.315 23.797 115.828C23.7755 115.872 23.7698 115.922 23.7809 115.97C23.7921 116.018 23.8195 116.06 23.8584 116.09C23.8973 116.12 23.9453 116.136 23.9945 116.135C24.0436 116.134 24.0908 116.115 24.1281 116.083C25.4956 114.621 26.8806 114.259 28.2466 115.792C26.2389 116.35 23.4308 117.15 21.4467 117.793C21.6099 117.601 45.691 85.9984 45.704 85.9104C46.7693 84.4843 48.8605 81.9592 50.6483 81.8544C51.4575 81.7992 52.2703 81.8288 53.0733 81.9426C51.5505 83.7869 39.1877 98.7848 38.8269 101.107C38.4368 103.748 38.9558 103.402 40.3034 104.024C41.651 104.645 120.549 115.801 120.69 115.822C122.055 116.024 127.417 116.635 127.963 116.347C129.661 115.446 129.566 113.714 129.158 111.846C129.062 111.4 128.52 109.529 127.792 107.029C132.619 106.32 135.836 108.603 135.039 116.196C134.392 122.766 131.527 124.377 126.647 123.368C122.728 122.555 120.17 120.99 119.08 122.404C117.858 123.977 119.965 128.229 120.89 130.003C120.723 129.978 113.376 128.741 111.53 128.387C108.927 127.899 106.301 127.544 103.662 127.324C101.855 127.098 100.029 127.079 98.2183 127.267C97.5099 127.495 96.4049 129.068 95.9386 129.728C95.0187 131.023 90.4723 139.33 89.1998 141.733C88.4557 143.117 85.9533 147.695 87.0246 148.726C86.8415 149.662 86.8052 150.943 87.5678 151.505C88.3305 152.068 99.6591 154.064 100.528 154.211C102.062 154.482 117.608 156.985 127.613 158.012C137.618 159.04 142.099 158.73 141.84 158.719C142.104 158.682 142.352 158.572 142.556 158.402C142.761 158.232 142.914 158.009 142.999 157.756C143.231 157.126 143.288 156.444 143.164 155.784C144.592 153.79 138.846 134.643 136.707 133.041C136.582 132.943 136.434 132.878 136.277 132.851C135.81 132.782 125.433 130.8 121.393 130.068C120.696 128.697 118.525 123.599 119.773 122.767C121.661 121.552 134.552 130.941 135.957 116.25C136.544 109.598 134.077 105.285 127.583 106.611C127.218 105.369 124.132 95.0716 123.304 92.3314C127.936 93.301 132.639 93.8902 137.367 94.093C137.312 94.9246 137.431 95.7585 137.714 96.5421C137.998 97.3257 138.441 98.042 139.016 98.6458C142.147 101.807 156.223 103.481 159.244 100.625C160.101 99.7555 160.759 98.71 161.173 97.5611C161.586 96.4122 161.745 95.1872 161.639 93.9707C161.896 93.8563 162.109 93.6645 162.251 93.4223C162.432 93.1702 162.342 92.806 161.753 92.593C160.986 92.3599 160.201 92.1957 159.405 92.1024C159.512 91.3805 159.755 90.0399 159.937 88.5014C160.024 88.4603 160.698 87.858 160.771 87.7879C161.594 87.0715 162.286 86.218 162.817 85.2651C163.228 84.4892 163.482 83.564 162.784 82.993C161.699 82.1761 160.697 83.2337 160.106 84.4958C160.036 82.4074 159.623 79.2965 157.536 79.2943C153.989 79.3103 155.142 88.0722 155.778 91.5668C154.808 91.2812 153.804 91.1329 152.793 91.126C154.302 88.5239 155.393 85.0325 152.646 84.0781C152.232 83.9201 151.78 83.887 151.347 83.9829C150.914 84.0789 150.518 84.2996 150.209 84.6179C150.182 84.4103 150.103 84.2129 149.979 84.0444C149.855 83.8758 149.69 83.7415 149.499 83.6541C149.309 83.5666 149.1 83.5289 148.891 83.5445C148.682 83.56 148.481 83.6283 148.305 83.743C146.873 84.4851 147.297 86.7338 148.699 87.6605C148.486 88.554 148.351 89.4643 148.297 90.3811C147.376 90.1295 146.425 90.0101 145.47 90.0267C145.736 87.8692 145.816 85.693 145.711 83.5218C146.302 83.2202 146.824 82.7989 147.244 82.2847C147.664 81.7706 147.972 81.1748 148.149 80.5351C148.446 79.3824 148.176 78.3439 147.236 77.9443C146.059 77.4466 145.211 78.194 144.819 79.3867C143.957 77.73 141.915 76.8796 140.631 78.4443C137.837 74.523 135.959 76.2071 136.572 77.845C137.026 79.0995 138.558 79.9915 139.773 80.5397C139.482 82.512 140.116 84.306 140.957 86.1665C141.519 87.419 142.175 88.6405 142.69 89.5441C141.326 89.2978 139.942 89.1838 138.557 89.2037C137.696 89.3016 137.476 89.8808 138.178 90.4253C137.784 91.4216 137.538 92.4705 137.449 93.5384C132.756 92.5883 127.998 91.9999 123.215 91.7784C123.011 91.0915 122.398 89.0848 122.325 88.8491C122.252 88.6134 123.474 86.1849 128.168 62.6234C133.695 62.9716 158.161 67.1423 160.544 66.6035C160.68 66.5762 160.806 66.5132 160.91 66.421C161.013 66.3288 161.091 66.2108 161.134 66.0789C162.245 63.7329 165.873 42.6951 164.904 40.5458C164.668 40.016 163.589 39.7038 162.995 39.5261C155.319 37.223 122.511 32.8822 120.698 33.5231C118.885 34.164 118.316 42.9506 118.378 44.7231C101.457 41.6667 62.0406 36.9347 58.1386 37.7709C57.2113 37.9579 56.7074 39.116 56.3974 39.9969C53.8217 47.3265 54.3388 72.2153 54.6046 79.9195C54.5165 79.9065 54.6046 79.9195 53.2834 81.4338C52.3842 81.2322 51.4631 81.1445 50.542 81.1729C48.4891 81.1846 46.2306 83.685 44.9544 85.2599C44.8974 85.3415 41.663 89.2721 41.1716 89.9193C39.0124 89.2496 28.718 87.8644 27.4045 87.7424C26.091 87.6204 24.7384 87.5196 23.5456 87.4335C23.3343 87.4023 23.2569 87.8047 23.4845 87.8473C25.9277 88.361 26.8268 88.5477 28.7334 88.8563C33.3982 89.6171 40.2636 90.8288 40.4876 90.8349C39.9115 91.5685 31.3508 102.63 30.1917 104.204C25.1551 111.017 21.0561 117.33 20.7867 117.875C19.6945 118.189 18.6459 118.639 17.6652 119.213C17.2679 119.947 16.9789 120.735 16.8071 121.552C16.5538 122.963 17.0138 123.382 17.6803 124.29C14.9125 128.484 12.4942 132.9 10.4501 137.491C9.72749 139.363 9.41294 141.369 9.52745 143.373C9.59984 145.37 9.9952 147.343 10.6982 149.214C11.0641 149.714 11.5792 150.086 12.1696 150.277C14.389 151.27 21.4411 153.166 23.8045 153.794C23.4644 154.843 23.2526 155.929 23.1737 157.03C23.0106 158.151 23.009 159.29 23.1691 160.412C23.1681 160.439 23.1724 160.466 23.1818 160.491C23.1912 160.516 23.2055 160.54 23.2238 160.559C23.2422 160.579 23.2643 160.595 23.2889 160.607C23.3134 160.618 23.34 160.624 23.367 160.625C23.394 160.626 23.421 160.622 23.4463 160.613C23.4717 160.603 23.495 160.589 23.5148 160.571C23.5346 160.552 23.5507 160.53 23.562 160.505C23.5733 160.481 23.5796 160.454 23.5807 160.427C23.8836 159.351 24.0856 158.248 24.184 157.134C24.3352 156.069 24.3707 154.992 24.2897 153.92C25.4892 154.205 26.6471 154.466 27.6633 154.652C27.3491 155.655 27.1508 156.691 27.0723 157.74C26.9097 158.862 26.9082 160 27.0677 161.122C27.0597 161.176 27.0734 161.231 27.1058 161.274C27.1382 161.318 27.1865 161.347 27.2403 161.355C27.294 161.363 27.3486 161.349 27.3922 161.316C27.4358 161.284 27.4647 161.236 27.4727 161.182C27.7803 160.106 27.9852 159.004 28.0848 157.89C28.2306 156.861 28.2637 155.819 28.1837 154.783C30.1407 155.116 58.6536 161.981 108.703 168.364C122.116 170.075 138.284 171.832 151.741 172.335C151.409 173.371 151.2 174.442 151.117 175.527C150.956 176.646 150.958 177.782 151.122 178.901C151.112 178.93 151.107 178.96 151.11 178.991C151.113 179.021 151.122 179.05 151.138 179.077C151.153 179.103 151.175 179.125 151.2 179.142C151.225 179.159 151.254 179.17 151.284 179.175C151.314 179.179 151.345 179.177 151.374 179.168C151.403 179.159 151.43 179.144 151.453 179.123C151.475 179.103 151.493 179.077 151.504 179.049C151.515 179.021 151.52 178.99 151.518 178.96C151.834 177.886 152.039 176.783 152.13 175.667C152.281 174.578 152.315 173.476 152.229 172.38C153.222 172.419 155.526 172.471 155.724 172.473C155.395 173.504 155.189 174.57 155.111 175.649C154.946 176.77 154.945 177.909 155.106 179.031C155.104 179.085 155.124 179.138 155.161 179.179C155.198 179.219 155.25 179.242 155.304 179.244C155.359 179.246 155.412 179.227 155.452 179.19C155.492 179.153 155.516 179.101 155.518 179.046C155.824 177.974 156.026 176.874 156.12 175.762C156.275 174.676 156.307 173.576 156.217 172.483C160.267 172.533 172.651 172.688 174.806 169.543C177.332 165.966 177.916 160.915 177.725 156.605ZM99.6966 130.598C99.8286 130.375 102.873 130.167 105.965 131.524C105.996 131.522 106.026 131.527 106.055 131.538C106.083 131.55 106.108 131.567 106.129 131.59C106.15 131.612 106.165 131.639 106.174 131.668C106.183 131.697 106.185 131.728 106.181 131.758C106.176 131.788 106.165 131.817 106.148 131.842C106.131 131.868 106.109 131.889 106.082 131.904C106.056 131.92 106.027 131.929 105.996 131.932C105.966 131.935 105.936 131.931 105.907 131.92C104.26 131.968 102.616 131.768 101.029 131.326C100.29 131.091 99.3313 130.94 99.6702 130.594L99.6966 130.598ZM141.869 158.219C133.496 158.566 88.5568 151.57 87.9257 151.153C87.2946 150.736 87.3837 149.706 87.4649 149.034C92.1086 151.339 139.948 157.153 142.805 156.144C142.832 156.94 142.683 158.187 141.843 158.215L141.869 158.219ZM127.857 134.855C127.901 134.556 129.863 134.675 129.952 134.679C131.117 134.76 132.274 134.931 133.412 135.19C134.045 135.355 134.921 135.575 134.81 135.837C134.699 136.1 133.353 136.018 133.119 136.019C132.247 135.972 131.377 135.879 130.515 135.743C129.936 135.639 127.742 135.207 127.83 134.851L127.857 134.855ZM138.738 139.458C140.321 143.98 141.524 148.627 142.336 153.349C142.44 153.946 142.456 154.554 142.384 155.156C138.231 155.802 92.2784 150.312 87.8435 148.298C87.6325 148.204 87.5617 148.257 87.5635 147.879C87.5826 145.435 92.9061 136.496 94.1406 134.411C110.881 136.316 138.547 139.529 138.711 139.454L138.738 139.458ZM139.919 80.1565C139.035 79.4854 138.261 78.679 137.627 77.7669C137.361 77.1967 137.493 76.8474 138.433 77.49C139.024 77.8741 139.837 78.5249 140.382 78.9743C140.17 79.3434 140.014 79.7418 139.919 80.1565ZM160.818 84.8529C161.709 83.689 162.458 83.4308 162.277 84.1688C161.701 85.4521 160.973 86.6615 160.108 87.7709C160.185 86.8826 160.211 86.2836 160.226 85.6921C160.279 85.5741 160.51 85.2303 160.791 84.849L160.818 84.8529ZM155.945 91.9603C156.047 92.4881 156.117 92.8044 156.123 92.8233C156.129 92.8497 156.14 92.8746 156.156 92.8966C156.172 92.9186 156.192 92.9373 156.215 92.9516C156.238 92.9659 156.263 92.9754 156.29 92.9798C156.317 92.9841 156.344 92.983 156.37 92.9767C156.78 92.8843 156.261 92.4388 156.129 86.9944C156.09 85.3693 156.002 80.3632 157.638 80.3709C158.97 80.3696 159.197 83.7049 159.255 85.018C159.348 87.5462 159.275 90.078 159.035 92.5966C159.028 92.6453 159.038 92.6951 159.064 92.737C159.09 92.7789 159.13 92.81 159.177 92.8246C159.224 92.8392 159.275 92.8364 159.32 92.8166C159.365 92.7967 159.401 92.7613 159.422 92.7167C159.433 92.6673 159.44 92.6173 159.445 92.5671C160.237 92.708 161.012 92.9341 161.756 93.2413C161.641 93.3415 161.504 93.4137 161.356 93.4521C159.367 94.13 153.803 93.1195 151.88 92.7995C152.222 92.3103 152.467 91.9325 152.741 91.4782C153.768 91.8065 154.84 91.968 155.918 91.9564L155.945 91.9603ZM149.362 89.018C149.824 87.287 150.688 84.5446 152.417 85.1418C154.146 85.739 153.316 88.2524 152.674 89.9209C152.289 90.8756 151.851 91.8081 151.362 92.714L148.721 92.324C148.863 91.21 149.069 90.105 149.335 89.0141L149.362 89.018ZM148.855 84.7147C148.901 84.6818 148.954 84.6589 149.011 84.6477C149.067 84.6365 149.124 84.6372 149.18 84.6496C149.236 84.6621 149.288 84.6861 149.334 84.7201C149.38 84.7542 149.419 84.7974 149.447 84.8472C149.566 85.0083 149.671 85.1803 149.758 85.3609C149.425 85.8854 149.163 86.4517 148.978 87.0451C148.614 86.3436 148.195 85.1031 148.855 84.7147ZM146.872 78.952C147.963 79.482 146.62 82.3606 145.719 83.1631C145.647 82.1842 145.467 81.2163 145.183 80.277C145.552 79.5399 146.133 78.5911 146.873 78.9432L146.872 78.952ZM143.005 90.1485C143.356 90.7581 143.588 91.1343 143.588 91.1343C143.618 91.174 143.662 91.2014 143.71 91.2116C143.759 91.2217 143.809 91.2138 143.853 91.1894C143.896 91.1649 143.929 91.1256 143.945 91.0787C143.962 91.0318 143.96 90.9806 143.942 90.9345C143.942 90.9345 142.711 88.4857 141.765 85.9979C141.056 84.094 140.392 82.1965 140.935 80.2884C141.363 78.7864 142.27 78.2544 143.503 79.3452C145.288 80.9043 145.031 88.8553 144.965 91.2566C144.958 91.3187 144.971 91.3813 145.002 91.4357C145.033 91.4902 145.079 91.5339 145.136 91.5607C145.374 91.5958 145.376 91.3353 145.385 91.2107C145.395 91.0861 145.495 90.4711 145.504 90.4095C146.422 90.6659 147.368 90.8057 148.321 90.8255C148.279 91.4761 148.267 91.987 148.272 92.2577C145.146 91.7961 141.338 91.4497 138.899 90.0549C140.268 89.9881 141.64 90.0194 143.005 90.1485ZM138.597 90.82C139.811 91.5093 141.124 92.0067 142.49 92.2946C144.028 92.6656 154.635 94.2499 155.85 94.3664C157.673 94.6051 159.524 94.5347 161.324 94.158C161.328 95.2634 161.103 96.3576 160.664 97.3719C160.225 98.3862 159.58 99.2986 158.771 100.052C156.261 102.245 142.644 100.819 139.733 98.0501C137.811 96.2638 137.858 93.2659 138.598 90.8112L138.597 90.82ZM127.683 115.622C127.781 116.239 43.8258 103.869 43.7391 103.847C40.2173 103.327 41.0977 103.457 39.9608 102.992C39.6543 102.875 39.5927 102.866 39.5765 102.549C39.5732 102.054 39.6249 101.561 39.7307 101.078C39.7438 101.117 39.7694 101.15 39.8034 101.173C39.8374 101.196 39.878 101.207 39.9189 101.205C39.9189 101.205 128.044 112.995 128.619 113.061C128.705 114.127 128.598 115.092 127.683 115.622ZM160.341 65.8448C160.341 65.8448 160.407 65.7646 160.42 65.7936C160.434 65.8226 160.342 65.836 160.297 65.8383L160.341 65.8448ZM119.835 37.1742C119.919 36.6019 120.468 34.4698 121.018 34.2811C122.266 33.8716 159.274 38.8326 164.086 41.1536C164.693 43.1326 161.344 63.8609 160.297 65.8383C155.865 65.8766 134.073 62.6046 128.317 62.3484C129.683 55.47 130.695 49.6547 130.581 48.4773C130.548 48.3211 130.48 48.1746 130.382 48.0493C130.283 47.9239 130.157 47.8231 130.013 47.7547C128.208 46.6335 120.988 45.3245 118.886 44.942C118.991 42.3313 119.308 39.7335 119.835 37.1742ZM55.6778 50.3535C55.8188 48.4851 56.5454 39.0561 58.4025 38.6646C59.3284 38.4864 62.4731 38.6359 67.0113 39.0362C75.7102 39.7719 89.3593 41.3466 101.734 43.084C104.481 43.4896 127.719 46.7143 129.761 48.6081C129.98 51.7533 122.843 85.2819 121.885 88.4782C100.98 86.0839 76.1765 83.4649 55.2707 79.856C55.2163 77.7877 54.8194 61.8323 55.6778 50.3535ZM54.9107 80.4056C54.9154 80.3853 54.9184 80.3647 54.9198 80.3439C69.6878 82.9925 116.339 88.325 121.997 89.1244C122.407 90.6695 128.309 111.441 128.519 112.579C128.422 112.565 39.9187 100.719 39.7912 100.79C41.4493 97.2385 52.943 82.8859 54.9107 80.4056ZM70.4034 142.97C69.5646 144.142 48.5221 150.049 44.2825 150.673C44.4212 150.279 44.5119 149.87 44.5526 149.454C50.8553 148.261 64.6784 144.698 71.0891 141.677C70.9079 142.134 70.6775 142.571 70.4021 142.979L70.4034 142.97ZM71.2982 141.114C69.3839 141.893 67.5956 142.366 44.614 148.977C44.6737 148.578 44.679 148.174 44.6297 147.774C47.6422 146.869 67.8414 142.286 71.6843 139.839C71.5844 140.212 71.4552 140.66 71.2969 141.123L71.2982 141.114ZM28.614 116.35C28.9637 116.911 29.1349 117.565 29.1048 118.226C29.0747 118.887 28.8448 119.523 28.4455 120.05C28.2722 120.249 28.5729 120.527 28.7476 120.319C29.3647 119.818 29.789 119.119 29.9483 118.34C30.1076 117.562 29.9919 116.752 29.6211 116.049C34.19 114.717 38.6716 113.49 39.8991 113.158C40.1011 113.787 40.1606 114.453 40.0733 115.108C39.9859 115.762 39.754 116.389 39.3942 116.943C39.2469 117.209 39.5483 117.362 39.7253 117.199C40.3004 116.655 40.7109 115.961 40.9099 115.195C41.1089 114.429 41.0884 113.622 40.8508 112.867C41.881 112.47 44.2804 111.574 45.3634 111.734C46.7193 111.934 70.9285 138.378 71.3637 138.964C68.716 140.993 46.1358 146.287 44.2123 146.884C40.5563 145.445 20.3877 122.161 18.5234 119.799C20.0356 118.88 26.9956 116.831 28.614 116.35ZM17.7945 120.105C20.1449 123.196 40.1092 146.584 43.8543 147.785C43.7283 148.106 43.6426 148.44 43.5992 148.782C37.8807 144.861 22.5235 127.011 17.419 121.246C17.4454 121.25 17.7049 120.407 17.8209 120.109L17.7945 120.105ZM17.4806 123.145C17.2881 122.73 17.2308 122.265 17.3169 121.816C22.217 128.477 36.36 145.167 43.5189 149.265C43.4337 149.734 43.4115 150.211 43.453 150.686C39.0858 149.006 17.9727 123.955 17.507 123.149L17.4806 123.145ZM174.418 169.188C167.063 179.636 13.1557 153.895 11.3053 149.123C10.5174 147.124 10.0997 144.999 10.0724 142.851C10.3022 143.645 10.7785 144.345 11.4324 144.851C23.2784 154.31 152.512 171.378 170.239 167.816C173.995 167.057 176.201 164.548 177.176 160.743C176.977 163.746 176.022 166.65 174.4 169.186L174.418 169.188Z" fill="#1D1C1F"/>
<path d="M51.4214 89.8402C113.548 99.914 119.571 100.254 121.354 100.239C121.777 100.238 122.062 100.137 122.116 99.6497C122.304 98.3731 120.175 92.076 119.443 91.554C119.118 91.3171 55.9462 82.8974 55.7157 82.9353C55.6733 82.9391 55.6321 82.9519 55.5949 82.9728C55.5577 82.9936 55.5253 83.0221 55.4999 83.0564C54.7569 83.9453 51.1213 88.3385 51.0922 89.4498C51.093 89.543 51.1264 89.633 51.1865 89.7043C51.2466 89.7756 51.3296 89.8236 51.4214 89.8402ZM55.8814 83.5805C56.527 83.5949 118.637 92.1368 119.01 92.2279C119.528 93.2705 119.97 94.349 120.333 95.455C118.889 95.2418 54.3014 86.0552 53.9655 86.0146C54.4673 85.297 55.108 84.4919 55.8814 83.5805ZM53.6654 86.4021C54.0088 86.4528 119.361 95.7613 120.483 95.9C120.904 97.0644 121.193 98.2718 121.346 99.5001C118.138 99.5391 89.6123 95.0749 51.8345 89.2355C52.3453 88.2213 52.9544 87.2596 53.653 86.3643L53.6654 86.4021ZM99.5715 100.009C99.4532 99.5946 99.2147 99.2242 98.886 98.9451C98.5573 98.666 98.1532 98.4906 97.7249 98.4411C95.4885 98.1108 76.7852 94.8182 74.9933 95.2553C73.721 96.4036 72.6657 97.7714 71.878 99.2935C71.7679 99.6731 71.9356 99.8778 72.1694 99.9393C77.3677 101.292 94.7992 104.424 99.4659 104.258C100.045 104.236 100.204 103.647 100.174 103.058C100.047 102.029 99.846 101.01 99.5715 100.009ZM72.5031 99.3858C73.2198 98.0318 74.1068 96.7751 75.1425 95.6462C76.5458 95.4036 93.8171 98.8896 97.6044 99.4399C97.831 99.4651 98.0454 99.5552 98.222 99.6994C98.3987 99.8436 98.5299 100.036 98.5999 100.253C98.8928 101.23 99.085 102.235 99.1736 103.252C94.607 103.289 75.7093 100.093 72.5031 99.3858ZM160.552 110.166C159.563 108.274 153.327 107.434 151.231 107.188C149.47 106.928 143.026 106.273 142.771 107.999C142.758 108.14 142.779 108.282 142.831 108.413C142.884 108.544 142.967 108.661 143.074 108.754C143.222 108.911 140.355 120.345 141.02 126.804C141.235 128.941 141.754 130.061 143.591 131.205C147.118 133.399 153.422 133.961 156.448 130.836C157.1 129.889 157.434 126.898 157.612 125.997C161.398 127.348 164.828 126.235 166.276 122.158C167.194 119.531 166.787 117.663 165.792 116.418C165.114 115.677 164.267 115.111 163.323 114.768C162.379 114.425 161.366 114.315 160.37 114.448C160.335 114.454 160.299 114.452 160.265 114.442C160.231 114.431 160.2 114.413 160.175 114.388C160.149 114.363 160.13 114.332 160.119 114.299C160.108 114.265 160.105 114.229 160.111 114.194C160.18 113.727 160.814 110.591 160.552 110.166ZM143.797 107.88C146.379 106.84 156.08 108.165 158.996 110.044C159.094 110.112 159.46 110.373 159.447 110.461C159.434 110.549 158.998 110.701 158.895 110.731C156.378 111.447 147.88 110.688 143.691 108.414C143.407 108.201 143.765 107.912 143.77 107.876L143.797 107.88ZM160.484 115.383C161.318 115.27 162.167 115.362 162.958 115.649C163.749 115.937 164.459 116.412 165.026 117.034C165.847 118.055 166.099 119.639 165.327 121.819C165.124 122.587 164.743 123.296 164.215 123.889C163.687 124.481 163.026 124.941 162.286 125.23C160.746 125.667 159.102 125.551 157.638 124.904C157.568 124.865 157.489 124.842 157.409 124.835C157.329 124.828 157.248 124.838 157.171 124.864C157.095 124.89 157.025 124.931 156.965 124.985C156.905 125.04 156.857 125.106 156.824 125.179C156.488 125.813 156.423 128.566 155.687 130.202C153.013 132.893 147.276 132.325 144.113 130.409C142.513 129.426 142.15 128.599 141.961 126.709C141.419 122.212 142.649 113.397 143.553 109.104C146.133 110.825 155.682 112.622 159.746 111.243C159.343 113.972 158.94 114.381 159.545 115.037C159.663 115.157 159.806 115.249 159.964 115.308C160.121 115.367 160.29 115.391 160.457 115.379L160.484 115.383ZM72.2017 121.41C70.179 119.107 67.9492 116.995 65.5404 115.1C64.615 114.352 63.6081 113.712 62.5387 113.19C61.633 112.805 61.1653 113.231 61.2641 113.902C61.5247 114.883 61.9219 115.823 62.4441 116.694C64.0913 119.558 66.08 122.211 68.3667 124.595C71.8085 128.459 76.3099 133.19 79.6081 136.565C79.7769 136.731 79.9773 136.862 80.1974 136.95C80.4176 137.038 80.653 137.081 80.89 137.076C81.1269 137.072 81.3606 137.02 81.5773 136.924C81.7941 136.828 81.9894 136.69 82.152 136.518C82.9089 135.901 83.4985 134.71 82.8678 133.925C82.1344 133.043 77.6851 127.41 72.2017 121.41ZM64.0556 118.21L63.1367 116.086C63.5925 115.971 64.0011 115.717 64.3057 115.359L66.1018 116.416C65.6084 116.44 65.1376 116.63 64.7662 116.956C64.3947 117.282 64.1442 117.724 64.0556 118.21ZM66.4271 120.854C65.8699 120.224 65.3677 119.548 64.9262 118.833C65.1451 117.777 65.5499 117.351 66.6205 117.473C67.2802 117.917 67.889 118.432 68.4358 119.009C67.9453 119.055 67.4832 119.26 67.1204 119.593C66.7576 119.926 66.514 120.369 66.4271 120.854ZM79.5911 135.888C78.7347 134.925 67.367 121.982 66.6698 121.16C66.8098 120.677 67.0932 120.248 67.4824 119.929C67.8716 119.611 68.3483 119.418 68.8494 119.376C71.5541 122.079 75.3699 126.457 82.0497 133.921C81.7555 133.862 81.452 133.868 81.1604 133.939C80.8688 134.01 80.5964 134.144 80.3621 134.331C80.1278 134.519 79.9373 134.755 79.8041 135.024C79.671 135.293 79.5982 135.588 79.5911 135.888ZM147.918 155.945C148.908 156.856 149.724 156.626 150.591 155.692C152.721 153.452 160.519 143.295 160.532 143.207C160.545 143.119 160.59 143.296 160.825 139.696C160.832 139.561 160.803 139.426 160.74 139.306C160.677 139.185 160.583 139.084 160.467 139.013C160.352 138.941 160.219 138.903 160.083 138.9C159.947 138.898 159.813 138.932 159.695 138.999L156.361 140.747C156.361 140.747 147.638 153.574 147.549 153.687C147.371 154.056 147.311 154.47 147.377 154.874C147.443 155.278 147.632 155.652 147.918 155.945ZM159.783 140.109C159.741 140.76 159.686 141.624 159.651 142.222C159.044 141.813 158.395 141.467 157.717 141.19L159.783 140.109ZM156.977 141.692C157.66 142.346 158.49 142.826 159.397 143.093C159.231 143.303 150.692 154.583 150.603 154.696C150.46 154.249 150.174 153.863 149.789 153.596C149.403 153.33 148.941 153.197 148.473 153.221C149.348 152.045 156.665 142.096 156.977 141.692Z" fill="#1D1C1F"/>
<path d="M155.505 123.635C155.429 123.487 155.325 123.357 155.199 123.25C155.073 123.143 154.926 123.063 154.769 123.013C154.268 122.797 153.755 122.613 153.231 122.462C153.221 124.602 153.056 126.935 153.017 127.136C152.984 127.268 152.9 127.382 152.784 127.452C152.667 127.522 152.527 127.544 152.395 127.512C152.263 127.476 152.149 127.39 152.079 127.273C152.009 127.155 151.988 127.014 152.02 126.881C152.043 126.731 152.079 126.116 152.601 122.279C150.873 121.799 142.491 119.887 142.576 121.627C142.563 121.715 141.231 125.926 143.619 128.393C146.008 130.86 151.456 131.251 153.651 129.425C154.28 128.863 154.747 128.143 155.003 127.339C155.391 126.145 155.562 124.89 155.505 123.635ZM158.794 115.979C158.736 116.375 157.76 119.326 156.807 123.341L157.217 123.492C158.718 124.049 160.357 124.112 161.896 123.67C162.44 123.465 162.917 123.114 163.275 122.656C163.633 122.198 163.858 121.65 163.926 121.073C164.091 120.367 164.073 119.63 163.873 118.934C163.673 118.237 163.298 117.603 162.783 117.092C162.269 116.581 161.632 116.211 160.934 116.016C160.235 115.821 159.499 115.808 158.794 115.979ZM159.146 116.336C159.721 116.33 160.291 116.448 160.817 116.681C161.343 116.914 161.813 117.256 162.195 117.686C162.557 118.132 162.811 118.656 162.937 119.216C163.063 119.776 163.059 120.358 162.923 120.916C162.51 123.167 160.122 123.255 157.928 122.697C158.27 121.11 158.63 119.283 159.146 116.336ZM157.348 63.2615C157.323 63.4179 157.329 63.5779 157.365 63.7322C157.402 63.8864 157.469 64.0319 157.562 64.1602C157.655 64.2886 157.773 64.3972 157.908 64.4799C158.043 64.5625 158.194 64.6176 158.35 64.6419C158.589 64.6825 158.835 64.6511 159.055 64.5516C159.276 64.4521 159.463 64.289 159.59 64.0832C159.718 63.8774 159.782 63.6381 159.773 63.396C159.764 63.1539 159.684 62.9199 159.542 62.7238C159.399 62.5277 159.202 62.3784 158.974 62.295C158.747 62.2117 158.5 62.1979 158.264 62.2556C158.029 62.3133 157.816 62.4398 157.653 62.619C157.49 62.7981 157.384 63.0218 157.348 63.2615ZM56.6938 78.0776C56.8378 78.5037 57.0955 78.5867 57.2809 78.4881C57.4664 78.3896 113.297 86.1391 117.476 86.5313C118.366 86.6768 119.272 86.6954 120.167 86.5868C122.408 85.1184 128.044 52.3127 127.494 50.6752C126.097 46.4294 63.7199 39.8183 59.7372 40.4088C56.5645 40.8759 55.7087 75.0622 56.6938 78.0776ZM59.3593 41.8104C59.3827 41.6519 59.6675 41.0642 59.8236 41.0423C64.2282 40.3972 125.772 47.353 126.947 50.9092C126.991 51.5925 126.956 52.2787 126.843 52.954C126.426 56.8149 125.062 65.0162 123.577 72.3271C123.29 73.7241 120.96 85.1746 119.89 86.0871C116.122 86.3223 59.7909 78.184 57.2761 77.9116C56.3386 74.3905 57.1718 47.425 59.3593 41.8104ZM161.51 44.0386C161.748 44.0792 161.993 44.0479 162.214 43.9487C162.434 43.8496 162.621 43.687 162.749 43.4818C162.877 43.2765 162.941 43.0378 162.933 42.796C162.925 42.5543 162.845 42.3204 162.703 42.1241C162.562 41.9278 162.366 41.7779 162.139 41.6937C161.912 41.6094 161.665 41.5945 161.43 41.6508C161.195 41.7071 160.982 41.8321 160.818 42.0099C160.654 42.1877 160.546 42.4103 160.509 42.6494C160.482 42.8064 160.487 42.9672 160.523 43.1224C160.559 43.2776 160.625 43.4241 160.719 43.5534C160.812 43.6827 160.93 43.7921 161.065 43.8754C161.201 43.9587 161.352 44.0142 161.51 44.0386Z" fill="#1D1C1F"/>
<path d="M73.3136 66.5419L83.7734 68.0864C84.9845 68.2605 86.2152 67.947 87.1953 67.2146C88.1755 66.4823 88.825 65.391 89.0014 64.1803L90.2547 55.6927C90.434 54.4797 90.1283 53.245 89.4039 52.2557C88.6794 51.2664 87.5946 50.6023 86.3841 50.407L75.9243 48.8624C75.3181 48.7705 74.6998 48.7995 74.1049 48.9477C73.51 49.0959 72.9503 49.3604 72.4581 49.726C71.9659 50.0915 71.5509 50.5509 71.237 51.0776C70.9232 51.6042 70.7167 52.1878 70.6295 52.7947L69.3761 61.2822C69.2893 61.8861 69.3223 62.5012 69.4732 63.0924C69.6241 63.6835 69.8899 64.2391 70.2556 64.7276C70.6212 65.216 71.0794 65.6276 71.6042 65.9389C72.1289 66.2502 72.7097 66.4551 73.3136 66.5419ZM71.3778 52.9052C71.5442 51.8899 72.1008 50.9798 72.9288 50.3693C73.7569 49.7587 74.7908 49.496 75.8099 49.6372L86.2697 51.1818C86.7845 51.2518 87.2804 51.4232 87.7287 51.686C88.1769 51.9488 88.5687 52.2978 88.8813 52.7129C89.1939 53.1279 89.4212 53.6008 89.55 54.1042C89.6789 54.6076 89.7067 55.1315 89.6319 55.6457L88.3851 64.0892C88.3068 64.6034 88.128 65.0972 87.8589 65.5422C87.5898 65.9873 87.2357 66.375 86.8168 66.6833C86.3978 66.9915 85.9223 67.2142 85.4173 67.3386C84.9123 67.463 84.3877 67.4868 83.8735 67.4085L73.4137 65.8639C72.9042 65.7863 72.4149 65.6091 71.9738 65.3424C71.5328 65.0757 71.1485 64.7248 70.8431 64.3096C70.5377 63.8944 70.317 63.4231 70.1937 62.9226C70.0704 62.4222 70.0469 61.9023 70.1245 61.3928L71.3778 52.9052ZM100.665 77.0043C100.765 77.5498 101.222 77.5004 101.393 77.1928C101.63 76.7509 103.102 73.5407 103.311 72.9778C104.02 72.8666 102.012 73.2448 108.237 71.9689C108.302 71.9542 108.361 71.9202 108.406 71.8715C108.451 71.8228 108.481 71.7615 108.49 71.6958C108.5 71.6301 108.49 71.563 108.46 71.5033C108.431 71.4436 108.385 71.3941 108.327 71.3613L99.8104 66.4061C99.7587 66.3716 99.6988 66.3513 99.6368 66.3471C99.5748 66.3429 99.5128 66.355 99.4569 66.3823C99.401 66.4095 99.3532 66.4509 99.3183 66.5023C99.2834 66.5537 99.2625 66.6134 99.2578 66.6754C99.2578 66.6754 100.388 75.5329 100.665 77.0043ZM100.076 67.408L107.258 71.5363C106.18 71.7641 104.359 72.1608 103.482 72.3731C103.091 72.4594 102.932 72.4989 102.827 72.6004C102.722 72.7019 103.132 72.0606 101.249 75.8579L100.076 67.408ZM124.667 44.6615C124.67 44.7158 124.691 44.7675 124.728 44.8075C124.765 44.8475 124.815 44.8733 124.869 44.8802C125.053 44.9075 130.669 46.2946 131.877 46.158C132.655 46.066 132.982 44.7649 133.167 44.0005C133.428 42.8425 133.764 39.9592 133.415 38.9091C132.941 37.4896 127.937 37.2004 126.464 37.2439C126.075 37.2412 125.691 37.3258 125.339 37.4915C125.12 37.6805 124.972 37.9373 124.916 38.2208C124.593 40.3517 124.509 42.512 124.667 44.6615ZM125.873 38.2631C127.328 38.0371 131.314 38.4549 132.485 39.2395C132.747 40.4478 132.395 44.4172 131.74 45.2562C130.89 45.3466 125.889 44.6081 125.052 44.4934C125.127 43.8027 125.269 40.0362 125.873 38.2631ZM136.488 46.3711C136.492 46.4249 136.514 46.4757 136.551 46.5154C136.587 46.555 136.636 46.5812 136.689 46.5898C136.874 46.6171 142.49 48.0041 143.698 47.8676C144.476 47.7756 144.803 46.4744 144.997 45.7113C145.249 44.552 145.594 41.6701 145.236 40.6187C144.763 39.1904 139.758 38.91 138.285 38.9534C137.896 38.9545 137.513 39.039 137.16 39.2011C136.945 39.393 136.797 39.6485 136.737 39.9304C136.414 42.0613 136.331 44.2216 136.488 46.3711ZM137.694 39.9727C139.15 39.7379 143.135 40.1644 144.306 40.9491C144.568 42.1574 144.216 46.1268 143.563 46.957C142.711 47.0562 137.71 46.3177 136.873 46.203C136.948 45.5123 137.09 41.7458 137.694 39.9727ZM148.792 48.5839C148.795 48.6382 148.816 48.6899 148.853 48.7299C148.89 48.7699 148.94 48.7956 148.994 48.8026C149.179 48.8299 154.795 50.2169 156.002 50.0804C156.781 49.9884 157.108 48.6872 157.293 47.9228C157.554 46.7648 157.889 43.8816 157.541 42.8314C157.066 41.412 152.062 41.1228 150.589 41.1662C150.201 41.1659 149.817 41.2504 149.464 41.4139C149.246 41.6029 149.097 41.8597 149.042 42.1432C148.718 44.274 148.634 46.4344 148.792 48.5839ZM149.998 42.1855C151.453 41.9595 155.439 42.3772 156.61 43.1619C156.873 44.3702 156.52 48.3396 155.866 49.1785C155.016 49.2689 150.015 48.5305 149.177 48.4158C149.252 47.7251 149.394 43.9586 149.998 42.1855ZM134.567 59.9241C134.603 60.1093 134.741 60.1477 134.769 60.1428C134.963 60.1714 140.57 61.5572 141.778 61.4207C142.556 61.3287 142.883 60.0275 143.077 59.2644C143.329 58.1051 143.673 55.2231 143.323 54.1818C142.842 52.7522 137.836 52.4719 136.373 52.5078C135.982 52.5058 135.595 52.5899 135.239 52.7542C135.022 52.9482 134.874 53.207 134.816 53.4923C134.493 55.6202 134.41 57.7776 134.567 59.9241ZM135.782 53.527C137.237 53.301 141.215 53.7175 142.385 54.5021C142.648 55.7104 142.296 59.6799 141.641 60.5188C140.791 60.6092 135.799 59.872 134.961 59.7573C135.027 59.0654 135.17 55.2989 135.782 53.527ZM156.222 55.7177C157.938 53.8479 159.448 52.1545 159.505 52.073C159.562 51.9915 159.036 51.1041 158.574 51.6117C155.268 55.3608 155.696 55.0192 155.513 54.9202C154.046 54.1279 149.017 53.5831 148.125 54.1981C147.524 54.6132 147.463 56.4304 147.411 57.2055C146.894 56.8053 146.497 56.5127 146.347 56.4277C145.966 56.2094 145.934 56.6095 146.133 56.7829L147.377 57.8661C147.317 59.0396 147.326 60.2156 147.405 61.388C147.406 61.4429 147.427 61.4956 147.464 61.536C147.501 61.5764 147.552 61.6016 147.607 61.6067C147.792 61.634 153.408 63.0211 154.615 62.8845C156.192 62.6856 156.546 57.061 156.222 55.7177ZM148.615 54.9632C150.756 54.7978 152.907 55.0757 154.936 55.7796L151.169 60.1446C150.887 59.923 149.384 58.7113 148.125 57.7337C148.203 56.8061 148.365 55.8875 148.611 54.9896L148.615 54.9632ZM154.484 61.9475C153.624 62.0454 148.632 61.3082 147.794 61.1935C147.846 60.8413 147.884 59.6684 148.011 58.3827L151.05 60.9546C151.133 60.9763 151.221 60.974 151.303 60.9479C151.384 60.9217 151.457 60.8729 151.512 60.807C151.848 60.4876 153.569 58.6367 155.327 56.728C155.365 58.3531 155.027 61.254 154.501 61.9501L154.484 61.9475ZM122.258 37.9453C122.496 37.984 122.741 37.9511 122.961 37.8507C123.18 37.7503 123.365 37.5869 123.492 37.3812C123.619 37.1756 123.681 36.937 123.672 36.6956C123.663 36.4543 123.582 36.2211 123.441 36.0256C123.299 35.8301 123.102 35.6812 122.875 35.5977C122.649 35.5141 122.402 35.4998 122.168 35.5565C121.933 35.6132 121.72 35.7383 121.557 35.916C121.393 36.0938 121.286 36.316 121.249 36.5547C121.202 36.8724 121.281 37.1959 121.47 37.4558C121.658 37.7157 121.941 37.8914 122.258 37.9453Z" fill="#1D1C1F"/>
</g>
<defs>
<clipPath id="clip0_14456_9162">
<rect width="178" height="178" fill="white" transform="translate(26.0029) rotate(8.4)"/>
</clipPath>
</defs>
</svg>
