<svg width="194" height="194" viewBox="0 0 194 194" fill="none" xmlns="http://www.w3.org/2000/svg">
<g clip-path="url(#clip0_13641_5034)">
<path d="M132.306 47.9369C133.825 48.718 135.081 49.9286 135.916 51.418C137.048 53.5355 137.911 55.7859 138.486 58.1171C137.944 58.1789 137.409 58.2945 136.89 58.4622C136.828 58.4676 136.49 58.6848 136.445 58.8853C136.246 59.8931 136.118 60.9133 136.059 61.9387L118.337 63.5964C118.133 63.6143 118.18 63.8513 118.358 63.8447C118.358 63.8447 134.57 62.6765 136.113 62.5504C136.005 65.8118 136.644 69.3296 139.131 71.4169C141.472 73.3563 148.822 73.017 151.366 70.7486C153.479 68.8573 153.609 63.9144 153.198 61.0557C153.73 61.0092 165.698 59.7476 166.883 59.5994C166.915 59.5965 166.946 59.5806 166.967 59.5553C166.988 59.53 166.999 59.4973 166.996 59.4644C166.993 59.4315 166.977 59.401 166.952 59.3798C166.926 59.3585 166.894 59.3482 166.861 59.3511C164.839 59.528 153.119 60.464 153.119 60.464C152.647 57.8251 151.977 57.6157 151.966 57.4916C151.952 57.4102 151.912 57.3354 151.852 57.278C151.792 57.2206 151.716 57.1836 151.634 57.1722C150.85 57.089 150.059 57.0774 149.273 57.1376C150.339 55.0341 150.929 49.515 152.561 45.7092C154.978 40.0391 166.308 44.2474 165.712 39.4752C165.033 34.1742 158.867 31.7029 152.775 35.0769C146.987 38.2635 146.504 50.8134 146.964 57.3038C145.147 57.4628 146.029 57.4392 143.418 57.6141C145.431 54.3825 147.446 44.0215 146.323 36.9994C145.333 32.3605 142.974 28.1256 139.55 24.8431C136.552 22.0232 133.238 21.0087 131.041 23.6756C127.805 27.5324 131.415 31.2101 134.798 34.9612C138.52 39.1026 139.963 41.2009 140.967 47.474C141.479 50.8804 141.714 54.3226 141.671 57.7669L140.687 57.853C141.232 55.2949 139.767 49.8929 138.824 47.3757C137.476 43.8217 135.4 40.3047 132.395 38.0214C128.857 35.4694 124.692 33.9282 120.346 33.5632C117.691 33.3488 115.472 33.7127 114.321 34.546C113.894 34.8174 113.584 35.2369 113.448 35.7238C113.313 36.2107 113.362 36.7305 113.587 37.1832C115.48 41.8688 126.233 44.8947 132.306 47.9369ZM153.001 35.6289C158.7 32.4501 164.406 34.7651 165.014 39.572C165.48 43.2568 154.413 39.6061 152 45.526C150.322 49.6217 149.905 55.1793 148.848 57.1837L148.218 57.2388C148.763 53.2512 150.174 44.3635 152.458 41.0636C155.373 36.7972 161.259 38.6229 161.502 38.5392C161.6 38.5306 161.683 38.3625 161.381 38.2817C157.722 37.3064 154.116 37.6487 151.954 40.7146C149.355 44.3906 148.25 52.7958 147.875 57.2956L147.112 57.3623C146.809 51.1351 147.468 38.6591 153.001 35.6289ZM141.419 47.4256C140.516 41.1971 139.163 39.0016 135.246 34.5646C132.036 30.9592 128.637 27.5489 131.53 24.0528C133.501 21.6647 136.435 22.7302 139.124 25.2824C142.424 28.4888 144.689 32.6094 145.627 37.1139C146.831 44.245 144.808 54.8123 142.958 57.6633L142.488 57.7044C143.081 53.5617 143.333 49.3773 143.243 45.1933C143.136 41.629 142.858 39.1697 141.56 36.1742C140.51 33.8989 139.142 31.7838 137.499 29.8915C136.712 28.9562 135.859 28.0784 134.947 27.2649C134.923 27.2409 134.891 27.2272 134.858 27.2268C134.824 27.2263 134.792 27.2393 134.768 27.2627C134.744 27.2861 134.73 27.3181 134.73 27.3517C134.729 27.3852 134.742 27.4176 134.766 27.4416C135.008 27.6542 135.237 27.8818 135.451 28.1232C138.527 31.4276 141.711 36.3665 142.324 40.9228C142.937 45.4791 142.692 53.1928 142.245 57.7882L141.997 57.8099C142.088 54.3385 141.894 50.8655 141.419 47.4256ZM151.443 57.9483C153.023 59.1591 153.34 68.0922 150.863 70.3101C148.386 72.5281 141.438 72.6624 139.399 71.0093C136.189 68.4224 136.024 63.0674 136.689 59.0247C136.759 59.1021 136.851 59.1563 136.953 59.1803C137.648 59.278 138.351 59.3122 139.052 59.2825C138.466 62.576 138.916 65.9703 140.34 68.9973C140.39 69.0829 140.472 69.1451 140.568 69.1703C140.664 69.1954 140.766 69.1813 140.852 69.1312C140.938 69.081 141 68.9989 141.025 68.9029C141.05 68.8068 141.036 68.7048 140.986 68.6191C139.673 66.4826 138.937 61.5439 139.395 59.3151C142.172 59.1972 149.58 58.6027 151.443 57.9483ZM132.053 38.5069C138.53 43.3007 141.103 54.9488 140.424 57.9029L139.874 57.951C139.532 55.4983 138.89 53.097 137.962 50.8013C135.504 44.7625 131.961 41.2309 126.789 38.7888C124.09 37.5434 121.24 36.6545 118.311 36.1445C118.278 36.1391 118.243 36.1474 118.216 36.1674C118.188 36.1874 118.17 36.2175 118.164 36.2512C118.159 36.2848 118.167 36.3192 118.187 36.3467C118.207 36.3743 118.237 36.3928 118.271 36.3982C121.705 37.1652 125.01 38.4226 128.085 40.1316C131.493 41.9933 134.273 44.8211 136.078 48.2591C137.77 51.2897 138.962 54.5731 139.609 57.9831L138.775 58.056C138.234 55.6512 137.394 53.3236 136.275 51.1275C135.413 49.5534 134.111 48.2642 132.529 47.4171C126.352 44.3214 115.908 41.2506 114.173 36.9354C112.566 32.9752 124.71 33.0027 132.053 38.5069ZM59.3815 90.866C47.2126 87.7942 36.4659 86.8851 29.7333 85.8034C29.6497 85.7876 29.5638 85.7889 29.4807 85.8071C29.3976 85.8253 29.3191 85.8601 29.2497 85.9094C29.1804 85.9588 29.1218 86.0216 29.0773 86.0941C29.0329 86.1666 29.0035 86.2474 28.991 86.3315C28.9785 86.4157 28.9831 86.5015 29.0046 86.5838C29.026 86.6661 29.0639 86.7432 29.1159 86.8106C29.1679 86.8779 29.2329 86.934 29.3072 86.9756C29.3814 87.0172 29.4632 87.0434 29.5478 87.0525C33.875 87.7014 40.3787 88.3117 47.4436 89.3106C59.1136 90.9698 59.4309 91.7372 59.569 91.1712C59.5833 91.106 59.5718 91.0377 59.5368 90.9808C59.5018 90.9238 59.4461 90.8827 59.3815 90.866ZM153.591 89.8513C153.589 89.8304 153.583 89.81 153.574 89.7913C153.564 89.7726 153.551 89.7561 153.534 89.7426C153.518 89.729 153.5 89.7188 153.48 89.7125C153.46 89.7062 153.438 89.7039 153.417 89.7057C145.642 90.386 138.234 92.8209 133.987 93.5945C133.935 93.6034 133.886 93.6227 133.841 93.6512C133.797 93.6796 133.759 93.7167 133.73 93.7601C133.7 93.8035 133.68 93.8525 133.669 93.904C133.659 93.9555 133.659 94.0085 133.67 94.06C133.679 94.112 133.698 94.1618 133.727 94.2064C133.755 94.251 133.792 94.2895 133.835 94.3198C133.879 94.3501 133.928 94.3714 133.979 94.3827C134.031 94.394 134.084 94.3949 134.136 94.3855C137.248 93.8006 142.579 92.137 147.611 91.0357C153.201 89.8855 153.635 90.2495 153.591 89.8513ZM128.421 110.645C128.427 110.63 128.43 110.614 128.43 110.597C128.43 110.581 128.427 110.564 128.421 110.549C128.415 110.534 128.405 110.52 128.394 110.508C128.382 110.497 128.368 110.487 128.353 110.481L128.121 110.385L128.091 110.656C128.248 110.714 128.373 110.819 128.421 110.645Z" fill="#1D1C1F"/>
<path d="M182.468 108.151C180.148 107.88 174.535 108.559 172.23 108.966C173.572 102.256 174.803 93.5533 175.19 88.7844C175.365 87.4588 175.374 86.1165 175.216 84.7887C175.176 84.6717 175.113 84.5642 175.029 84.4731C174.946 84.3819 174.844 84.3091 174.731 84.2593C170.99 82.3442 134.26 90.4803 131.783 91.9924C131.045 92.4411 130.522 94.4256 130.288 95.3216C127.661 91.7455 127.822 90.8291 124.738 85.0864C122.801 81.3395 120.452 77.8203 117.736 74.594C117.757 74.1187 118.608 55.5598 115.546 50.8872C113.485 47.7619 103.782 47.4493 100.058 47.4625C100.041 47.2674 99.2868 43.9564 98.9591 42.4573C101.852 39.5776 102.744 34.6662 99.287 34.1557C96.8346 33.7985 87.1896 32.8198 80.2831 35.2645C75.9509 36.8049 72.6309 39.7041 72.7778 44.8551C72.829 46.8114 73.119 48.7542 73.6413 50.6402C69.1017 51.5466 61.2768 52.9906 57.3842 54.8589C52.3771 57.2624 56.54 79.7246 57.2503 81.5118C57.014 82.2829 56.7962 83.0614 56.6004 83.7843C43.4124 81.6236 13.9986 78.0146 12.7231 78.2423C12.3879 78.2676 12.0641 78.3753 11.7806 78.556C11.4972 78.7367 11.2628 78.9847 11.0984 79.2779C10.7596 79.3879 10.6781 79.8864 10.644 80.211C10.17 85.0054 14.2391 113.033 14.9409 117.787C15.5613 119.466 29.5506 122.003 31.3665 122.335C31.6592 124.659 33.1421 136.198 33.4475 138.565C32.6639 138.492 31.8846 138.378 31.1127 138.224C29.478 137.715 23.9463 144.131 24.4356 143.597C22.3015 145.857 48.0732 150.419 50.0361 149.675C51.9991 148.932 55.6472 144.78 54.788 142.72C54.5687 142.359 54.2284 142.088 53.8277 141.955C51.8339 141.12 46.6812 140.329 44.5357 140.007C44.3642 135.698 43.7483 128.658 43.3656 124.386C45.9112 124.788 60.3521 126.974 62.9017 126.706C63.085 126.692 63.2614 126.631 63.4132 126.527C64.2188 126.34 65.1585 126.053 65.1654 125.212C65.1436 124.964 65.1583 122.783 65.1346 119.551C71.5939 121.389 79.1589 120.548 80.4585 119.881C80.8065 119.674 81.0897 119.374 81.2761 119.014C81.3451 119.089 81.3701 119.069 81.8463 119.098C83.6443 119.227 86.5047 119.245 88.0277 118.272C90.3204 118.437 96.9182 118.387 97.2143 116.155C97.2507 115.857 97.2874 115.255 97.3133 114.529C103.905 114.31 127.191 112.111 127.28 112.104L126.953 114.589C126.937 114.57 126.917 114.556 126.895 114.547C126.872 114.538 126.847 114.535 126.823 114.538C126.817 114.467 126.818 114.485 126.823 114.538C123.167 114.57 119.516 114.794 115.884 115.209C114.595 115.384 111.195 115.843 111.244 117.107C110.884 118.217 110.922 119.417 111.353 120.501C111.609 121.185 113.358 122.175 114.006 122.539C110.509 122.496 108.499 122.806 107.485 123.27C107.24 123.335 107.018 123.467 106.844 123.651C106.669 123.835 106.549 124.063 106.497 124.311C106.444 124.559 106.462 124.817 106.547 125.056C106.632 125.295 106.782 125.505 106.98 125.664C108.311 127.191 110.833 127.524 111.286 129.638C112.146 133.645 102.244 139.131 98.6253 141.064C100.297 138.417 104.676 130.163 102.055 128.489C99.14 126.627 75.6439 127.753 73.5375 128.491C72.0555 129.014 61.6314 138.226 62.089 141.107C62.396 142.983 73.5256 143.877 75.5958 144.053C77.9263 144.242 94.5343 145.362 96.3843 143.941C96.7852 143.736 97.1408 143.454 97.43 143.109C97.7191 142.765 97.9358 142.365 98.0671 141.935C101.36 140.471 104.496 138.676 107.426 136.578C112.038 133.128 114.441 129.147 109.343 126.422C108.734 126.1 107.056 125.103 107.231 124.445C107.604 122.991 114.503 122.915 114.601 122.906C117.965 124.703 124.336 127.37 128.009 127.987C131.891 128.657 149.453 125.164 153.688 124.248C154.331 125.979 154.945 127.587 155.344 128.571C154.684 128.682 152.801 129.016 152.306 129.48C152.033 129.736 152.076 130.125 152.569 130.35C152.829 133.32 153.243 142.236 154.48 146.166C154.948 147.635 155.393 148.221 156.992 148.626C160.009 149.318 165.619 148.488 168.502 147.441C170.294 146.783 170.499 146.372 170.706 145.372C171.427 141.967 170.517 132.184 170.142 128.714C170.196 128.668 170.237 128.61 170.264 128.545C170.29 128.48 170.3 128.409 170.294 128.339C170.288 128.269 170.266 128.201 170.228 128.142C170.191 128.082 170.14 128.032 170.08 127.996C169.397 127.749 168.675 127.631 167.95 127.646C167.987 126.643 168.166 121.034 168.178 120.05C168.617 119.732 169 119.342 169.31 118.897C169.795 118.191 170.078 117.366 170.129 116.512C170.914 115.273 171.811 110.825 172.104 109.37C176.073 109.193 181.851 108.455 182.398 108.47C182.44 108.479 182.484 108.471 182.521 108.448C182.557 108.425 182.583 108.388 182.592 108.346C182.602 108.303 182.594 108.259 182.57 108.222C182.547 108.186 182.51 108.16 182.468 108.151ZM64.2984 137.769C64.8351 137.061 65.4758 136.317 66.16 135.56C69.0692 132.357 72.8369 129.062 73.6953 128.763C75.7751 128.027 99.2719 127.419 101.803 128.984C102.228 129.251 102.359 129.829 102.341 130.537C102.265 133.348 99.7591 138.196 98.2619 140.587C96.2025 139.105 66.8644 137.893 64.2984 137.769ZM100.229 48.0907C103.644 48.1136 113.235 48.3734 115.125 51.192C117.795 55.1574 117.62 69.4939 117.461 74.216C116.907 73.5945 116.337 73.0099 115.764 72.4794C112.47 69.4442 107.165 68.2377 102.72 67.7778C99.8693 67.5345 97.0075 67.4479 94.1474 67.5182C94.0587 67.526 94.2122 67.6466 93.3861 66.2715C92.1514 64.2086 92.0925 64.2495 92.1934 64.1781C93.3505 64.0145 94.4847 63.7174 95.5734 63.2928C98.4926 62.144 100.12 60.2148 100.585 55.8322C100.819 53.2383 100.686 50.6243 100.191 48.0673L100.229 48.0907ZM94.2601 67.7853C94.8256 67.8163 94.9756 67.7942 95.0222 67.8169C95.0416 68.0386 97.8947 78.2864 91.287 79.347C85.8296 80.28 81.5374 72.883 79.1361 67.9024C79.8353 67.7251 80.3958 67.5957 80.7724 67.5091C81.3123 71.5358 87.77 78.3592 90.9522 77.5626C94.5265 76.6514 95.8261 70.9807 94.2601 67.7853ZM79.5957 52.6298C79.6405 52.2272 79.7853 51.8423 80.0168 51.51C80.2483 51.1777 80.5592 50.9085 80.9212 50.727C82.6564 50.1374 82.8495 52.3451 84.2484 52.0976C86.0115 51.8272 83.6745 47.8863 84.9799 45.2438C86.3959 42.3325 93.6059 47.3391 98.6778 42.7142C99.7427 47.3293 100.779 50.9015 100.194 55.7592C99.6738 60.0216 98.1597 61.7085 95.3866 62.791C94.2406 63.1625 93.0741 63.4674 91.8929 63.7041C91.8024 63.7662 91.7292 63.8502 91.68 63.9482C91.6307 64.0463 91.6071 64.1552 91.6114 64.2648C91.6385 64.5751 92.664 66.0846 93.6506 67.8655C95.1375 70.6657 93.995 76.0903 90.7942 76.8796C88.5208 77.4448 83.5557 72.6707 81.9506 69.1303C81.242 67.5663 81.405 67.4895 81.8553 61.098C83.2736 61.0722 83.3249 58.2893 83.271 56.8556C83.2591 56.5517 83.1281 56.2647 82.9062 56.0567C82.2066 55.4121 81.7549 56.2735 80.3779 54.8306C80.0807 54.5532 79.8545 54.2085 79.7184 53.8255C79.5823 53.4425 79.5402 53.0324 79.5957 52.6298ZM73.8213 51.2677C75.4841 56.5899 78.9346 60.0849 81.1718 60.9434C80.9996 63.4689 80.7991 66.2828 80.7575 67.1352C75.664 67.8394 70.7102 69.3276 66.0719 71.5469C64.0135 72.5487 62.1296 73.8749 60.4922 75.4747C59.0748 70.5063 60.7198 60.4099 60.1644 57.6353C59.9186 56.4597 59.4715 55.2302 58.2876 55.0747C62.1502 53.477 69.4471 52.1239 73.8213 51.2677ZM57.7758 55.3517C57.9883 55.3404 58.2009 55.3723 58.4008 55.4454C58.6006 55.5185 58.7836 55.6313 58.9387 55.7771C59.3911 56.3453 59.655 57.0406 59.6934 57.7659C60.1211 60.4087 58.2217 70.4559 60.2488 75.755C58.8768 77.2872 57.8975 79.1296 57.395 81.1239C56.308 76.8681 53.4091 57.3151 57.7758 55.3517ZM29.4538 98.5329C29.4883 98.11 30.2345 97.8571 30.645 97.7497C33.6773 96.9752 40.2234 98.1714 40.2684 100.321C40.3326 103.504 44.6635 141.774 43.9534 143.257C43.1085 145.037 37.6002 144.572 35.305 143.254C34.2612 142.657 34.2277 142.07 34.2644 142.183C30.8696 112.06 29.3902 99.2353 29.4538 98.5329ZM54.06 143.078C54.644 144.546 51.392 148.324 49.7832 148.929C48.1745 149.534 23.3128 145.366 24.7742 143.791C24.0965 144.52 28.4089 139.792 30.4142 138.92C30.5717 138.823 30.7579 138.785 30.9407 138.811C31.1894 138.897 32.1502 139.054 33.5346 139.254C33.7781 141.118 33.9283 142.222 33.9283 142.222C34.6794 144.783 43.1946 146.021 44.4385 143.491C44.5866 142.62 44.6291 141.735 44.5651 140.853C45.9511 141.072 53.0591 142.156 54.06 143.078ZM62.8358 125.952C60.5117 126.245 45.7 124.11 43.3113 123.765C42.3578 113.378 41.1258 101.746 41.1065 100.301C41.0339 97.0195 32.58 95.9723 29.738 97.1858C29.4536 97.2748 29.1997 97.4413 29.0048 97.6667C28.8098 97.8921 28.6816 98.1674 28.6346 98.4616C28.5427 99.6579 31.1412 120.577 31.2957 121.832C29.8164 121.569 15.9621 119.145 15.2771 117.748C14.8409 114.499 10.6358 83.0796 11.4029 80.0017C16.3316 80.7855 58.2504 85.4893 61.3258 87.2482C62.2273 89.1795 63.52 123.051 62.8358 125.952ZM64.8735 125.247C64.9255 125.841 64.1543 126.114 63.5769 126.254C64.3335 123.874 63.1827 88.7653 62.0275 86.7937C60.8723 84.8221 15.6346 80.0692 11.3748 79.2716C11.5422 79.0553 11.7534 78.8769 11.9947 78.748C12.2359 78.6191 12.5017 78.5427 12.7745 78.5237C13.9991 78.3273 60.3713 84.5086 63.1407 85.7315C63.6957 86.9694 64.0304 95.9009 64.0963 97.3693C64.2454 100.912 64.8671 124.765 64.8735 125.247ZM88.287 117.15C87.3706 118.624 83.6764 118.777 81.9336 118.769L81.508 118.806C82.1581 117.151 82.4534 115.379 82.375 113.602C83.2399 113.277 86.4189 112.239 86.9852 112.994C87.1561 113.211 86.7014 113.528 86.4648 113.682C85.8358 114.044 85.1694 114.336 84.4772 114.553C84.3743 114.582 84.2872 114.651 84.2351 114.744C84.1829 114.838 84.17 114.948 84.1992 115.051C84.2283 115.154 84.2971 115.241 84.3905 115.293C84.4838 115.345 84.5941 115.358 84.697 115.329C85.5727 115.127 87.9637 114.579 88.8493 114.796C88.538 115.319 88.0607 115.722 87.4933 115.942C86.6639 116.009 85.842 116.15 85.0375 116.362C84.9218 116.395 84.8221 116.469 84.7574 116.57C84.6927 116.671 84.6675 116.793 84.6868 116.912C84.706 117.03 84.7682 117.138 84.8616 117.214C84.9549 117.289 85.0729 117.328 85.193 117.322C86.0959 117.27 86.9839 117.068 87.8211 116.726C88.0461 116.716 88.271 116.751 88.4822 116.829C88.4359 116.954 88.3597 117.064 88.2604 117.152L88.287 117.15ZM96.6472 116.106C96.6217 116.247 96.5624 116.381 96.4744 116.494C96.3863 116.608 96.272 116.698 96.1414 116.758C94.5787 117.788 90.4242 117.991 88.5638 117.966C89.2007 117.383 89.5252 116.497 88.7926 116.087C90.0804 115.081 89.8555 114.145 88.936 113.949C88.3438 113.859 87.7407 113.869 87.1519 113.98C87.674 113.514 87.8368 113.026 87.4557 112.55C86.9076 111.901 85.6297 112.103 84.8434 112.305C84.1566 108.828 83.6527 105.318 83.3336 101.788C85.8514 103.301 93.7026 102.668 96.2995 100.797C96.6931 103.764 96.7556 114.792 96.6117 116.109L96.6472 116.106ZM88.864 114.759C88.864 114.759 88.8389 114.779 88.8374 114.761L88.864 114.759ZM107.908 113.289C109.128 108.349 108.47 98.1685 107.928 93.0967C109.495 95.1842 117.913 105.115 117.974 105.199C118.181 105.461 118.417 105.699 118.679 105.906C120.609 107.382 122.734 108.582 124.995 109.472C127.416 110.493 127.597 110.414 127.588 110.513L127.394 111.87C127.242 111.875 109.264 113.171 107.881 113.292L107.908 113.289ZM112.077 116.936C113.867 115.439 126.882 114.908 127.016 114.807L127.025 114.905C126.303 120.953 126.012 123.141 125.93 123.934C125.979 123.582 126.265 121.225 126.599 118.614C126.825 116.7 127.126 114.422 127.424 112.011C127.56 110.909 127.65 110.204 127.654 110.15C125.112 109.077 121.212 107.185 119.099 105.395C118.568 104.941 108.001 92.7062 107.899 92.5632C107.797 92.4202 107.457 88.528 107.344 88.3592C107.323 88.3407 107.298 88.329 107.271 88.3255C107.243 88.3221 107.216 88.3271 107.191 88.34C107.167 88.3529 107.147 88.373 107.135 88.3975C107.122 88.422 107.118 88.4497 107.122 88.4769C107.033 88.4847 108.78 107.433 107.639 113.286L97.4342 114.277C97.4528 113.775 97.4645 113.193 97.4811 112.567C101.641 112.73 103.117 108.053 101.704 104.469C100.88 102.504 99.1862 102.34 97.3653 103.482C97.3507 102.294 97.2469 101.108 97.055 99.9355C97.1194 99.7245 97.1139 99.4984 97.0394 99.2908C96.9649 99.0833 96.8254 98.9053 96.6415 98.7834C95.2119 97.6578 91.503 97.8482 89.7032 98.0057C87.9034 98.1632 84.2098 98.6293 83.0054 99.9765C82.8982 100.075 82.817 100.199 82.7689 100.337C82.2013 101.61 84.4274 112.145 84.6071 112.362C83.8485 112.583 83.1052 112.854 82.3821 113.173L82.258 111.754C81.934 108.665 71.889 107.81 71.3977 106.075C71.2297 105.483 70.9256 104.151 70.5732 102.574C68.6099 93.919 68.8167 94.2404 68.6216 94.2574C68.5887 94.2603 68.5583 94.2761 68.537 94.3015C68.5158 94.3268 68.5055 94.3595 68.5083 94.3924C68.5293 94.6318 70.3308 104.194 70.8557 106.212C71.3807 108.23 81.3781 109.357 81.6373 111.809C81.8049 113.724 81.7951 118.513 80.1968 119.341C79.2322 119.854 71.5173 120.922 65.1476 119.291C65.1301 117.559 64.9009 86.5513 63.5934 85.2898C63.0955 84.8063 57.6683 83.941 56.9797 83.8315C59.1121 77.5698 60.646 72.4326 78.8871 67.9153C79.5514 69.5919 80.3268 71.2223 81.2081 72.7957C83.4391 76.6476 87.0013 80.7046 91.3752 79.9467C96.3998 79.0694 96.7353 73.5099 95.4902 68.5711C95.406 68.2211 95.3327 67.9953 95.2705 67.7952C97.7245 67.8258 100.175 67.9872 102.612 68.2786C106.865 68.7999 112.146 70.0353 115.288 72.9588C118.68 76.0927 121.844 81.1138 124.109 85.1503C127.369 90.9581 127.488 92.5201 130.142 95.7989C128.946 101.157 128.024 106.572 127.38 112.023C127.171 113.712 126.86 116.286 126.555 118.626C126.13 122.237 125.883 124.519 125.886 124.045C125.848 124.531 125.926 124.506 125.936 124.622C122.933 123.585 120.012 122.324 117.199 120.848C116.214 120.308 111.196 117.683 112.076 116.918L112.077 116.936ZM97.4526 105.297C97.4122 104.836 97.4282 104.406 97.4071 103.961C98.9553 103.173 100.391 103.146 100.972 104.783C102.125 107.747 101.079 111.921 97.5056 112.234C97.4683 111.808 97.5128 110.581 97.5189 110.446C101.645 110.639 100.966 103.176 97.4526 105.297ZM97.521 110.062C97.5226 108.65 97.4994 107.16 97.4663 105.76C97.8794 105.592 98.3336 105.552 98.7696 105.646C99.8581 105.935 100.01 109.612 97.4767 110.065L97.521 110.062ZM128.243 127.198C124.734 126.381 121.308 125.239 118.01 123.787C117.083 123.395 112.271 121.297 111.876 120.357C111.533 119.518 111.425 118.601 111.564 117.704C112.954 119.915 120.831 123.148 123.352 124.079C124.506 124.505 125.688 124.85 126.89 125.11C131.114 126.215 148.482 122.328 152.753 121.418C152.822 121.599 153.32 122.994 153.506 123.496C149.785 124.259 131.854 127.821 128.199 127.202L128.243 127.198ZM169.808 146.031C168.61 147.243 160.924 148.845 157.163 148.031C155.796 147.73 155.493 147.328 155.056 146.008C154.637 144.571 154.324 143.106 154.119 141.623C156.034 142.581 159.392 142.573 161.534 142.449C164.759 142.238 167.918 141.89 170.379 140.201C170.408 141.145 170.473 145.356 169.808 146.031ZM170.375 139.853C168.692 140.754 166.845 141.307 164.943 141.48C162.418 141.826 156.476 142.328 154.073 141.306C153.83 139.647 153.612 137.871 153.44 136.215C154.42 137.201 159.187 137.267 161.081 137.164C164.456 136.94 167.58 136.595 170.136 134.763C170.128 134.675 170.285 136.778 170.384 139.852L170.375 139.853ZM170.108 134.453C165.871 137.075 154.78 137.027 153.405 135.914L152.928 130.462C155.835 131.217 166.973 130.171 169.685 128.996C169.756 130.017 169.946 132.091 170.117 134.452L170.108 134.453ZM167.813 128.641C167.846 128.647 167.879 128.641 167.908 128.624C167.936 128.606 167.957 128.579 167.966 128.547C167.966 128.547 167.952 128.388 167.98 128.099C168.559 128.128 169.133 128.206 169.698 128.333C167.834 129.39 156.155 130.492 153.163 129.887C153.143 129.883 153.124 129.872 153.111 129.856C153.097 129.84 153.088 129.821 153.087 129.8C153.085 129.779 153.09 129.758 153.101 129.741C153.111 129.723 153.128 129.709 153.147 129.701C153.94 129.409 154.758 129.188 155.591 129.04C155.671 129.282 155.781 129.512 155.919 129.726C155.996 129.791 156.112 129.79 156.088 129.613C156.063 129.437 152.151 118.21 151.486 115.722C151.953 115.833 152.44 115.829 152.904 115.709C153.369 115.589 153.797 115.357 154.151 115.033C155.365 117.678 159.552 129.694 159.738 129.678C159.772 129.673 159.802 129.655 159.823 129.628C159.844 129.602 159.854 129.568 159.851 129.534L159.489 128.36L160.712 128.253C160.727 128.421 160.9 129.273 160.914 129.334C160.929 129.395 161.199 129.524 161.152 129.197C161.083 128.399 159.181 115.245 159.143 115.007C159.265 114.934 159.394 114.875 159.529 114.83C159.669 115.301 163.896 127.671 164.221 128.634C164.229 128.722 164.242 128.873 164.407 128.823C164.573 128.773 164.488 128.619 164.34 128.052L165.705 128.03L165.718 128.181C165.731 128.323 165.949 128.268 165.966 128.159C165.975 128.257 166.135 111.099 166.141 109.731C166.39 109.888 166.67 109.99 166.961 110.031C167.253 110.071 167.55 110.05 167.832 109.967C167.826 110.102 167.613 128.596 167.804 128.642L167.813 128.641ZM158.292 111.713C158.112 110.87 157.67 110.105 157.028 109.528C158.275 109.785 158.555 110.029 158.93 110.836C159.227 111.479 159.354 112.188 159.297 112.894C159.216 113.343 159.256 113.805 159.414 114.233C159.272 114.279 159.134 114.336 159 114.403C158.313 112.882 157.091 113.007 156.953 111.428C156.902 110.858 156.769 110.298 156.558 109.766C157.055 110.506 157.592 111.22 158.165 111.903C158.264 112.011 158.418 111.827 158.3 111.713L158.292 111.713ZM159.714 122.864C159.796 123.294 160.472 127.032 160.644 127.982L159.376 128.093C159.005 126.919 158.451 125.181 157.833 123.323L159.714 122.864ZM159.601 122.186L157.603 122.628C157.361 121.908 157.11 121.18 156.859 120.46C157.665 120.273 158.452 120.079 159.212 119.888C159.281 120.266 159.54 121.798 159.61 122.185L159.601 122.186ZM162.323 121.537C162.122 120.875 161.643 119.38 161.608 119.294C162.368 119.094 164.953 118.412 165.484 118.258C165.518 118.639 165.508 120.266 165.508 120.677C164.665 120.939 163.582 121.23 162.305 121.538L162.323 121.537ZM165.523 121.257C165.565 123.567 165.652 127.428 165.662 127.641C165.201 127.681 164.712 127.706 164.194 127.716C163.888 126.662 162.598 122.442 162.511 122.154C163.687 121.81 164.697 121.508 165.53 121.229L165.523 121.257ZM166.156 108.988C166.166 107.855 166.243 106.724 166.387 105.6C166.617 105.508 166.865 105.47 167.113 105.487C167.36 105.504 167.6 105.576 167.816 105.698C167.86 106.817 167.839 107.938 167.752 109.054C167.7 109.372 167.689 109.453 167.487 109.497C167.091 109.559 166.254 109.292 166.163 108.961L166.156 108.988ZM168.242 119.455C168.265 118.792 168.286 118.12 168.299 117.449C168.815 117.293 169.317 117.097 169.802 116.862C169.609 117.876 169.058 118.787 168.249 119.428L168.242 119.455ZM169.445 116.152C169.084 116.333 168.709 116.485 168.324 116.607C168.353 115.104 168.534 106.35 168.481 105.739C168.403 104.852 166.796 104.662 166.009 105.061C165.745 105.21 165.711 105.74 165.672 106.208C165.445 108.72 165.462 114.937 165.477 117.464L161.386 118.59C159.953 114.159 160.063 114.399 159.938 114.294C159.852 114.226 159.744 114.191 159.634 114.196C159.518 113.808 159.504 113.397 159.593 113.002C159.709 112.219 159.614 111.42 159.318 110.685C159.152 110.147 158.794 109.689 158.312 109.398C157.557 109.078 156.756 108.883 155.939 108.819C155.896 108.811 155.851 108.814 155.809 108.827C155.767 108.84 155.729 108.863 155.698 108.894C155.666 108.924 155.643 108.962 155.629 109.004C155.615 109.045 155.611 109.09 155.618 109.133C155.644 109.207 155.674 109.279 155.708 109.349C156.544 110.937 156.131 111.733 156.696 112.675C157.261 113.617 158.081 113.697 158.473 114.807C158.481 114.895 159.087 118.97 159.118 119.217L156.644 119.836C156.407 119.177 154.773 114.487 154.253 114.059C153.289 113.25 150.84 114.465 150.784 115.256C150.743 115.706 152.374 120.352 152.529 120.794C148.021 121.859 143.232 122.885 138.985 123.659C137.129 123.991 125.792 126.037 126.267 124.11C126.795 119.937 127.91 112.263 128.127 110.654L128.116 110.53C128.105 110.397 128.155 110.258 128.127 110.654C128.115 110.521 128.162 110.436 128.176 110.39L129.642 101.623C129.842 100.542 131.227 93.1935 132.203 92.599C134.366 91.284 171.103 83.2277 174.426 85.0544C175.157 87.2864 170.991 114.926 169.455 116.16L169.445 116.152Z" fill="#1D1C1F"/>
<path d="M91.3815 51.1257L91.3217 50.443C91.3121 50.3325 91.2589 50.2303 91.1739 50.159C91.0889 50.0877 90.9791 50.053 90.8686 50.0627C90.7572 50.0724 90.6541 50.1254 90.5814 50.2103C90.5086 50.2951 90.472 50.4051 90.4795 50.5167L90.5493 51.3146C90.5781 51.4183 90.6459 51.507 90.7384 51.562C90.8309 51.6171 90.9411 51.6343 91.0461 51.6102C91.151 51.586 91.2426 51.5223 91.3017 51.4324C91.3609 51.3424 91.3831 51.2331 91.3637 51.1272L91.3815 51.1257ZM152.819 100.73C152.54 100.505 152.151 100.244 151.823 100.38C151.28 100.606 150.845 102.073 150.657 102.68C150.138 104.485 149.761 106.328 149.531 108.192C149.977 109.1 156.005 107.331 156.802 106.85C157.058 106.703 156.994 106.387 156.881 106.111C155.822 104.112 154.45 102.296 152.819 100.73ZM149.761 108.056C149.856 107.306 151.384 101.49 152.031 100.916C153.157 101.433 155.64 105.004 156.341 106.372C155.571 106.761 150.274 108.61 149.761 108.056ZM79.2179 133.177C79.1347 133.246 77.3089 134.639 77.228 134.735C77.2077 134.746 77.1911 134.762 77.1801 134.782C77.1692 134.802 77.1644 134.825 77.1664 134.848C77.1684 134.871 77.177 134.892 77.1913 134.91C77.2056 134.928 77.2248 134.941 77.2466 134.948C77.7555 135.047 79.4298 135.088 79.9398 135.097C91.8026 130.994 91.8824 130.988 91.7317 131.001C91.8123 130.982 91.8827 130.934 91.9283 130.865C91.9739 130.796 91.991 130.712 91.9763 130.631C91.9631 130.48 91.6322 129.455 91.5333 129.142L79.2179 133.177ZM95.3573 47.0434C95.6056 47.0217 96.1033 47.0943 96.2016 47.0946C96.7446 47.1034 97.2863 47.1515 97.8223 47.2387L98.6327 47.3108C98.6637 47.3157 98.6954 47.3095 98.7223 47.2933C98.7492 47.2771 98.7696 47.252 98.7798 47.2223C98.79 47.1926 98.7894 47.1603 98.7781 47.1309C98.7668 47.1016 98.7456 47.0773 98.7181 47.0621C98.2213 46.7106 97.6375 46.5021 97.0305 46.4593C96.4264 46.384 95.8137 46.4905 95.2704 46.7651C95.2522 46.7708 95.2352 46.7801 95.2205 46.7923C95.2058 46.8046 95.1936 46.8196 95.1848 46.8366C95.1759 46.8536 95.1704 46.8721 95.1687 46.8912C95.167 46.9102 95.169 46.9294 95.1747 46.9477C95.1804 46.966 95.1897 46.983 95.2019 46.9976C95.2142 47.0123 95.2292 47.0245 95.2462 47.0334C95.2631 47.0423 95.2817 47.0477 95.3008 47.0494C95.3198 47.0512 95.339 47.0491 95.3573 47.0434ZM88.4036 48.438C88.6383 48.3638 89.1456 48.239 89.277 48.2097C89.8041 48.0453 90.3426 47.9206 90.8882 47.8364L91.7663 47.6613C91.8016 47.6583 91.8342 47.6413 91.8569 47.6142C91.8797 47.587 91.8907 47.552 91.8877 47.5167C91.8846 47.4814 91.8676 47.4488 91.8405 47.4261C91.8134 47.4033 91.7783 47.3923 91.743 47.3954C91.1503 47.2031 90.5163 47.1769 89.9097 47.3198C89.3032 47.4626 88.7474 47.769 88.3029 48.2056C88.2818 48.2074 88.2614 48.2142 88.2435 48.2255C88.2256 48.2367 88.2106 48.2521 88.1998 48.2702C88.189 48.2884 88.1826 48.3089 88.1813 48.33C88.1799 48.3511 88.1836 48.3722 88.192 48.3917C88.2004 48.4111 88.2133 48.4282 88.2296 48.4416C88.246 48.4551 88.2653 48.4644 88.2859 48.469C88.3066 48.4735 88.3281 48.473 88.3485 48.4677C88.369 48.4623 88.3878 48.4521 88.4036 48.438ZM97.4047 49.205C97.2942 49.2147 97.192 49.2678 97.1207 49.3528C97.0494 49.4378 97.0148 49.5476 97.0244 49.6582L97.0943 50.4561C97.1192 50.5653 97.1865 50.6601 97.2814 50.7196C97.3762 50.7792 97.4908 50.7986 97.6 50.7737C97.7092 50.7487 97.804 50.6814 97.8635 50.5866C97.9231 50.4917 97.9425 50.3771 97.9176 50.2679L97.8579 49.5852C97.8543 49.5301 97.8395 49.4762 97.8145 49.4269C97.7896 49.3776 97.7548 49.3339 97.7125 49.2983C97.6701 49.2628 97.621 49.2362 97.5681 49.2202C97.5152 49.2041 97.4596 49.199 97.4047 49.205ZM35.3291 132.201C36.5964 132.492 39.5629 133.314 40.87 133.038C41.0296 133.024 41.193 132.849 41.2834 132.555C41.9955 130.483 40.4697 120.396 39.9791 118.465C39.6341 117.074 34.3833 115.774 33.2386 116.883C32.4972 117.6 33.5532 125.075 33.7334 126.113C34.185 128.62 34.235 131.948 35.3291 132.201ZM33.6787 117.318C34.5757 116.543 39.1611 117.795 39.3751 118.607C39.7186 119.979 41.567 131.61 40.7603 132.601C39.6313 132.87 36.5176 132.204 35.3429 131.95C34.5128 131.754 34.4789 128.201 34.1551 126.032C33.9643 124.566 33.3556 118.731 33.6787 117.318ZM91.8372 56.4373C91.8142 56.4282 91.7895 56.4247 91.7649 56.4268C91.7403 56.429 91.7165 56.4368 91.6954 56.4497C91.4807 56.5488 91.3694 56.8087 91.3658 57.1754C91.4193 58.1172 91.8148 59.007 92.4781 59.6778C92.6356 59.8575 92.8275 60.0037 93.0427 60.1076C93.2578 60.2115 93.4916 60.271 93.7302 60.2827C93.9688 60.2943 94.2073 60.2578 94.4315 60.1753C94.6557 60.0928 94.861 59.966 95.0352 59.8025C95.5311 59.3159 95.9017 58.7164 96.1152 58.0553C96.1352 58.0034 96.143 57.9477 96.1382 57.8924C96.1333 57.8371 96.1159 57.7836 96.0873 57.7361C95.7752 57.3345 95.1719 57.9948 91.8372 56.4373ZM91.7838 56.7457C92.8188 57.4817 93.9993 57.9876 95.246 58.2296C93.631 61.6228 91.3439 57.4363 91.7838 56.7457ZM93.7737 54.4721C94.3505 54.5288 95.9027 54.1965 96.1892 53.5907C96.3336 53.3011 96.1574 53.2272 95.6857 52.1249C95.2639 51.1683 94.7857 50.2376 94.2537 49.3377C94.0724 49.1034 93.8902 49.3695 94.0186 49.5102C94.3839 50.8479 94.8925 52.1424 95.5357 53.3709C94.9203 53.7273 94.2866 54.0512 93.6372 54.3411C93.6375 54.3587 93.6413 54.376 93.6484 54.3921C93.6554 54.4082 93.6656 54.4228 93.6783 54.435C93.6909 54.4471 93.7059 54.4567 93.7223 54.4631C93.7387 54.4694 93.7562 54.4725 93.7737 54.4721ZM134.538 143.81C137.679 141.409 134.92 139.694 132.802 140.809C132.175 139.872 132.044 139.803 130.94 139.953C125.211 140.749 99.7508 149.034 99.5111 149.153C98.2462 149.809 102.265 157.346 103.676 158.259C103.997 158.463 103.904 158.516 107.102 157.593C107.484 159.507 108.622 162.82 110.6 162.754C111.503 162.506 112.371 162.148 113.187 161.688C114.974 163.18 116.858 164.552 118.826 165.796C120.985 166.983 132.686 150.619 134.482 148.675C135.024 148.44 135.51 148.273 135.326 146.895C136.984 146.437 138.196 145.286 137.171 143.875C136.489 143.023 135.455 143.257 134.538 143.81ZM134.638 141.372C135.013 141.473 135.211 141.598 135.128 141.972C134.938 142.548 134.632 143.08 134.228 143.534C133.93 142.833 133.593 142.15 133.218 141.487C133.663 141.281 134.166 141.24 134.638 141.372ZM125.179 141.904C125.642 143.427 125.938 144.25 126.479 145.641L120.437 147.34C119.971 146.088 119.449 144.858 118.872 143.653C120.014 143.33 124.244 142.147 125.179 141.904ZM117.126 154.536C117.549 155.621 118.122 156.642 118.83 157.567C117.2 158.541 115.661 159.435 114.35 160.175C113.73 158.731 112.917 157.377 111.934 156.151L117.126 154.536ZM114.617 154.755C114.183 153.241 113.671 151.75 113.083 150.288L120.042 148.134C120.56 149.602 121.157 151.041 121.83 152.445C119.437 153.172 116.943 153.971 114.614 154.72L114.617 154.755ZM117.574 154.541C117.464 154.408 116.879 154.673 123.274 152.604C123.447 153.253 123.746 153.861 124.154 154.394L119.181 157.393C118.78 156.361 118.238 155.389 117.57 154.506L117.574 154.541ZM123.646 152.473C126.947 151.398 129.976 150.383 132.063 149.628L124.569 154.135C124.369 153.518 124.058 152.943 123.652 152.437L123.646 152.473ZM122.124 152.33C121.707 150.842 121.215 149.376 120.65 147.938L126.575 145.919C126.579 145.963 127.106 147.293 127.344 147.861C127.456 148.12 128.397 150.199 128.444 150.231C126.645 150.799 122.26 152.246 122.112 152.295L122.124 152.33ZM118.614 143.765C119.048 145.353 119.414 146.375 119.839 147.553L112.882 149.734C112.342 148.361 111.978 147.464 111.227 145.921C112.582 145.481 117.565 144.027 118.62 143.729L118.614 143.765ZM110.939 146C111.44 147.743 111.778 148.651 112.265 149.931C111.683 150.116 106.94 151.755 106.94 151.755C106.762 151.771 106.857 152.039 107.031 151.988C107.031 151.988 112.204 150.553 112.464 150.468C112.464 150.468 112.979 151.959 114.331 154.852L108.724 156.629C107.635 153.608 106.342 150.664 104.853 147.819L110.939 146ZM103.898 157.935C102.462 157.043 98.7246 149.865 99.6199 149.376C99.6199 149.376 101.611 148.755 104.606 147.85C105.638 150.89 106.918 153.841 108.433 156.672C103.861 158.126 104.055 158.002 103.903 157.899L103.898 157.935ZM110.517 162.109C109.018 162.24 107.84 159.083 107.445 157.634C107.43 157.466 106.975 157.675 111.527 156.303C111.754 156.239 111.385 156.208 112.695 158.417C113.076 159.113 113.529 159.768 114.045 160.371C112.928 161.032 111.759 161.6 110.549 162.071L110.517 162.109ZM119.112 165.181C117.199 164.076 115.348 162.866 113.568 161.556C115.038 160.793 116.697 159.835 118.124 158.996C119.409 160.249 120.836 161.348 122.377 162.269C121.819 162.836 119.937 164.912 119.144 165.142L119.112 165.181ZM122.611 161.98C121.326 160.776 119.912 159.716 118.395 158.82L123.723 155.593C124.568 156.322 125.525 156.911 126.556 157.338C125.288 158.903 123.983 160.438 122.643 161.942L122.611 161.98ZM126.832 157.028C126.027 156.338 125.128 155.764 124.164 155.323C127.808 153.065 129.895 151.703 133.278 149.424C131.822 150.954 128.173 155.401 126.865 156.989L126.832 157.028ZM134.561 147.954C134.204 148.262 129.094 149.995 128.651 150.141C127.833 147.29 126.756 144.52 125.434 141.864C127.129 141.421 130.481 140.529 131.761 140.56C131.951 140.747 132.118 140.954 132.262 141.177C131.693 141.641 131.24 142.232 130.939 142.901C130.87 143.131 131.11 143.226 131.216 143.109C131.619 142.601 132.103 142.163 132.648 141.814C133.123 142.61 133.548 143.435 133.919 144.284C133.178 144.892 132.524 145.599 131.976 146.384C131.873 146.536 131.918 146.639 132.002 146.677C132.225 146.782 132.215 146.461 134.199 145.037C134.473 145.736 134.657 146.468 134.747 147.214C134.716 147.377 134.726 147.787 134.594 147.915L134.561 147.954ZM136.561 145.384C136.205 145.873 135.737 146.269 135.197 146.54C135.06 145.915 134.878 145.301 134.652 144.703C135.203 144.36 136.066 143.909 136.415 144.423C136.539 144.538 136.623 144.689 136.656 144.855C136.688 145.021 136.666 145.193 136.594 145.346L136.561 145.384Z" fill="#1D1C1F"/>
</g>
<defs>
<clipPath id="clip0_13641_5034">
<rect width="178" height="178" fill="white" transform="translate(0.274414 15.7129) rotate(-5)"/>
</clipPath>
</defs>
</svg>
