<svg width="203" height="203" viewBox="0 0 203 203" fill="none" xmlns="http://www.w3.org/2000/svg">
<g clip-path="url(#clip0_13641_5014)">
<path d="M149.431 94.977C149.061 94.9224 148.959 95.6091 149.329 95.6637C150.21 95.7937 162.504 97.4023 163.564 97.3519C163.66 97.3517 163.753 97.317 163.825 97.2543C163.898 97.1915 163.945 97.1048 163.959 97.01C163.973 96.9151 163.953 96.8183 163.902 96.7373C163.85 96.6563 163.772 96.5963 163.68 96.5683C160.511 95.6686 152.998 95.4318 149.431 94.977ZM151.689 113.681C151.284 113.621 151.254 114.31 151.639 114.385C154.495 114.905 158.99 115.416 161.941 115.717C162.478 115.796 162.67 114.925 162.071 114.837C158.784 114.369 155.027 113.859 151.689 113.681ZM156.551 83.3704C156.466 83.3615 156.379 83.3841 156.309 83.434C156.238 83.4838 156.189 83.5576 156.168 83.6416C156.148 83.7256 156.159 83.814 156.2 83.8904C156.24 83.9667 156.306 84.0259 156.387 84.0569C157.934 84.4833 163.02 85.4412 164.657 85.0172C164.742 84.9897 164.815 84.9354 164.866 84.8626C164.917 84.7897 164.943 84.7022 164.94 84.6133C164.937 84.5244 164.905 84.4389 164.849 84.3698C164.793 84.3007 164.716 84.2518 164.629 84.2304C162.605 83.8055 159.233 83.9733 156.551 83.3704ZM143.985 98.896C151.431 99.8876 159.925 100.611 167.528 101.032C167.995 101.101 168.081 100.214 167.596 100.143C160.191 99.2379 151.5 98.4493 144.054 98.1235C143.951 98.1143 143.85 98.1462 143.771 98.2122C143.692 98.2781 143.642 98.3727 143.633 98.4752C143.624 98.5776 143.656 98.6795 143.722 98.7584C143.788 98.8373 143.882 98.8868 143.985 98.896ZM160.429 61.2538C162.522 61.4009 164.609 61.5831 166.67 61.6356C167.26 61.6598 167.232 60.8189 166.659 60.7344C164.576 60.5886 162.476 60.5485 160.399 60.4846C159.915 60.4672 159.94 61.2175 160.429 61.2538ZM145.637 77.8362C145.197 77.7712 145.069 78.517 145.521 78.6199C150.465 79.5867 155.504 79.9746 160.537 79.7755C161.106 79.7606 161.148 78.8672 160.57 78.8808C155.571 78.9923 150.572 78.6427 145.637 77.8362ZM164.112 66.1069C164.85 66.4049 165.15 65.1716 164.427 65.1909C160.908 65.2406 157.393 64.9415 153.934 64.2981C153.467 64.2292 153.261 64.8916 153.729 65.0146C157.121 65.8686 160.617 66.2364 164.112 66.1069ZM139.934 97.875C139.286 97.5095 136.052 97.4816 135.148 97.4472C134.717 97.3835 134.597 98.0764 135.047 98.1339L138.665 98.5512C140.338 98.7353 140.415 98.1529 139.934 97.875ZM137.945 136.509C137.231 136.224 131.916 135.844 131.046 135.769C130.588 135.702 130.572 136.419 131.031 136.478C131.964 136.616 137.08 137.371 137.927 137.235C138.307 137.165 138.26 136.628 137.945 136.509ZM131.627 131.771C134.084 132.25 140.197 133.261 142.758 133.036C142.816 133.045 142.875 133.04 142.931 133.024C142.987 133.008 143.039 132.981 143.084 132.943C143.129 132.906 143.165 132.859 143.191 132.807C143.217 132.754 143.231 132.697 143.234 132.639C143.236 132.58 143.226 132.522 143.205 132.468C143.183 132.414 143.15 132.364 143.109 132.323C143.067 132.283 143.017 132.251 142.962 132.23C142.907 132.21 142.849 132.201 142.791 132.205C139.172 131.67 135.728 131.782 131.842 131.047C131.378 130.96 131.147 131.673 131.627 131.771ZM142.479 117.377C143.022 117.359 143.093 116.568 142.539 116.487C138.571 116.305 137.738 116.281 133.709 115.848C133.321 115.791 133.178 116.454 133.606 116.544C136.52 117.174 139.499 117.454 142.479 117.377ZM148.721 112.64C143.905 112.109 138.811 112.184 133.784 111.622C133.692 111.623 133.604 111.656 133.535 111.716C133.466 111.776 133.421 111.858 133.408 111.949C133.394 112.039 133.414 112.132 133.462 112.209C133.511 112.286 133.586 112.344 133.673 112.37C137.82 112.983 144.523 113.775 148.697 113.473C148.786 113.448 148.866 113.395 148.923 113.322C148.981 113.249 149.013 113.159 149.016 113.066C149.019 112.973 148.991 112.881 148.938 112.804C148.885 112.728 148.809 112.67 148.721 112.64ZM161.675 137.809C161.604 137.799 156.712 137.481 155.888 137.332C155.808 137.335 155.73 137.363 155.667 137.413C155.604 137.464 155.559 137.533 155.538 137.611C155.518 137.688 155.523 137.771 155.553 137.845C155.583 137.92 155.636 137.983 155.705 138.025C156.664 138.356 160.809 139.04 161.77 138.444C161.82 138.403 161.858 138.35 161.881 138.289C161.905 138.229 161.912 138.163 161.902 138.099C161.893 138.036 161.867 137.975 161.827 137.924C161.787 137.873 161.734 137.834 161.675 137.809ZM166.069 118.837C159.908 118.332 153.06 117.554 146.908 117.177C146.433 117.107 146.415 117.833 146.869 117.927C150.139 118.509 161.911 119.635 166.019 119.72C166.077 119.724 166.136 119.716 166.191 119.698C166.246 119.679 166.297 119.649 166.34 119.61C166.384 119.571 166.419 119.524 166.444 119.471C166.469 119.418 166.483 119.361 166.485 119.303C166.491 119.186 166.451 119.071 166.373 118.984C166.295 118.897 166.185 118.844 166.069 118.837ZM146.107 95.4308C146.224 95.448 146.342 95.4182 146.437 95.3478C146.532 95.2775 146.595 95.1723 146.612 95.0556C146.629 94.9388 146.599 94.82 146.529 94.7253C146.459 94.6305 146.354 94.5676 146.237 94.5504C142.428 94.0868 138.594 93.5477 134.73 93.274C134.645 93.2801 134.565 93.315 134.503 93.3728C134.44 93.4307 134.399 93.5081 134.387 93.5922C134.375 93.6763 134.391 93.7622 134.434 93.8356C134.477 93.909 134.544 93.9656 134.623 93.996C138.452 94.6333 142.294 94.9937 146.107 95.4308ZM155.87 133.191C154.532 132.994 149.656 132.625 148.482 132.658C148.103 132.665 147.96 133.265 148.38 133.345C149.612 133.59 154.456 133.99 155.866 134.072C156.4 134.169 156.416 133.272 155.87 133.191ZM152.57 137.751L141.398 136.821C140.896 136.747 140.907 137.531 141.404 137.578C143.566 137.798 150.518 138.546 152.494 138.568C152.933 138.578 153.054 137.823 152.57 137.751ZM155.946 60.0521C152.752 59.2025 142.465 58.3133 138.953 58.1545C138.471 58.1283 138.327 58.8627 138.844 58.8941C144.586 59.3642 150.143 60.0587 155.828 60.9162C155.93 60.9097 156.027 60.8679 156.102 60.798C156.178 60.7281 156.226 60.6343 156.24 60.5326C156.254 60.4309 156.233 60.3275 156.179 60.2399C156.125 60.1523 156.043 60.086 155.946 60.0521ZM153.379 83.9546C153.946 83.9572 153.862 83.1261 153.307 83.0442C147.545 82.853 141.8 82.3051 136.105 81.4037C136.02 81.4047 135.939 81.4358 135.875 81.4916C135.811 81.5473 135.769 81.6239 135.757 81.7077C135.744 81.7915 135.762 81.8769 135.807 81.9487C135.852 82.0205 135.921 82.0738 136.002 82.0993C141.729 83.2287 147.544 83.8495 153.379 83.9546ZM150.124 64.6351C150.182 64.6382 150.241 64.6296 150.296 64.6098C150.352 64.59 150.403 64.5594 150.446 64.5198C150.49 64.4802 150.525 64.4324 150.55 64.3791C150.575 64.3258 150.589 64.2681 150.591 64.2094C150.594 64.1506 150.586 64.0919 150.566 64.0365C150.546 63.9811 150.516 63.9302 150.476 63.8867C150.436 63.8432 150.389 63.808 150.335 63.7831C150.282 63.7582 150.224 63.7441 150.166 63.7417C146.211 63.6526 142.528 63.1267 138.649 62.8957C138.237 62.8799 138.096 63.5338 138.542 63.6177C142.372 64.2466 146.243 64.5867 150.124 64.6351ZM137.157 76.9618C136.716 76.8968 136.605 77.5911 137.104 77.6828C138.662 78.0649 140.245 78.3407 141.84 78.5081C141.917 78.4868 141.985 78.4438 142.037 78.3845C142.089 78.3251 142.123 78.2519 142.135 78.1737C142.146 78.0955 142.135 78.0156 142.102 77.9437C142.069 77.8718 142.016 77.811 141.95 77.7685C141.804 77.6571 137.967 77.0814 137.157 76.9618ZM125.42 80.4106C125.93 80.486 128.286 77.6312 129.51 76.7143C129.955 76.3841 129.417 75.639 128.966 75.9503C127.694 76.797 126.549 77.8216 125.566 78.9928L123.642 76.6124C123.246 76.1222 122.55 76.7571 122.908 77.2509C123.267 77.7447 124.768 80.3144 125.42 80.4106ZM121.521 65.1436C125.099 65.8879 128.86 66.3713 132.818 66.9828C133.1 67.0244 133.383 66.2655 134.315 56.8488C134.415 56.1709 134.428 55.6599 134.446 55.4737C134.452 55.4468 134.453 55.4188 134.448 55.3917C134.442 55.3645 134.431 55.3388 134.415 55.3162C134.2 55.0056 132.534 54.7775 128.777 54.3218C122.46 53.5418 121.771 53.3951 121.718 53.7561C121.681 53.8226 120.453 64.878 121.521 65.1436ZM121.863 64.5284C121.77 62.1126 122.187 57.1001 122.324 54.2775C124.864 54.8055 130.745 55.377 133.696 55.7408C133.696 55.7408 132.699 63.5914 132.396 66.1287C128.956 65.5398 125.375 64.876 121.835 64.4792L121.863 64.5284Z" fill="#1D1C1F"/>
<path d="M131.596 83.6702C132.379 83.4889 132.728 75.1557 132.923 72.9804C132.923 72.9351 132.908 72.8912 132.878 72.8568C132.417 72.321 121.155 71.2786 120.585 71.2394C120.015 71.2002 120.126 74.3474 119.915 76.4484C119.35 81.673 119.521 82.1571 119.78 82.2313C121.659 82.7877 129.734 84.097 131.596 83.6702ZM121.015 72.0407C124.864 72.3571 128.732 72.9103 132.168 73.3997C131.952 75.473 131.236 81.296 131.181 82.8892C127.538 82.7304 123.911 82.3002 120.332 81.6021C120.676 80.3123 120.928 73.5482 121.015 72.0407ZM124.899 95.3304L127.215 93.7831C127.289 93.6912 127.333 93.5782 127.339 93.4602C127.346 93.3421 127.314 93.2251 127.25 93.1258C127.186 93.0265 127.092 92.9501 126.982 92.9074C126.872 92.8647 126.751 92.8579 126.636 92.888C125.724 93.2796 124.872 93.799 124.106 94.4305L122.524 92.4696C122.438 92.3627 122.314 92.2942 122.178 92.2792C122.041 92.2641 121.905 92.3038 121.798 92.3894C121.691 92.475 121.623 92.5996 121.608 92.7357C121.593 92.8719 121.632 93.0084 121.718 93.1153L123.219 95.1362C121.387 96.5751 120.537 97.5201 120.625 98.0189C120.713 98.5178 121.317 98.391 121.497 98.2018C122.226 97.5356 123.049 96.7755 123.915 96.0848C124.538 97.0043 125.253 97.8576 126.049 98.631C126.138 98.6685 126.235 98.6813 126.33 98.6683C126.425 98.6553 126.515 98.6168 126.59 98.557C126.665 98.4972 126.723 98.4182 126.757 98.3284C126.791 98.2386 126.8 98.1413 126.783 98.0467C126.249 97.0798 125.618 96.1698 124.899 95.3304ZM130.94 57.6543C129.352 58.6766 127.982 60.0031 126.909 61.5573C126.363 60.6655 125.703 59.8483 124.947 59.1264C124.48 58.6887 123.71 59.2767 124.163 59.7395C125.037 60.7754 125.834 61.8733 126.548 63.0245C126.742 63.296 126.98 63.2053 127.212 62.9785C128.446 61.2521 129.886 59.6824 131.5 58.3039C131.992 57.8997 131.461 57.2905 130.94 57.6543ZM122.169 115.097C122.674 114.848 124.914 111.742 126.095 110.747C126.557 110.365 125.96 109.656 125.442 110.057C124.053 111.121 122.813 112.366 121.755 113.759L119.964 111.695C119.571 111.25 118.872 111.84 119.272 112.358C119.673 112.875 121.316 115.637 122.169 115.097ZM127.22 127.377C126.983 126.667 114.841 125.549 114.727 125.532C114.7 125.531 114.674 125.537 114.65 125.55C114.626 125.562 114.606 125.58 114.591 125.602C114.089 126.194 112.93 136.845 113.075 137.874C113.242 139.122 125.063 139.851 125.637 139.99C125.654 139.996 125.672 139.999 125.69 139.998C125.708 139.997 125.726 139.991 125.741 139.983C125.757 139.974 125.771 139.962 125.782 139.947C125.792 139.932 125.8 139.915 125.803 139.898C126.187 138.578 127.251 127.471 127.22 127.377ZM115.195 126.258C118.695 126.928 122.892 127.322 126.468 127.842C126.304 129.32 125.347 137.995 125.219 139.164C121.284 138.762 118.009 138.216 113.861 137.486C114.122 136.023 115.051 127.604 115.191 126.284L115.195 126.258Z" fill="#1D1C1F"/>
<path d="M118.605 132.592C119.23 132.684 122.393 133.376 122.67 133.273C122.743 133.245 122.808 133.2 122.861 133.142C122.913 133.084 122.952 133.015 122.974 132.94C122.995 132.865 122.999 132.785 122.985 132.708C122.971 132.631 122.939 132.559 122.892 132.496C122.498 131.934 119.533 131.604 119.026 131.628C118.339 131.653 118.178 131.89 118.167 132.086C118.173 132.207 118.219 132.323 118.299 132.414C118.378 132.506 118.486 132.568 118.605 132.592ZM123.609 106.926C120.714 106.552 117.66 106.209 117.153 106.171C116.96 106.142 116.733 106.279 116.436 108.107C116.112 110.299 115.465 117.302 116.336 117.493C118.077 117.885 127.176 119.265 128.36 119.35C128.545 119.377 128.695 119.399 129.036 114.772C129.2 112.385 129.419 108.036 129.419 108.036C129.41 107.854 129.416 107.693 123.609 106.926ZM128.681 108.467C128.407 111.782 128.025 115.162 127.89 118.516L116.69 116.862C116.816 113.633 117.071 110.324 117.321 106.924L128.681 108.467ZM119.992 101.327C123.567 101.855 129.616 102.253 129.673 102.235C130.279 102.027 130.89 93.9935 131.207 90.5676C131.297 89.9601 128.19 89.4924 125.596 89.2083C124.469 89.0419 118.825 88.5143 118.724 89.3181C117.283 101.152 117.297 100.569 117.499 100.725C118.291 101.061 119.133 101.265 119.992 101.327ZM118.264 100.172C118.574 96.6731 119.047 92.9824 119.41 89.5454C123.115 89.7606 126.804 90.1792 130.462 90.7995C130.284 92.0057 129.337 100.062 129.289 101.422C127.973 101.318 119.661 100.153 118.289 100.185L118.264 100.172Z" fill="#1D1C1F"/>
<path d="M182.341 123.848C189.3 60.7574 190.191 61.4286 189.823 60.9965C189.307 60.3446 184.63 60.0318 183.486 59.9257L184.431 50.2321C184.462 50.1774 184.48 50.116 184.482 50.0531C184.485 49.9901 184.472 49.9275 184.445 49.8706C184.418 49.8136 184.378 49.764 184.328 49.7259C184.278 49.6879 184.219 49.6624 184.157 49.6519C165.701 46.6926 146.494 45.1069 127.224 43.5837C122.028 43.1854 116.637 42.7132 111.325 42.4956C111.278 42.4805 111.227 42.4763 111.178 42.4831C111.128 42.4899 111.081 42.5076 111.039 42.535C110.997 42.5624 110.961 42.5987 110.935 42.6414C110.909 42.6841 110.893 42.732 110.887 42.7818C108.384 66.4329 105.59 104.849 104.246 147.645C104.227 148.137 108.305 148.307 111.95 148.603C111.844 149.645 111.879 150.698 112.054 151.731C112.484 152.478 178.394 158.072 178.725 155.279C179.987 144.786 181.171 134.147 182.341 123.848ZM173.339 150.57C149.663 150.672 128.695 148.583 105.146 147.157C106.432 106.584 108.58 78.9399 111.507 43.1522C118.719 43.7853 145.518 45.2596 183.786 50.3978C180.957 76.1329 173.993 147.787 173.313 150.566L173.339 150.57ZM71.7545 73.7179C71.1557 73.6295 70.9929 74.793 71.2097 75.2748C71.2327 75.3441 71.2755 75.4051 71.3327 75.4503C71.39 75.4955 71.4593 75.523 71.532 75.5294C72.0781 75.547 72.3 73.8615 71.7545 73.7179ZM67.8598 78.3428C68.2241 78.4955 69.2363 78.708 69.526 78.3909C69.9334 77.9473 69.687 73.3407 69.6193 73.0068C69.6053 72.9386 69.5676 72.8777 69.5128 72.8347C69.458 72.7918 69.3898 72.7697 69.3203 72.7724C69.2507 72.7751 69.1844 72.8024 69.1331 72.8494C69.0819 72.8965 69.0489 72.9602 69.0402 73.0292C68.9219 73.8304 68.8812 76.6043 68.8543 77.7609L67.9661 77.6838C67.8977 77.7017 67.8359 77.7391 67.7884 77.7914C67.7408 77.8438 67.7095 77.9088 67.6983 77.9786C67.687 78.0485 67.6963 78.12 67.7249 78.1847C67.7536 78.2493 67.8004 78.3043 67.8598 78.3428ZM71.2492 71.961C71.5204 71.9281 71.7954 71.9617 72.0507 72.059C72.3059 72.1562 72.5337 72.3142 72.7142 72.5192C73.012 72.878 73.7595 72.3856 72.9058 71.6478C72.2955 71.0899 70.7341 70.6974 70.7817 71.5321C70.7924 71.6489 70.8462 71.7575 70.9326 71.8368C71.019 71.9161 71.1319 71.9604 71.2492 71.961Z" fill="#1D1C1F"/>
<path d="M92.3384 107.777C87.5014 101.359 78.2831 93.2952 69.3188 90.6399C69.5478 90.139 69.6298 89.5833 69.5555 89.0375C70.3385 88.5578 71.0807 88.0145 71.7746 87.413C73.2521 86.1197 73.4389 84.6719 71.5348 85.1374C73.8704 81.5059 75.1159 73.0711 75.1815 68.2407C77.8593 70.5164 83.0951 69.4812 83.0181 65.7993C86.846 67.5971 90.6275 60.0226 85.7504 57.836C87.3529 51.919 79.7688 49.9085 76.8905 53.073C76.1343 48.9939 69.7224 50.1343 69.7127 53.2456C67.3938 49.8804 61.2898 50.0316 59.9174 53.5985C57.7599 50.9678 53.5064 51.3203 53.3747 54.7105C49.7007 52.2967 46.9171 56.7078 49.7575 58.6746C47.638 59.4413 47.0574 63.7998 50.0686 64.2444C49.6395 67.1499 50.4175 74.0662 54.2375 78.3548C54.1022 82.5002 52.9576 84.4634 50.9471 88.026C36.2557 88.0877 23.6918 97.685 16.7436 110.864C8.82125 125.888 9.26118 141.247 25.3394 146.842C24.9927 148.952 24.4339 151.022 23.6715 153.02C23.6518 153.096 23.6604 153.177 23.6957 153.248C23.731 153.319 23.7906 153.375 23.8638 153.406C23.9369 153.436 24.0185 153.439 24.0937 153.414C24.169 153.389 24.2327 153.338 24.2733 153.27C25.1655 151.306 25.7981 149.234 26.1551 147.107C30.0532 148.288 34.2166 148.267 38.1031 147.049C41.9897 145.831 45.4194 143.47 47.9458 140.275C50.3515 141.62 52.8314 142.827 55.3737 143.891C63.3381 147.469 73.8319 151.403 84.5088 150.137C83.5795 155.029 82.7153 158.931 81.6965 162.784C81.6393 163.172 82.1595 163.366 82.2783 162.987C82.9259 160.978 85.1152 152.062 85.3627 150.02C92.1921 148.977 97.2287 145.088 99.1727 139.356C102.522 129.649 99.9513 117.817 92.3384 107.777ZM60.5453 64.3341C60.3945 66.9388 59.8952 68.7363 58.9361 69.8092C58.5818 70.1977 58.0753 70.5818 57.6967 70.5259C57.4529 70.166 55.8424 67.9129 53.876 68.8011C52.5918 69.3942 52.3193 70.8744 53.1426 72.9752C53.7618 74.2687 54.1351 75.6662 54.2434 77.0962C51.4122 72.9355 50.8891 69.3497 50.8411 64.3135C51.7599 64.2843 52.6435 63.9531 53.3553 63.3713C54.558 65.888 58.394 65.9866 60.5453 64.3341ZM54.2128 69.4446C55.5093 68.8894 56.4798 69.9323 57.3535 70.961C57.8667 71.5676 58.9431 70.9798 59.4998 70.3783C60.9416 68.8998 61.2416 66.1372 61.286 64.7403C62.0204 65.6804 63.0882 66.302 64.2684 66.4762C65.4485 66.6505 66.6504 66.3641 67.6252 65.6764C67.4269 68.2381 72.659 69.6045 74.3696 67.707C74.3623 72.2041 73.265 81.7673 70.5454 85.4411C68.67 85.9559 64.4026 87.1341 62.5285 86.0566C60.9206 85.1264 60.4426 82.3929 58.6179 80.9809C57.3888 80.0437 56.1207 80.7111 56.8329 82.3457C58.6387 86.4448 58.2168 87.84 55.7807 91.4207C54.2107 90.7333 52.7944 89.738 51.6158 88.4936C53.9623 86.0062 55.2213 81.1361 55.2233 77.7717C55.2248 74.776 54.7498 74.8858 53.9074 72.5483C53.5016 71.5797 53.2693 69.8631 54.2128 69.4446ZM66.4436 89.3967C66.3686 89.4189 66.3042 89.4678 66.2628 89.5341C66.2213 89.6005 66.2056 89.6798 66.2185 89.7569C66.2315 89.8341 66.2722 89.9039 66.3331 89.9531C66.394 90.0023 66.4707 90.0275 66.5489 90.024C67.3238 90.0006 68.0839 89.8055 68.7744 89.453C68.7039 90.2815 68.3673 91.0649 67.8148 91.6864C67.6239 91.8831 67.8081 92.585 68.5013 91.8507C68.0984 94.2742 66.4136 97.0933 63.8534 97.9207C62.2795 97.3896 60.8326 96.5381 59.6042 95.4199C58.3757 94.3017 57.3923 92.9411 56.7159 91.4239C60.0255 87.2884 58.203 83.5466 57.6362 82.0235C57.3244 81.1497 57.5627 81.059 58.1995 81.6208C59.7075 82.9231 60.7335 86.0884 62.2863 86.7226C65.2159 87.9019 69.2283 86.6231 71.1805 86.0747C72.1951 85.7837 72.7927 85.5751 71.4362 86.8412C69.6247 88.5079 68.6945 88.7754 66.4436 89.3967ZM23.6339 121.472C23.5914 121.539 23.5746 121.619 23.5863 121.697C23.598 121.776 23.6376 121.847 23.6978 121.899C23.758 121.95 23.8347 121.978 23.9139 121.978C23.9931 121.977 24.0695 121.948 24.129 121.896C33.6474 110.869 47.6696 104.312 56.1695 92.2608C56.8554 94.6832 60.7908 98.2512 63.485 98.649C63.1612 100.841 62.5563 103.415 61.9581 105.882C59.4065 104.884 52.5962 101.593 51.7424 98.4804C51.646 98.0973 51.0285 98.2581 51.1161 98.6398C51.84 102.084 58.9012 105.808 61.7424 106.794C60.1535 113.282 57.9693 119.609 55.2178 125.695C53.1862 130.253 50.6292 135.751 47.5359 139.639C45.0542 142.845 41.6341 145.197 37.7522 146.367C33.8704 147.537 29.7202 147.467 25.8801 146.166C10.0482 140.914 9.76523 125.893 17.5726 111.221C24.8747 97.4728 37.6791 88.9276 50.9958 88.9148C52.258 90.1685 53.6805 91.2497 55.2261 92.1305C46.7414 103.896 32.9158 110.401 23.6339 121.472ZM55.9204 126.177C65.0083 123.835 74.4195 123.003 83.7774 123.714C86.4447 123.928 89.0848 124.327 91.7262 124.717C92.1136 124.774 92.216 124.141 91.8198 124.083C90.0419 123.693 88.2453 123.395 86.4369 123.189C86.5255 119.604 81.6947 108.391 79.9576 105.229C79.9101 105.169 79.8424 105.127 79.767 105.113C79.6916 105.098 79.6135 105.111 79.5468 105.149C79.4801 105.187 79.4293 105.248 79.4037 105.32C79.3781 105.393 79.3794 105.472 79.4073 105.543C82.8358 112.239 85.1923 120.468 85.516 123.089C77.7339 122.237 65.5246 122.305 56.3099 125.245C57.5581 122.397 62.4997 110.622 64.3552 98.5436C66.9364 97.8182 69.2406 94.155 69.4268 91.4926C78.2488 94.9196 85.9464 100.728 91.6627 108.271C98.3725 117.116 101.714 127.748 98.6426 138.315C96.9489 144.363 91.8684 148.489 85.0793 149.258C73.3633 150.677 62.1718 146.29 51.5613 141.196C50.5383 140.675 49.4861 140.213 48.4099 139.813C51.3434 135.518 53.8584 130.952 55.9204 126.177Z" fill="#1D1C1F"/>
<path d="M63.8586 69.4307C64.1358 69.128 64.4803 68.8948 64.8643 68.7499C65.2483 68.605 65.6609 68.5525 66.069 68.5965C66.7117 68.6914 66.8195 67.7177 66.199 67.7161C65.6679 67.6938 65.1388 67.7932 64.652 68.0067C64.1652 68.2201 63.7336 68.542 63.3901 68.9477C63.1079 69.2748 63.5601 69.7465 63.8586 69.4307ZM65.5763 72.1764C65.1724 72.4136 64.9817 73.8879 65.5276 73.9685C65.6544 73.9739 65.7793 73.9361 65.8818 73.8614C65.9843 73.7867 66.0585 73.6794 66.0922 73.557C66.4078 72.8209 66.004 71.9606 65.5763 72.1764ZM63.7276 79.3345C63.7213 79.2632 63.6932 79.1956 63.647 79.141C63.6008 79.0863 63.5389 79.0473 63.4697 79.0292C63.4005 79.0111 63.3273 79.0148 63.2603 79.0399C63.1933 79.0649 63.1357 79.1101 63.0953 79.1691C62.989 79.2794 62.7659 79.6333 63.0225 80.4539C63.1965 81.0124 63.569 81.4879 64.0696 81.7906C64.5703 82.0932 65.1644 82.2021 65.7398 82.0967C65.8184 82.0782 65.8874 82.0314 65.9338 81.9654C65.9802 81.8993 66.0007 81.8186 65.9914 81.7384C65.9822 81.6582 65.9438 81.5842 65.8836 81.5305C65.8234 81.4767 65.7455 81.447 65.6648 81.4468C64.3782 81.5087 63.7732 80.6097 63.7276 79.3345Z" fill="#1D1C1F"/>
</g>
<defs>
<clipPath id="clip0_13641_5014">
<rect width="178" height="178" fill="white" transform="translate(26 0.658203) rotate(8.4)"/>
</clipPath>
</defs>
</svg>
