<svg width="193" height="193" viewBox="0 0 193 193" fill="none" xmlns="http://www.w3.org/2000/svg">
<g clip-path="url(#clip0_14456_9181)">
<path d="M137.382 66.5093C137.635 66.5184 137.833 66.3313 137.846 66.0881L138.021 62.6778C137.67 62.8354 137.361 62.9777 137.109 63.1007L136.98 65.6037C134.43 65.5302 131.849 65.7819 129.366 66.3377C129.47 66.6189 129.574 66.8993 129.679 67.1805C132.192 66.6274 134.807 66.3968 137.382 66.5093Z" fill="#1D1C1F"/>
<path d="M146.002 58.8592C145.835 59.0025 145.58 59.1696 145.259 59.3531C147.259 62.9366 148.581 66.5241 148.071 70.229C147.955 70.8279 147.826 71.4029 147.551 71.8219C147.151 72.2973 146.648 72.7005 146.047 73.022C142.224 75.1709 138.113 76.8868 133.826 78.1212C133.777 78.1353 133.735 78.1551 133.698 78.1789C133.796 78.45 133.894 78.7211 133.991 78.9922C134.443 78.9473 140.661 77.0703 146.475 73.8028C147.168 73.4313 147.76 72.957 148.262 72.3547C148.658 71.7589 148.812 71.0889 148.948 70.3747C149.499 66.3777 148.097 62.59 146.002 58.8592Z" fill="#1D1C1F"/>
<path d="M146.471 58.4277C144.259 55.9535 144.578 56.5242 144.293 55.8773C144.214 55.6483 144.239 55.3879 144.391 55.1004C144.883 53.7342 145.158 52.404 145.233 51.01C145.227 47.4271 142.481 44.3457 138.843 43.843C136.911 43.5867 133.567 44.4314 131.668 46.094C129.62 47.8885 129.837 50.1449 131.266 50.6971C128.622 53.1512 130.497 59.1507 135.597 59.6408C135.641 60.9673 135.766 62.2999 135.968 63.609C136.032 64.0153 136.565 64.1232 136.783 63.7807C137.755 63.0997 145.466 60.2202 146.482 59.0102C146.624 58.8405 146.618 58.5926 146.471 58.4277ZM136.747 62.7814C136.59 61.5998 136.499 60.4017 136.474 59.213C136.469 58.9758 136.279 58.7842 136.042 58.7772C130.407 58.6091 129.544 51.1078 133.198 50.788C135.261 50.6076 135.729 51.896 134.995 52.5624C134.759 52.7769 134.559 52.8113 134.214 52.8415C133.662 52.8898 133.683 53.7091 134.237 53.7294C134.718 53.748 135.422 53.4934 135.868 53.2105C137.943 51.352 135.121 49.1492 132.264 49.8442C131.707 50.0859 131.106 49.7561 131.041 49.0604C131.043 46.1853 136.211 44.3894 138.723 44.7227C141.921 45.1657 144.337 47.8677 144.343 50.9851C144.273 52.267 144.015 53.5136 143.581 54.7353C143.339 55.18 143.291 55.7014 143.463 56.1974C143.854 57.1012 143.616 56.5512 145.505 58.6811C143.991 59.7239 138.374 61.9556 136.746 62.7797L136.747 62.7814Z" fill="#1D1C1F"/>
<path d="M169.293 133.507C163.676 129.991 157.316 128.176 150.902 128.258C150.785 128.26 150.681 128.305 150.602 128.379C150.682 128.633 150.761 128.888 150.841 129.143C150.864 129.146 150.888 129.149 150.913 129.148C157.05 129.07 163.138 130.778 168.542 134.089L167.723 137.198C161.162 135.476 154.33 135.627 147.951 137.58L146.284 139.084C150.659 137.462 158.459 135.566 167.922 138.174C168.159 138.24 168.407 138.098 168.47 137.858L169.487 133.998C169.537 133.809 169.458 133.611 169.293 133.507Z" fill="#1D1C1F"/>
<path d="M183.68 125.317C181.337 122.06 177.899 125.232 175.507 128.474C174.711 129.52 173.455 131.689 172.134 131.723C170.363 131.585 168.009 130.148 166.4 129.121C166.17 128.974 165.852 129.068 165.746 129.332C164.376 132.801 163.523 135.445 162.306 139.666C162.034 140.147 162.385 140.94 163.113 140.939C171.731 143.013 174.677 146.62 179.069 146.236C182.159 145.965 183.58 143.115 182.852 140.623C182.558 139.553 181.618 138.893 181.913 137.963C182.121 137.33 182.52 136.756 182.96 136.121C184.3 133.878 184.455 130.462 184.454 129.164C184.644 127.97 184.388 126.658 183.681 125.318L183.68 125.317Z" fill="#1D1C1F"/>
<path d="M98.913 150.713C91.3717 133.055 84.3788 114.968 77.9937 96.6183C77.6765 96.6175 77.3605 96.6103 77.0449 96.5977C83.466 115.073 90.5017 133.282 98.0914 151.054C98.9462 153.176 101.166 154.494 103.45 154.323C103.337 154.051 103.217 153.759 103.087 153.445C101.304 153.449 99.5781 152.362 98.9129 150.712L98.913 150.713Z" fill="#1D1C1F"/>
<path d="M151.548 129.911C142.055 98.1243 130.539 65.8349 117.325 33.9469C116.385 31.5311 113.625 30.1484 111.037 30.7965C98.0747 34.0497 83.8567 38.9253 68.6724 46.0322C66.4317 47.1038 62.9798 52.324 63.761 54.993C66.5888 64.6963 69.5929 74.3618 72.7641 83.9672C73.0753 83.9605 73.3858 83.9557 73.6975 83.9543C70.4962 74.2712 67.4656 64.5267 64.6156 54.744C64.195 53.3058 65.4644 50.578 66.978 48.6909C66.6093 49.7256 66.5544 50.8847 66.8844 52.0119C76.1838 84.1888 87.7347 116.511 101.215 148.072C102.159 150.417 104.77 151.779 107.29 151.238C121.39 148.304 135.151 143.456 148.206 136.823C147.354 137.492 146.369 138.117 145.415 138.635C135.428 143.771 125.019 147.854 114.357 150.825C114.395 151.12 114.429 151.415 114.459 151.71C126.385 148.388 137.611 143.855 145.835 139.42C149.711 137.33 152.987 134.339 151.548 129.911ZM148.538 135.654C135.336 142.445 121.397 147.394 107.107 150.368C105.034 150.808 102.814 149.658 102.037 147.731C88.5683 116.195 77.0285 83.9077 67.7391 51.7638C67.1094 49.6104 68.1698 47.3636 70.1838 46.4477C83.4853 40.3988 97.1935 35.1891 111.255 31.6601C113.403 31.1193 115.713 32.2573 116.499 34.2791C129.706 66.1473 141.21 98.4081 150.698 130.175C151.409 132.364 150.541 134.564 148.538 135.654Z" fill="#1D1C1F"/>
<path d="M103.014 145.405C90.2984 115.303 79.2188 84.2746 70.0815 53.1841C69.348 50.8254 70.514 48.1611 72.7372 47.125C84.6825 41.4128 97.2351 36.9233 110.044 33.7827C112.398 33.2622 114.886 34.5911 115.836 36.8701C128.339 67.2587 139.416 98.2519 148.759 128.991C149.428 131.51 148.288 134.052 146.325 135.123C134.518 141.563 121.773 145.914 108.691 148.505C106.268 148.929 103.948 147.643 103.014 145.405ZM110.744 34.5737C108.986 34.7275 91.3564 39.2092 73.1186 47.9306C71.2859 48.7842 70.3289 50.9781 70.9345 52.9273C80.0634 83.9926 91.1321 114.988 103.835 145.061C104.613 146.924 106.539 147.98 108.528 147.63C121.514 145.058 134.09 140.586 145.9 134.342C147.61 133.331 148.434 131.232 147.904 129.235C138.573 98.5382 127.507 67.5718 115.016 37.2108C114.297 35.4869 112.519 34.4184 110.744 34.5737Z" fill="#1D1C1F"/>
<path d="M105.955 166.931C102.834 167.204 100.205 166.904 95.5883 167.831C95.3633 167.874 95.1344 167.74 95.0728 167.515C94.6256 165.916 94.3134 164.483 94.0909 163.001C94.0618 162.812 94.1588 162.624 94.33 162.537C97.54 160.915 101.103 160.648 104.021 158.807C104.22 158.715 104.405 158.523 104.543 158.291C104.557 158.107 104.601 158.286 102.421 152.998C102.327 152.771 102.436 152.511 102.663 152.417C102.891 152.323 103.15 152.431 103.244 152.658C105.461 158.032 105.535 157.988 105.4 158.546C105.349 158.767 104.918 159.381 104.436 159.59C101.544 161.426 98.1104 161.715 95.0204 163.189C95.2147 164.399 95.4724 165.588 95.8203 166.878C98.1395 166.44 100.485 166.218 103.164 166.181C106.417 166.093 109.767 165.859 111.767 164.066C113.247 162.741 113.535 160.78 113.849 158.706C114.252 156.041 114.244 153.448 113.919 150.909C113.845 150.334 114.724 150.196 114.801 150.796C115.138 153.424 115.142 156.091 114.729 158.837C114.407 160.977 114.079 163.189 112.36 164.729C110.737 166.184 108.42 166.715 105.955 166.931Z" fill="#1D1C1F"/>
<path d="M99.7572 170.476C99.3269 169.459 98.4183 161.38 98.2971 159.996C98.2737 159.728 98.0198 159.542 97.7568 159.6C95.0368 160.207 92.205 160.2 89.3546 159.582C86.8106 158.943 83.6255 156.389 80.8557 158.53C79.584 159.475 78.9252 161.136 79.1792 162.772C79.3618 163.787 80.1298 164.713 79.8078 165.485C79.3777 166.103 78.9723 166.687 78.423 167.24C76.8368 169.39 76.2116 172.701 76.0239 173.986C75.3438 176.833 76.4681 179.738 79.0579 179.512C81.2656 179.319 83.7858 176.918 84.8607 175.786C85.947 174.397 87.3758 173.297 89.1929 172.438C90.4193 171.986 91.0594 172.001 99.5132 171.261C99.9113 171.226 100.062 170.726 99.758 170.475L99.7572 170.476Z" fill="#1D1C1F"/>
<path d="M58.7546 98.8498C57.9418 94.8587 57.7799 91.0482 59.4111 87.6249C59.608 87.2208 59.976 86.75 60.4194 86.3243C60.8828 85.9532 61.4466 85.7297 62.1059 85.6684C66.3122 84.7412 70.762 84.3197 75.3312 84.4158C75.5763 84.4194 75.7801 84.2264 75.7854 83.9803C75.7907 83.7341 75.596 83.5314 75.3499 83.5261C70.7073 83.4293 66.1876 83.8578 61.9711 84.7904C61.1926 84.8585 60.4631 85.1493 59.8329 85.6556C59.5163 85.9576 58.9369 86.5648 58.6081 87.2386C56.8511 90.9293 57.038 94.9645 57.9042 99.1369C58.1055 99.038 58.3965 98.9428 58.7538 98.8508L58.7546 98.8498Z" fill="#1D1C1F"/>
<path d="M79.0406 96.1557C75.4328 96.2855 71.8253 95.6729 68.3195 94.334C68.2085 94.291 68.0848 94.2955 67.9773 94.3442C67.7891 94.4295 67.8063 94.3699 66.5724 97.7388C66.9504 97.6995 67.2887 97.6645 67.5709 97.6336C67.8272 96.9375 68.1103 96.1703 68.4238 95.3219C71.9086 96.5947 75.4891 97.174 79.0729 97.0445C79.2993 97.039 79.5106 96.8293 79.5016 96.5835C79.4926 96.3377 79.2864 96.1467 79.0406 96.1557Z" fill="#1D1C1F"/>
<path d="M68.0517 101.486C68.3779 100.232 68.697 98.9361 68.8466 97.5824C68.8787 97.2865 68.618 97.0431 68.3268 97.0945C67.36 97.2666 58.7791 97.9021 57.4579 98.8834C57.306 98.9959 57.242 99.1935 57.2989 99.3744C57.5792 100.26 58.0301 100.992 58.397 101.837C58.4127 101.873 58.4336 101.908 58.4577 101.939C58.6533 102.182 58.7712 102.703 58.336 103.222C57.5035 104.214 56.7803 105.455 56.2328 106.846C55.1776 110.409 56.8029 114.118 60.1084 115.67C62.6092 116.754 65.5528 116.241 68.1135 115.304C68.7015 115.132 69.3109 114.735 69.7313 114.231C70.3614 113.284 69.843 112.138 69.3302 112.015C69.0674 111.953 68.854 111.872 68.5582 111.8C68.392 111.687 68.2506 111.736 67.9737 111.409C68.2619 111.537 68.5703 111.6 68.9156 111.565C69.8294 111.369 70.6611 110.715 71.0229 109.929C72.7784 106.721 71.3364 102.78 68.0534 101.485L68.0517 101.486ZM70.2259 109.529C69.9676 110.09 69.3654 110.559 68.7817 110.688C68.3011 110.73 67.7372 110.289 67.8672 109.824C68.0079 109.318 67.3008 109.028 67.0483 109.491C66.4282 110.624 66.8999 112.042 68.0517 112.555C68.1876 112.618 68.2432 112.661 68.3745 112.672C68.5992 112.728 68.7736 112.79 69.0022 112.851C69.1848 113.069 69.1871 113.443 69.0209 113.698C68.745 114.026 68.28 114.328 67.8367 114.459C64.8543 115.549 62.3742 115.681 60.4761 114.858C57.5833 113.501 56.1587 110.237 57.0747 107.136C58.3673 103.866 59.6287 103.733 59.518 102.468C59.4916 102.165 59.459 101.793 59.1934 101.432C58.8889 100.74 58.5208 100.096 58.2726 99.4545C59.8973 98.8174 66.1809 98.2382 67.8911 98.0474C67.7097 99.2824 67.3951 100.487 67.0901 101.656C67.0297 101.885 67.1603 102.121 67.3863 102.193C70.3868 103.137 71.8116 106.618 70.2286 109.529L70.2259 109.529Z" fill="#1D1C1F"/>
<path d="M119.185 36.1062C118.559 35.9172 117.901 35.8961 117.434 36.0352C104.261 38.1419 91.9089 42.9167 82.7009 47.0252C80.3046 48.0943 76.0681 49.6773 70.5182 53.2406C68.5233 54.4667 65.4695 56.8646 64.4816 58.46C58.9847 59.493 53.9624 52.9112 50.9404 48.8712C47.192 43.8611 46.75 43.8336 46.8396 43.8258C41.536 38.3791 34.4588 35.1968 26.9121 34.8681C26.4131 34.8519 26.2645 35.543 26.729 35.7266C27.3713 35.9804 27.7757 36.6311 27.7001 37.2274C27.4935 38.0924 27.1092 38.7854 26.5534 39.2637C24.9125 41.0127 22.7968 42.0948 20.4358 42.3934C19.8853 42.463 19.9383 43.283 20.4937 43.2799C25.1038 43.2608 29.6024 43.6221 34.246 44.3844C38.6632 45.1335 42.5176 47.505 45.0949 51.0568C46.4087 52.9521 47.3971 55.2224 49.0273 56.863C51.8229 59.7757 57.0921 61.4293 61.672 61.1269C52.3957 64.6482 44.673 59.5096 35.6737 58.2832C25.6769 56.9091 15.6174 60.5766 8.76422 68.0938C8.43739 68.4529 8.84373 69.0026 9.2831 68.7962C10.7837 68.0877 12.4912 69.9387 12.7969 71.5951C13.1542 73.4829 12.7485 75.6366 13.5331 77.6103C13.7484 78.1507 14.5797 77.8394 14.3603 77.2815C13.7349 75.7093 17.3692 71.8178 18.2245 70.7084C20.0953 68.38 22.6845 66.5239 25.7589 65.5358C33.7231 62.9771 40.1789 65.9806 44.9935 66.7467C52.5248 68.1765 59.4077 66.6461 64.6121 62.4323C65.0886 62.3647 65.6754 62.148 66.361 61.5806C68.8251 59.5398 72.0672 58.3851 75.2078 57.2652C80.1601 55.5007 91.6146 50.4184 116.168 43.5102C117.211 43.2171 120.166 43.1953 121.195 42.0922C122.36 40.844 120.846 36.8651 119.185 36.1062Z" fill="#1D1C1F"/>
<path d="M133.544 12.4539C133.003 11.8865 132.131 11.618 131.466 11.7924C129.85 12.0355 128.38 12.8619 127.324 14.1176C125.738 15.9261 124.296 18.5921 122.918 22.2694C122.803 22.576 123.048 22.8977 123.373 22.8692C124.224 22.7947 123.411 20.7253 128.535 17.8318C129.994 16.9992 135.499 15.181 133.544 12.4539ZM128.095 17.0582C127.232 17.5455 126.203 18.1841 125.262 19.0168C126.137 17.2161 127.053 15.8003 127.996 14.702C128.939 13.6037 130.21 12.8822 131.644 12.6639C132.046 12.56 132.575 12.7281 132.859 13.0187C134.023 14.6607 129.509 16.251 128.095 17.0582Z" fill="#1D1C1F"/>
<path d="M149.67 18.8804C147.452 17.6665 143.568 17.9339 141.283 18.5814C138.336 19.4155 135.719 20.6674 133.262 22.3279C132.827 22.6214 133.175 23.2959 133.666 23.1135C139.995 20.7516 145.803 23.7831 148.652 23.5338C150.908 23.3365 152.964 20.6818 149.67 18.8804ZM149.828 22.1686C148.802 23.0517 146.937 22.5028 145.725 22.2568C142.552 21.6125 139.604 21.0011 136.416 21.4792C138.019 20.6439 139.709 19.969 141.524 19.4367C143.919 18.8198 147.354 18.6283 149.242 19.6603C150.011 20.0817 150.459 20.5651 150.502 21.0214C150.537 21.3838 150.307 21.7559 149.827 22.1678L149.828 22.1686Z" fill="#1D1C1F"/>
<path d="M93.6129 66.0309C85.8338 66.7115 88.0406 52.5492 93.899 51.9205C94.8594 51.7266 95.9905 52.0636 96.7347 52.7892C100.243 56.0049 99.1215 65.5489 93.6129 66.0309ZM94.2545 52.7676C89.4119 53.1913 87.4785 64.0044 92.1931 65.0482C97.834 66.2834 99.4813 56.7032 96.1181 53.431C95.6386 52.9637 94.9151 52.7098 94.2545 52.7676Z" fill="#1D1C1F"/>
<path d="M106.381 60.8942C101.951 60.165 98.8464 55.9374 100.152 51.7466C101.003 48.9572 102.987 48.906 104.094 49.1236C107.409 49.7761 111.143 54.2558 110.865 57.2472C110.458 61.7909 106.284 60.9026 106.381 60.8942ZM106.524 60.016C108.465 60.3295 109.778 59.4033 109.978 57.1666C110.337 53.3124 102.677 46.5093 101.002 52.009C99.8571 55.6855 102.645 59.3895 106.524 60.016Z" fill="#1D1C1F"/>
<path d="M98.3596 56.1315C98.1729 54.5799 95.7797 53.1928 94.3363 54.9129C93.4965 55.9129 93.5308 57.5206 94.4481 58.6107C96.1816 60.2477 98.5737 57.9148 98.3596 56.1315Z" fill="#1D1C1F"/>
<path d="M108.069 52.8349C107.889 51.5373 105.64 49.8097 104.125 51.6219C103.195 52.6064 103.18 54.2257 104.124 55.3474C105.866 56.9925 108.296 54.4652 108.069 52.8349Z" fill="#1D1C1F"/>
<path d="M109.76 63.9799C109.529 63.8938 109.273 64.0109 109.187 64.2409C106.402 71.7069 92.8802 72.5262 87.3123 65.3453C87.4453 65.3435 87.58 65.3621 87.713 65.4014C87.9469 65.4711 88.196 65.3368 88.2657 65.1011C88.5633 64.0923 85.618 64.0945 85.1819 66.1767C85.1208 66.4688 85.3588 66.7375 85.6567 66.7114C85.8473 66.6947 86.012 66.5553 86.0538 66.3595C86.1087 66.0983 86.2487 65.8609 86.4501 65.6816C92.3078 73.6019 106.946 72.793 110.021 64.553C110.107 64.3221 109.99 64.0661 109.76 63.9799Z" fill="#1D1C1F"/>
<path d="M117.599 125.973C107.513 126.856 98.573 119.195 97.6721 108.897C96.7711 98.5993 104.245 89.5028 114.331 88.6204C124.417 87.7379 133.356 95.3985 134.257 105.697C135.158 115.995 127.686 125.091 117.599 125.973ZM114.408 89.507C104.811 90.3467 97.7005 99.0103 98.5587 108.82C99.4169 118.629 107.924 125.927 117.521 125.087C127.119 124.247 134.229 115.584 133.371 105.774C132.512 95.9646 124.006 88.6673 114.408 89.507Z" fill="#1D1C1F"/>
<path d="M137.961 128.281C136.85 124.984 136.916 125.146 136.855 125.062C136.055 123.96 135.101 124.203 134.948 124.25C127.936 126.363 121.968 128.447 116.702 130.596C115.937 130.908 115.586 131.644 115.799 132.461L116.834 135.53C117.028 136.283 117.817 136.734 118.705 136.504C124.211 134.893 130.262 132.944 137.059 130.146C137.823 129.832 138.175 129.098 137.962 128.281L137.961 128.281ZM118.467 135.646C118.136 135.734 117.781 135.633 117.685 135.276L116.65 132.207C116.557 131.848 116.698 131.558 117.037 131.419C121.227 129.707 125.919 128.153 131.177 126.414L132.755 130.835C127.555 132.78 122.848 134.364 118.467 135.646ZM136.719 129.323C135.664 129.757 134.613 130.138 133.589 130.524L132.022 126.136C133.06 125.795 134.12 125.45 135.205 125.102C135.615 125 135.956 125.359 136.095 125.534L137.107 128.535C137.2 128.894 137.058 129.183 136.718 129.324L136.719 129.323Z" fill="#1D1C1F"/>
<path d="M111.713 138.285C110.411 138.399 109.254 137.388 109.135 136.033C109.016 134.677 109.979 133.482 111.283 133.368C112.586 133.254 113.742 134.264 113.861 135.619C113.979 136.975 113.016 138.171 111.713 138.285ZM111.36 134.254C110.546 134.325 109.946 135.088 110.022 135.955C110.097 136.822 110.821 137.469 111.635 137.398C112.449 137.327 113.05 136.564 112.974 135.697C112.898 134.83 112.174 134.183 111.36 134.254Z" fill="#1D1C1F"/>
<path d="M117.168 95.6249C115.283 95.7898 113.884 97.4568 114.049 99.3418C114.214 101.227 115.881 102.626 117.766 102.461C119.651 102.296 121.05 100.629 120.885 98.7437C120.72 96.8588 119.053 95.4599 117.168 95.6249Z" fill="#1D1C1F"/>
<path d="M111.139 102.981C109.219 103.149 107.489 104.365 106.785 106.263C106.493 107.353 107.397 108.656 108.567 107.848C109.492 107.209 109.679 106.238 111.04 106.278C112.104 106.309 112.852 107.086 112.848 108.15C112.865 108.342 112.786 108.543 112.715 108.839C111.439 114.183 108.432 113.947 107.341 114.822C106.911 115.439 107.083 116.295 107.692 116.629L107.796 116.716C108.501 117.041 109.183 117.157 109.94 116.915C110.877 116.617 111.818 116.268 112.535 115.624C113.261 115.077 113.956 114.17 114.913 114.063C122.526 113.204 121.272 116.233 123.155 116.533C123.547 116.595 124.01 116.361 124.273 116.048C124.957 115.022 123.934 113.273 123.203 112.66C122.168 111.88 119.59 111.825 119.801 110.25C119.867 109.763 119.917 109.37 120.076 108.969C120.794 107.15 123.073 108.78 124.894 105.453C125.227 104.844 125.273 104.259 125.214 103.587C125.051 102.827 124.194 101.762 123.361 102.298C122.999 102.532 122.844 103.02 122.59 103.43C120.248 106.632 115.532 102.327 111.14 102.98L111.139 102.981Z" fill="#1D1C1F"/>
<path d="M93.659 85.5581C93.2079 84.8239 91.9742 84.947 91.427 85.463C91.0771 85.7938 90.9188 86.2812 90.8641 86.7693C90.455 86.5147 89.9502 86.2695 89.4621 86.2148C88.5901 86.1946 87.8727 86.8372 87.8441 87.6133C87.7903 88.1014 88.0212 88.4635 88.3371 88.8272C89.1072 89.7158 90.7665 90.0656 91.8552 90.3572C92.3771 90.5634 92.9834 90.2433 93.2531 89.7515C93.6573 88.0607 94.2824 86.7204 93.659 85.5581Z" fill="#1D1C1F"/>
<path d="M111.069 78.97C111.19 79.2498 111.399 79.4245 111.52 79.7042C111.842 80.0629 112.434 80.2041 112.914 80.1621C113.298 80.1286 113.665 79.9035 114.144 79.8615C115.008 79.7859 115.73 80.3026 116.086 81.0452C116.362 81.2765 115.906 81.5263 115.568 81.648C113.877 82.2542 112.186 82.8515 110.479 83.276C110.082 82.0538 109.781 80.823 109.48 79.5924C109.376 79.505 109.455 79.3043 109.55 79.2959C109.686 79.284 109.456 79.3488 110.868 78.8902L111.068 78.9692L111.069 78.97Z" fill="#1D1C1F"/>
<path d="M111.316 84.9099C110.8 84.955 110.639 84.224 111.126 84.0483L112.067 83.7068C112.299 83.6231 112.554 83.742 112.637 83.9732C112.721 84.2044 112.602 84.4596 112.371 84.5433C111.488 84.8626 111.406 84.902 111.316 84.9099Z" fill="#1D1C1F"/>
<path d="M114.181 83.9245C113.659 83.9702 113.504 83.2252 114.002 83.0593L116.115 82.3527C116.346 82.2744 116.599 82.4006 116.678 82.6331C116.755 82.8667 116.63 83.118 116.397 83.1965C114.22 83.9239 114.27 83.9168 114.181 83.9245Z" fill="#1D1C1F"/>
<path d="M96.969 85.8121C96.4468 85.8578 96.2923 85.1128 96.7897 84.9469L101.487 83.3754C101.72 83.2978 101.973 83.4231 102.051 83.6558C102.128 83.8884 102.003 84.1406 101.769 84.2191C97.2078 85.743 97.0594 85.8042 96.969 85.8121Z" fill="#1D1C1F"/>
<path d="M97.6835 88.4554C97.1604 88.5012 97.0068 87.7561 97.5042 87.5902L103.8 85.4921C104.033 85.4153 104.285 85.5407 104.363 85.7733C104.441 86.0069 104.314 86.2582 104.082 86.3367C97.288 88.6017 97.774 88.4475 97.6835 88.4554Z" fill="#1D1C1F"/>
<path d="M118.824 78.0969C118.3 78.1427 118.147 77.3958 118.647 77.2306L125.038 75.1241C125.271 75.0474 125.523 75.1737 125.6 75.4072C125.677 75.6408 125.551 75.8922 125.317 75.9689C118.483 78.225 118.915 78.0881 118.825 78.0959L118.824 78.0969Z" fill="#1D1C1F"/>
<path d="M119.636 80.7341C119.124 80.7789 118.958 80.059 119.438 79.875L123.368 78.3707C123.596 78.2837 123.855 78.3978 123.942 78.6268C124.03 78.8559 123.915 79.1134 123.685 79.2015C119.45 80.8227 119.724 80.7255 119.635 80.7333L119.636 80.7341Z" fill="#1D1C1F"/>
<path d="M81.0074 85.4977C80.4878 85.5432 80.3303 84.8047 80.8237 84.6338L127.504 68.4326C127.737 68.3542 127.99 68.4749 128.07 68.7083C128.15 68.9407 128.027 69.1945 127.795 69.2746L81.0066 85.4987L81.0074 85.4977Z" fill="#1D1C1F"/>
</g>
<defs>
<clipPath id="clip0_14456_9181">
<rect width="178" height="178" fill="white" transform="translate(0 15.5137) rotate(-5)"/>
</clipPath>
</defs>
</svg>
