<svg width="23" height="23" viewBox="0 0 23 23" fill="none" xmlns="http://www.w3.org/2000/svg">
<path d="M2.33301 11.5007H7.48926M7.28301 5.08398H4.16634C3.3021 5.08398 2.86998 5.08398 2.60149 5.35247C2.33301 5.62096 2.33301 6.05308 2.33301 6.91732V16.084C2.33301 16.9482 2.33301 17.3803 2.60149 17.6488C2.86998 17.9173 3.3021 17.9173 4.16634 17.9173H7.28301C9.10555 17.9173 10.583 16.4809 10.583 14.709C10.583 12.9371 9.10555 11.5007 7.28301 11.5007C9.10555 11.5007 10.583 10.0642 10.583 8.29232C10.583 6.5204 9.10555 5.08398 7.28301 5.08398Z" stroke="#1D1C1F" strokeWidth="1.5" strokeLinecap="round" strokeLinejoin="round"/>
<path d="M18.833 6.91602H15.1663M13.333 13.3327H20.6663C20.6663 11.4615 19.0247 9.66602 16.9997 9.66602C14.9747 9.66602 13.333 11.4615 13.333 13.3327ZM13.333 13.3327V14.2493C13.333 16.2744 14.9747 17.916 16.9997 17.916C18.3569 17.916 19.5419 17.1786 20.1758 16.0827" stroke="#1D1C1F" strokeWidth="1.5" strokeLinecap="round" strokeLinejoin="round"/>
</svg>
