<svg width="23" height="23" viewBox="0 0 23 23" fill="none" xmlns="http://www.w3.org/2000/svg">
<path d="M11.4997 20.6673C16.5623 20.6673 20.6663 16.5633 20.6663 11.5007C20.6663 6.43804 16.5623 2.33398 11.4997 2.33398C6.43706 2.33398 2.33301 6.43804 2.33301 11.5007C2.33301 16.5633 6.43706 20.6673 11.4997 20.6673Z" stroke="#1D1C1F" strokeWidth="1.5"/>
<path d="M20.6667 12.6584C19.8171 12.4991 18.9433 12.416 18.0516 12.416C13.1452 12.416 8.78149 14.93 6 18.8327" stroke="#1D1C1F" strokeWidth="1.5" strokeLinejoin="round"/>
<path d="M17.9163 5.08398C15.0476 8.44579 10.7369 10.584 5.91683 10.584C4.68368 10.584 3.48386 10.444 2.33301 10.1795" stroke="#1D1C1F" strokeWidth="1.5" strokeLinejoin="round"/>
<path d="M13.9 20.6667C14.1297 19.5538 14.2503 18.4013 14.2503 17.2206C14.2503 11.431 11.3484 6.31758 6.91699 3.25" stroke="#1D1C1F" strokeWidth="1.5" strokeLinejoin="round"/>
</svg>
