<svg width="24" height="24" viewBox="0 0 64 64" fill="none" xmlns="http://www.w3.org/2000/svg">
  <path d="M51.9713 62H12.0288C6.50924 62 2 57.4908 2 51.9713V12.0287C2 6.50924 6.50924 2 12.0288 2H51.9713C57.4908 2 62 6.50924 62 12.0287V51.9713C62 57.5154 57.5154 62 51.9713 62Z" stroke="#1D1C1F" stroke-width="4"/>
  <path d="M21.1225 42.9029C24.0301 45.8105 27.8987 47.4121 32.0137 47.4121C36.1287 47.4121 39.9726 45.8105 42.9049 42.9029C45.8125 39.9953 47.4141 36.1267 47.4141 32.0117C47.4141 27.8967 45.8125 24.0282 42.9049 21.1206C39.9973 18.213 36.1287 16.6113 32.0137 16.6113C27.8987 16.6113 24.0301 18.213 21.1225 21.1206C18.2149 24.0282 16.6133 27.8967 16.6133 32.0117C16.6133 36.1267 18.2149 39.9953 21.1225 42.9029Z" stroke="#1D1C1F" stroke-width="4"/>
  <path d="M50.414 16.1053C52.0471 16.1053 53.3709 14.7814 53.3709 13.1484C53.3709 11.5153 52.0471 10.1914 50.414 10.1914C48.7809 10.1914 47.457 11.5153 47.457 13.1484C47.457 14.7814 48.7809 16.1053 50.414 16.1053Z" stroke="#1D1C1F" stroke-width="4"/>
</svg>
