<svg width="23" height="23" viewBox="0 0 23 23" fill="none" xmlns="http://www.w3.org/2000/svg">
<path d="M2.79199 11.4993C2.79199 7.3942 2.79199 5.34163 4.0673 4.06632C5.34261 2.79102 7.39518 2.79102 11.5003 2.79102C15.6054 2.79102 17.658 2.79102 18.9334 4.06632C20.2087 5.34163 20.2087 7.3942 20.2087 11.4993C20.2087 15.6045 20.2087 17.6571 18.9334 18.9324C17.658 20.2077 15.6054 20.2077 11.5003 20.2077C7.39518 20.2077 5.34261 20.2077 4.0673 18.9324C2.79199 17.6571 2.79199 15.6045 2.79199 11.4993Z" stroke="#1D1C1F" stroke-width="1.5" stroke-linejoin="round"/>
<path d="M15.625 11.5C15.625 13.7782 13.7782 15.625 11.5 15.625C9.22183 15.625 7.375 13.7782 7.375 11.5C7.375 9.22183 9.22183 7.375 11.5 7.375C13.7782 7.375 15.625 9.22183 15.625 11.5Z" stroke="#1D1C1F" stroke-width="1.5"/>
<path d="M16.55 6.45898H16.541" stroke="#1D1C1F" stroke-width="2" stroke-linecap="round" stroke-linejoin="round"/>
</svg>
