<svg width="23" height="23" viewBox="0 0 23 23" fill="none" xmlns="http://www.w3.org/2000/svg">
<path d="M4.62467 9.20898H4.16634C3.3021 9.20898 2.86998 9.20898 2.60149 9.47747C2.33301 9.74597 2.33301 10.1781 2.33301 11.0423V18.834C2.33301 19.6982 2.33301 20.1303 2.60149 20.3988C2.86998 20.6673 3.3021 20.6673 4.16634 20.6673H4.62467C5.48892 20.6673 5.92103 20.6673 6.18953 20.3988C6.45801 20.1303 6.45801 19.6982 6.45801 18.834V11.0423C6.45801 10.1781 6.45801 9.74597 6.18953 9.47747C5.92103 9.20898 5.48892 9.20898 4.62467 9.20898Z" stroke="#1D1C1F" strokeWidth="1.5"/>
<path d="M6.45801 4.39648C6.45801 5.53557 5.53459 6.45898 4.39551 6.45898C3.25642 6.45898 2.33301 5.53557 2.33301 4.39648C2.33301 3.2574 3.25642 2.33398 4.39551 2.33398C5.53459 2.33398 6.45801 3.2574 6.45801 4.39648Z" stroke="#1D1C1F" strokeWidth="1.5"/>
<path d="M11.7985 9.20898H11.0413C10.1771 9.20898 9.74499 9.20898 9.47649 9.47747C9.20801 9.74597 9.20801 10.1781 9.20801 11.0423V18.834C9.20801 19.6982 9.20801 20.1303 9.47649 20.3988C9.74499 20.6673 10.1771 20.6673 11.0413 20.6673H11.4997C12.3639 20.6673 12.796 20.6673 13.0645 20.3988C13.333 20.1303 13.333 19.6982 13.333 18.834L13.3331 15.6257C13.3331 14.107 13.8171 12.8757 15.2469 12.8757C15.9617 12.8757 16.5413 13.4914 16.5413 14.2507V18.3757C16.5413 19.24 16.5413 19.6721 16.8098 19.9406C17.0782 20.2091 17.5104 20.2091 18.3747 20.2091H18.8318C19.6959 20.2091 20.1279 20.2091 20.3964 19.9407C20.6649 19.6723 20.665 19.2403 20.6651 18.3762L20.6664 13.3342C20.6664 11.0561 18.4997 9.2092 16.3551 9.2092C15.1342 9.2092 14.045 9.80766 13.3331 10.7435C13.333 10.1659 13.333 9.87714 13.2076 9.66273C13.1281 9.52694 13.015 9.41389 12.8793 9.33445C12.6648 9.20898 12.3761 9.20898 11.7985 9.20898Z" stroke="#1D1C1F" strokeWidth="1.5" strokeLinejoin="round"/>
</svg>
