<svg width="101" height="53" viewBox="0 0 101 53" fill="none" xmlns="http://www.w3.org/2000/svg">
<mask id="mask0_1_2133" style="mask-type:alpha" maskUnits="userSpaceOnUse" x="0" y="6" width="25" height="42">
<path d="M3.70419 25.7607C3.85685 29.0181 4.85502 32.2569 6.27595 35.1862C7.81313 38.3528 10.1453 40.7296 13.2491 42.4094C16.1144 43.9497 19.4201 45.5691 22.855 47.0012L24.1221 46.601C22.1386 45.9518 20.1787 45.2306 18.5264 44.5209C16.3281 43.5809 14.1122 42.6107 12.0912 41.3124C9.83766 39.8687 8.075 37.9282 6.86311 35.5503C5.30244 32.493 4.14456 29.0053 4.0647 25.5606C3.98485 22.4068 4.68944 19.2704 5.99998 16.4016C7.02868 14.1458 8.3815 11.8947 10.0291 9.96008C10.2862 9.97869 10.5246 9.94844 10.7454 9.89376C11.0449 9.82047 11.3091 9.68203 11.5592 9.51219C11.6872 9.42726 11.8046 9.3307 11.9138 9.22716C12.036 9.12363 12.1405 9.00845 12.2509 8.89328C12.4529 8.65712 12.6548 8.40235 12.8322 8.14176C13.1939 7.62058 13.4933 7.08078 13.7141 6.67361C13.8303 6.46769 13.9161 6.29784 13.9771 6.18267C14.0077 6.12218 14.0323 6.07332 14.0441 6.04307C14.0558 6.01282 14.0687 6.00119 14.0687 6.00119C14.0687 6.00119 14.0499 6.00119 14.0135 6.00119C13.983 6.00119 13.9278 6.00701 13.8609 6.01282C13.7258 6.03725 13.5297 6.0675 13.2972 6.12218C12.8322 6.23735 12.2074 6.43745 11.6015 6.76551C11.0073 7.09358 10.4201 7.53565 10.0584 8.08126C9.87523 8.34767 9.75193 8.64549 9.69086 8.95494C9.64154 9.21553 9.65446 9.49474 9.72727 9.77976C8.87002 10.8105 8.09262 11.9203 7.40094 13.0371C5.03352 16.8332 3.5022 21.2539 3.70419 25.7607Z" fill="black"/>
<path d="M13.7333 46.3004C12.9547 46.1689 12.2407 45.9211 11.7252 45.7024C11.2096 45.4837 10.8879 45.2999 10.8879 45.2999C10.8879 45.2999 11.2167 45.1707 11.7193 45.0044C12.2243 44.8345 12.8971 44.6228 13.6088 44.4506C14.3204 44.2808 15.0591 44.1551 15.739 44.1854C16.0819 44.1993 16.4048 44.2575 16.7184 44.368C17.0331 44.4809 17.3267 44.6496 17.6484 44.8904C17.4406 45.593 16.8182 46.0386 16.0866 46.2422C15.3515 46.4516 14.5071 46.4341 13.7333 46.3004Z" fill="black"/>
<path d="M17.5513 43.7768C17.2366 43.7174 16.9454 43.5708 16.6811 43.3777C16.155 42.9845 15.7534 42.3854 15.4775 41.7711C15.2003 41.1569 15.0477 40.5252 14.9666 40.0552C14.9279 39.819 14.9044 39.6224 14.8903 39.4863C14.8786 39.3479 14.875 39.2688 14.875 39.2688C14.875 39.2688 15.1216 39.3991 15.481 39.6224C15.8415 39.847 16.3194 40.1622 16.7857 40.5368C17.253 40.9137 17.7051 41.3523 18.0257 41.8572C18.3428 42.3679 18.546 42.9485 18.526 43.6837C18.2031 43.8233 17.8649 43.8384 17.5513 43.7768Z" fill="black"/>
<path d="M8.50021 41.0902C9.23534 41.1135 9.98338 41.1658 10.6234 41.3601C11.2646 41.5567 11.8012 41.8952 12.1523 42.5176C11.7131 43.1063 11.0825 43.3785 10.3721 43.4111C9.66162 43.4448 8.876 43.2401 8.15496 42.9167C7.43393 42.5933 6.77984 42.1535 6.3195 41.7743C6.08699 41.5904 5.90262 41.4171 5.77579 41.2984C5.65014 41.1763 5.58086 41.103 5.58086 41.103C5.58086 41.103 5.93315 41.096 6.49448 41.0867C7.03936 41.0844 7.76627 41.0693 8.50021 41.0902Z" fill="black"/>
<path d="M13.3913 41.4377C12.6926 41.4749 12.1277 41.141 11.7249 40.6326C11.3221 40.1254 11.0826 39.4507 10.9851 38.791C10.8853 38.1303 10.9193 37.4974 10.9968 37.0367C11.0332 36.8064 11.072 36.6214 11.1084 36.4888C11.1425 36.3585 11.1659 36.2863 11.1659 36.2863C11.1659 36.2863 11.2106 36.3294 11.2834 36.4085C11.3609 36.4888 11.4689 36.6039 11.5957 36.7494C11.8553 37.0402 12.2087 37.4427 12.5552 37.915C12.9004 38.3885 13.2421 38.9295 13.4347 39.5228C13.6261 40.1161 13.6766 40.7618 13.3913 41.4377Z" fill="black"/>
<path d="M3.7549 37.8282C3.68209 37.7409 3.61045 37.6502 3.53999 37.5618L3.43783 37.4257L3.3568 37.3163C3.25229 37.1732 3.15482 37.0313 3.06205 36.8917C2.87768 36.6136 2.71914 36.3472 2.5888 36.1181C2.45962 35.8877 2.35863 35.6934 2.29169 35.5573C2.22593 35.4189 2.1954 35.3351 2.1954 35.3351C2.1954 35.3351 2.52069 35.4293 3.02564 35.5841C3.5259 35.7423 4.1847 35.9726 4.82353 36.2704C4.98441 36.3461 5.14177 36.4228 5.29913 36.5101C5.46705 36.6043 5.63263 36.6997 5.78999 36.7963C5.9497 36.8928 6.10823 36.9859 6.25502 37.0871C6.40298 37.186 6.55095 37.2826 6.6813 37.3896C7.22031 37.8061 7.61958 38.2842 7.78516 38.9892C7.1933 39.4289 6.49928 39.5046 5.78529 39.2754C5.07131 39.0543 4.34323 38.5227 3.7549 37.8282Z" fill="black"/>
<path d="M8.03945 34.8852C8.225 34.2325 8.49391 33.6415 8.71703 33.2204C8.82977 33.0075 8.92606 32.84 9.00709 32.7202C9.08342 32.6027 9.13157 32.5363 9.13157 32.5363C9.13157 32.5363 9.15858 32.6015 9.20203 32.7178C9.25135 32.833 9.32298 32.9982 9.39931 33.2018C9.47564 33.4054 9.55785 33.6473 9.63418 33.9161C9.70698 34.1767 9.78919 34.5094 9.81032 34.7072C9.87374 35.1737 9.95007 35.7297 9.91836 36.3196C9.87961 36.9047 9.73047 37.5271 9.2631 38.0937C8.59021 37.9389 8.14866 37.441 7.95843 36.8326C7.9138 36.6802 7.87505 36.5231 7.85861 36.3614C7.84452 36.1974 7.83747 36.0357 7.84804 35.8717C7.86213 35.7076 7.88444 35.5459 7.91732 35.3889C7.95255 35.2179 7.99365 35.0492 8.03945 34.8852Z" fill="black"/>
<path d="M0.575478 29.7791C0.537899 29.6279 0.523808 29.5383 0.523808 29.5383C0.523808 29.5383 0.820911 29.6954 1.29534 29.9478C1.75802 30.2002 2.36397 30.5527 2.93938 30.9611C3.53359 31.3636 4.11957 31.8185 4.50005 32.342C4.59165 32.4746 4.68912 32.6049 4.76662 32.7433C4.84413 32.8806 4.90872 33.0237 4.95451 33.1714C5.04963 33.4681 5.07429 33.788 5.0144 34.1405C4.30746 34.3429 3.65454 34.1871 3.06738 33.8148C2.92059 33.7229 2.77967 33.6158 2.6411 33.5007C2.50488 33.3843 2.36631 33.2587 2.25123 33.1179C2.01167 32.8411 1.79325 32.5328 1.59714 32.2163C1.18965 31.5916 0.943038 30.9076 0.768064 30.3992C0.681165 30.1432 0.616579 29.9292 0.575478 29.7791Z" fill="black"/>
<path d="M6.70714 33.5598C6.42531 33.3644 6.22215 33.1177 6.08476 32.8432C6.01547 32.7071 5.9638 32.5605 5.92505 32.4116C5.88747 32.2603 5.85929 32.1068 5.86046 31.9451C5.85694 31.3006 6.04483 30.6247 6.33136 30.0232C6.63669 29.4171 7.01364 28.8959 7.31309 28.5318C7.46341 28.348 7.59023 28.2049 7.6924 28.1049C7.79222 28.006 7.84976 27.9525 7.84976 27.9525C7.84976 27.9525 7.86503 28.0188 7.88381 28.1363C7.90965 28.2526 7.9484 28.4213 7.98363 28.6284C8.05996 29.0414 8.09871 29.6056 8.13629 30.207C8.14804 30.5072 8.13629 30.8224 8.09637 31.1354C8.08345 31.2157 8.07171 31.2924 8.05996 31.3704C8.05057 31.4483 8.03882 31.5239 8.02473 31.6007C7.99655 31.7543 7.9578 31.9079 7.90847 32.0544C7.71589 32.6477 7.3495 33.1934 6.70714 33.5598Z" fill="black"/>
<path d="M2.15368 25.3526C2.27346 25.4829 2.38972 25.6178 2.50363 25.7551C2.61401 25.8924 2.72557 26.0308 2.83831 26.1704C3.05555 26.4508 3.24345 26.7381 3.37849 27.0313C3.44778 27.179 3.49945 27.3279 3.54525 27.478C3.59574 27.6292 3.6298 27.7793 3.64741 27.9329C3.68264 28.2412 3.64624 28.5588 3.52058 28.8915C2.78546 28.959 2.17599 28.6809 1.66986 28.1946C1.54421 28.076 1.42443 27.9422 1.31169 27.7979C1.20248 27.6525 1.10971 27.4978 1.01811 27.3361C0.837266 27.0115 0.684607 26.659 0.554257 26.3042C0.484972 26.1274 0.440349 25.947 0.396899 25.769C0.354623 25.5911 0.317043 25.4165 0.284162 25.2479C0.220748 24.907 0.165556 24.5906 0.145593 24.316C0.112712 23.7681 0.123281 23.4074 0.123281 23.4074C0.123281 23.4074 0.3922 23.6308 0.773854 23.9891C1.14142 24.3463 1.67221 24.8267 2.15368 25.3526Z" fill="black"/>
<path d="M4.80094 27.6869C4.75984 27.5403 4.73518 27.3902 4.72696 27.2366C4.72344 27.0831 4.74457 26.926 4.77393 26.769C4.835 26.4572 4.94655 26.1489 5.09217 25.8523C5.12857 25.7778 5.16733 25.7045 5.20725 25.6336C5.2507 25.5603 5.29885 25.4905 5.347 25.4207C5.44329 25.2787 5.54663 25.1449 5.64997 25.0146C5.86252 24.7587 6.08565 24.526 6.30172 24.3236C6.40741 24.2224 6.51897 24.1293 6.62935 24.0433C6.73856 23.9583 6.84308 23.8804 6.94055 23.8106C7.32808 23.5337 7.60052 23.386 7.60052 23.386C7.60052 23.386 7.60404 23.6477 7.56059 24.0479C7.5465 24.148 7.5418 24.2573 7.53476 24.3736C7.52536 24.49 7.51479 24.6121 7.49835 24.7413C7.47134 24.9972 7.41028 25.2752 7.35626 25.5614C7.30694 25.8476 7.23413 26.1419 7.13079 26.4316C7.07912 26.577 7.0204 26.719 6.95112 26.8609C6.8924 27.0005 6.82664 27.1389 6.75031 27.2716C6.44264 27.7997 5.97643 28.2604 5.27419 28.5001C5.03463 28.2581 4.88314 27.98 4.80094 27.6869Z" fill="black"/>
<path d="M3.48708 21.639C3.56224 21.9554 3.58455 22.266 3.53523 22.572C3.51292 22.7244 3.46359 22.8733 3.41075 23.0234C3.35908 23.1734 3.28627 23.3212 3.19115 23.4678C2.46425 23.3654 1.90058 22.9512 1.55298 22.3579C1.37448 22.0613 1.23357 21.7204 1.12435 21.3609C1.02689 21.0003 0.978735 20.621 0.944679 20.2453C0.930588 20.0568 0.917671 19.866 0.916497 19.6834C0.921194 19.5007 0.931762 19.3227 0.944679 19.1506C0.971689 18.8051 1.00927 18.4851 1.05037 18.2129C1.16076 17.6766 1.26409 17.3311 1.26409 17.3311C1.26409 17.3311 1.46608 17.6161 1.74204 18.0582C1.87592 18.2746 2.0368 18.5328 2.21412 18.8178C2.38557 19.1017 2.56289 19.4065 2.72612 19.7206C2.88231 20.0312 3.05376 20.357 3.18998 20.678C3.32738 21.0026 3.42484 21.3225 3.48708 21.639Z" fill="black"/>
<path d="M4.88452 21.5459C5.01722 21.2609 5.21333 20.9933 5.43293 20.7455C5.54214 20.6234 5.6584 20.5047 5.78053 20.3942C5.90031 20.2825 6.04122 20.1813 6.1751 20.0847C6.72115 19.6997 7.27191 19.4228 7.72872 19.2611C8.17496 19.0947 8.47559 19.0226 8.47559 19.0226C8.47559 19.0226 8.41335 19.2727 8.26773 19.6426C8.20315 19.8288 8.13269 20.051 8.03287 20.2848C7.98472 20.4023 7.9307 20.5233 7.87081 20.6466C7.8121 20.7699 7.76277 20.8979 7.69819 21.027C7.57606 21.2818 7.42457 21.5412 7.25077 21.7902C7.09341 22.0403 6.90787 22.28 6.68827 22.4952C6.23381 22.9198 5.7042 23.256 4.96555 23.3247C4.87395 23.1804 4.80349 23.0338 4.75534 22.8849C4.7072 22.7348 4.69545 22.5848 4.69311 22.4335C4.69311 22.1334 4.76357 21.8332 4.88452 21.5459Z" fill="black"/>
<path d="M3.87923 11.8078C3.87923 11.8078 4.00018 12.1243 4.17163 12.621C4.34308 13.1178 4.53567 13.7669 4.71652 14.4579C4.80342 14.8035 4.86448 15.1478 4.91732 15.4922C4.97134 15.8388 4.996 16.1751 4.97017 16.4938C4.95373 16.6497 4.94199 16.8102 4.91145 16.9603C4.88092 17.1127 4.8363 17.2593 4.77523 17.4001C4.71417 17.5385 4.63666 17.6734 4.53802 17.8014C4.4476 17.9294 4.34073 18.0539 4.21156 18.1714C3.871 18.0283 3.59504 17.8247 3.37662 17.5722C3.15467 17.3175 3.01728 17.022 2.91394 16.6904C2.86461 16.5252 2.82704 16.3519 2.79885 16.1739C2.77184 15.9947 2.75306 15.8098 2.75658 15.6271C2.75775 15.2595 2.7965 14.8791 2.85757 14.5103C3.00553 13.782 3.2404 13.0887 3.47291 12.6047C3.58447 12.3604 3.68429 12.1592 3.75592 12.0207C3.83225 11.8834 3.87923 11.8078 3.87923 11.8078Z" fill="black"/>
<path d="M6.07196 16.9523C6.14125 16.8173 6.2211 16.687 6.32679 16.5695C6.5323 16.3299 6.78125 16.1193 7.05134 15.9344C7.32496 15.7517 7.63968 15.6075 7.94383 15.4853C8.09766 15.4248 8.25032 15.3701 8.39946 15.3248C8.54978 15.2759 8.70714 15.2398 8.85275 15.2073C9.14985 15.1398 9.42229 15.0967 9.65481 15.0677C9.8885 15.0386 10.0799 15.0235 10.2208 15.0188C10.3606 15.0118 10.4404 15.013 10.4404 15.013C10.4404 15.013 10.4064 15.0688 10.3441 15.1677C10.2831 15.2666 10.2009 15.4097 10.0905 15.5749C10.0341 15.6586 9.97305 15.7471 9.90377 15.8425C9.86854 15.8878 9.83331 15.9367 9.79573 15.9855C9.76167 16.0356 9.72644 16.0856 9.68887 16.1379C9.5409 16.345 9.3671 16.5614 9.16982 16.7755C8.98897 16.9918 8.78229 17.2071 8.5533 17.4025C8.49576 17.4537 8.43469 17.4991 8.37598 17.5479C8.31961 17.5956 8.26089 17.641 8.201 17.6875C8.0824 17.7771 7.95557 17.8609 7.82287 17.9353C7.55865 18.0854 7.2592 18.2017 6.95153 18.2704C6.64386 18.3367 6.30683 18.3553 5.94396 18.2925C5.89347 18.1331 5.86176 17.9737 5.85472 17.8167C5.85472 17.6654 5.8735 17.5142 5.91108 17.3699C5.94866 17.2268 6.00385 17.0861 6.07196 16.9523Z" fill="black"/>
<path d="M6.53202 13.3358C5.94369 12.8972 5.67125 12.2841 5.62662 11.5966C5.61018 11.2569 5.64776 10.8997 5.72291 10.5414C5.80277 10.1854 5.92959 9.83643 6.07169 9.4944C6.21613 9.15586 6.39462 8.84525 6.56373 8.55325C6.73283 8.26357 6.91955 8.01578 7.07573 7.80289C7.23074 7.5865 7.37518 7.42131 7.47735 7.30614C7.57951 7.19213 7.63705 7.12814 7.63705 7.12814C7.63705 7.12814 7.69459 7.46668 7.74861 7.9739C7.77915 8.231 7.81085 8.53115 7.83316 8.85456C7.84608 9.01394 7.85548 9.1803 7.8637 9.35014C7.87192 9.52116 7.88131 9.69799 7.88483 9.87249C7.89188 10.5705 7.86135 11.2918 7.67111 11.8979C7.58304 12.2062 7.45269 12.4842 7.26245 12.7239C7.08278 12.9705 6.84791 13.1776 6.53202 13.3358Z" fill="black"/>
<path d="M8.95124 12.1187C9.4562 11.7465 10.1185 11.5254 10.7773 11.43C11.1002 11.3777 11.4279 11.3591 11.732 11.3567C12.035 11.3556 12.3086 11.3684 12.5458 11.3893C13.0226 11.4382 13.3291 11.5033 13.3291 11.5033C13.3291 11.5033 13.2857 11.5533 13.2034 11.6383C13.1224 11.7232 12.9991 11.8384 12.8558 11.9826C12.7114 12.1269 12.5294 12.2839 12.3333 12.4549C12.1395 12.6271 11.914 12.8016 11.678 12.9715C11.4467 13.1448 11.1895 13.3077 10.9194 13.4496C10.6563 13.5962 10.3745 13.7183 10.0774 13.7998C9.49025 13.9696 8.84907 13.9952 8.16679 13.6997C8.15035 13.367 8.21964 13.0634 8.35586 12.7958C8.49678 12.5352 8.70581 12.3084 8.95124 12.1187Z" fill="black"/>
</mask>
<g mask="url(#mask0_1_2133)">
<rect width="92" height="159" transform="matrix(-1 0 0 1 92.1221 5.00119)" fill="url(#paint0_linear_1_2133)"/>
</g>
<path d="M28.4551 10.2512V23.7929C28.4551 28.2183 32.1547 31.9179 36.5801 31.9179C41.0055 31.9179 44.7051 28.2183 44.7051 23.7929V10.2512C47.4134 17.022 52.4975 31.9179 62.3092 31.9179C67.4722 31.9179 71.7884 27.6016 71.7884 22.4387C71.7884 17.2757 67.4722 12.9595 62.3092 12.9595C56.8196 12.9595 53.5693 17.022 52.8301 21.0845C52.1747 24.6866 48.7676 42.7512 48.7676 42.7512" stroke="#1D1C1F" strokeWidth="4" strokeLinecap="round" strokeLinejoin="round"/>
<mask id="mask1_1_2133" style="mask-type:alpha" maskUnits="userSpaceOnUse" x="76" y="6" width="25" height="42">
<path d="M96.54 25.7607C96.3873 29.0181 95.3891 32.2569 93.9682 35.1862C92.431 38.3528 90.0988 40.7296 86.9951 42.4094C84.1298 43.9497 80.824 45.5691 77.3892 47.0012L76.1221 46.601C78.1055 45.9518 80.0654 45.2306 81.7177 44.5209C83.916 43.5809 86.132 42.6107 88.153 41.3124C90.4065 39.8687 92.1691 37.9282 93.381 35.5503C94.9417 32.493 96.0996 29.0053 96.1794 25.5606C96.2593 22.4068 95.5547 19.2704 94.2442 16.4016C93.2155 14.1458 91.8626 11.8947 90.2151 9.96008C89.9579 9.97869 89.7195 9.94844 89.4987 9.89376C89.1993 9.82047 88.9351 9.68203 88.6849 9.51219C88.5569 9.42726 88.4395 9.3307 88.3303 9.22716C88.2082 9.12363 88.1036 9.00845 87.9933 8.89328C87.7913 8.65712 87.5893 8.40235 87.412 8.14176C87.0503 7.62058 86.7508 7.08078 86.5301 6.67361C86.4138 6.46769 86.3281 6.29784 86.267 6.18267C86.2365 6.12218 86.2118 6.07332 86.2001 6.04307C86.1883 6.01282 86.1754 6.00119 86.1754 6.00119C86.1754 6.00119 86.1942 6.00119 86.2306 6.00119C86.2611 6.00119 86.3163 6.00701 86.3833 6.01282C86.5183 6.03725 86.7144 6.0675 86.9469 6.12218C87.412 6.23735 88.0367 6.43745 88.6427 6.76551C89.2369 7.09358 89.824 7.53565 90.1857 8.08126C90.3689 8.34767 90.4922 8.64549 90.5533 8.95494C90.6026 9.21553 90.5897 9.49474 90.5169 9.77976C91.3741 10.8105 92.1515 11.9203 92.8432 13.0371C95.2106 16.8332 96.7419 21.2539 96.54 25.7607Z" fill="black"/>
<path d="M86.5109 46.3004C87.2895 46.1689 88.0034 45.9211 88.519 45.7024C89.0345 45.4837 89.3563 45.2999 89.3563 45.2999C89.3563 45.2999 89.0275 45.1707 88.5248 45.0044C88.0199 44.8345 87.347 44.6228 86.6354 44.4506C85.9237 44.2808 85.1851 44.1551 84.5051 44.1854C84.1622 44.1993 83.8393 44.2575 83.5258 44.368C83.211 44.4809 82.9175 44.6496 82.5957 44.8904C82.8036 45.593 83.4259 46.0386 84.1575 46.2422C84.8927 46.4516 85.737 46.4341 86.5109 46.3004Z" fill="black"/>
<path d="M82.6928 43.7768C83.0075 43.7174 83.2988 43.5708 83.563 43.3777C84.0891 42.9845 84.4907 42.3854 84.7667 41.7711C85.0438 41.1569 85.1965 40.5252 85.2775 40.0552C85.3163 39.819 85.3397 39.6224 85.3538 39.4863C85.3656 39.3479 85.3691 39.2688 85.3691 39.2688C85.3691 39.2688 85.1225 39.3991 84.7632 39.6224C84.4026 39.847 83.9247 40.1622 83.4585 40.5368C82.9911 40.9137 82.539 41.3523 82.2184 41.8572C81.9013 42.3679 81.6982 42.9485 81.7181 43.6837C82.0411 43.8233 82.3793 43.8384 82.6928 43.7768Z" fill="black"/>
<path d="M91.7439 41.0902C91.0088 41.1135 90.2608 41.1658 89.6208 41.3601C88.9796 41.5567 88.4429 41.8952 88.0918 42.5176C88.531 43.1063 89.1616 43.3785 89.8721 43.4111C90.5825 43.4448 91.3681 43.2401 92.0892 42.9167C92.8102 42.5933 93.4643 42.1535 93.9246 41.7743C94.1572 41.5904 94.3415 41.4171 94.4683 41.2984C94.594 41.1763 94.6633 41.103 94.6633 41.103C94.6633 41.103 94.311 41.096 93.7497 41.0867C93.2048 41.0844 92.4779 41.0693 91.7439 41.0902Z" fill="black"/>
<path d="M86.8529 41.4377C87.5516 41.4749 88.1164 41.141 88.5192 40.6326C88.922 40.1254 89.1616 39.4507 89.2591 38.791C89.3589 38.1303 89.3248 37.4974 89.2473 37.0367C89.2109 36.8064 89.1721 36.6214 89.1357 36.4888C89.1017 36.3585 89.0782 36.2863 89.0782 36.2863C89.0782 36.2863 89.0336 36.3294 88.9608 36.4085C88.8833 36.4888 88.7752 36.6039 88.6484 36.7494C88.3889 37.0402 88.0354 37.4427 87.689 37.915C87.3437 38.3885 87.002 38.9295 86.8094 39.5228C86.618 40.1161 86.5675 40.7618 86.8529 41.4377Z" fill="black"/>
<path d="M96.4892 37.8282C96.5621 37.7409 96.6337 37.6502 96.7041 37.5618L96.8063 37.4257L96.8873 37.3163C96.9919 37.1732 97.0893 37.0313 97.1821 36.8917C97.3665 36.6136 97.525 36.3472 97.6553 36.1181C97.7845 35.8877 97.8855 35.6934 97.9524 35.5573C98.0182 35.4189 98.0487 35.3351 98.0487 35.3351C98.0487 35.3351 97.7235 35.4293 97.2185 35.5841C96.7182 35.7423 96.0594 35.9726 95.4206 36.2704C95.2597 36.3461 95.1024 36.4228 94.945 36.5101C94.7771 36.6043 94.6115 36.6997 94.4542 36.7963C94.2944 36.8928 94.1359 36.9859 93.9891 37.0871C93.8412 37.186 93.6932 37.2826 93.5628 37.3896C93.0238 37.8061 92.6246 38.2842 92.459 38.9892C93.0508 39.4289 93.7449 39.5046 94.4588 39.2754C95.1728 39.0543 95.9009 38.5227 96.4892 37.8282Z" fill="black"/>
<path d="M92.2047 34.8852C92.0191 34.2325 91.7502 33.6415 91.5271 33.2204C91.4144 33.0075 91.3181 32.84 91.237 32.7202C91.1607 32.6027 91.1126 32.5363 91.1126 32.5363C91.1126 32.5363 91.0856 32.6015 91.0421 32.7178C90.9928 32.833 90.9212 32.9982 90.8448 33.2018C90.7685 33.4054 90.6863 33.6473 90.61 33.9161C90.5372 34.1767 90.455 34.5094 90.4338 34.7072C90.3704 35.1737 90.2941 35.7297 90.3258 36.3196C90.3645 36.9047 90.5137 37.5271 90.981 38.0937C91.6539 37.9389 92.0955 37.441 92.2857 36.8326C92.3303 36.6802 92.3691 36.5231 92.3855 36.3614C92.3996 36.1974 92.4067 36.0357 92.3961 35.8717C92.382 35.7076 92.3597 35.5459 92.3268 35.3889C92.2916 35.2179 92.2505 35.0492 92.2047 34.8852Z" fill="black"/>
<path d="M99.6687 29.7791C99.7062 29.6279 99.7203 29.5383 99.7203 29.5383C99.7203 29.5383 99.4232 29.6954 98.9488 29.9478C98.4861 30.2002 97.8802 30.5527 97.3048 30.9611C96.7106 31.3636 96.1246 31.8185 95.7441 32.342C95.6525 32.4746 95.555 32.6049 95.4775 32.7433C95.4 32.8806 95.3354 33.0237 95.2896 33.1714C95.1945 33.4681 95.1698 33.788 95.2297 34.1405C95.9367 34.3429 96.5896 34.1871 97.1768 33.8148C97.3235 33.7229 97.4645 33.6158 97.603 33.5007C97.7393 33.3843 97.8778 33.2587 97.9929 33.1179C98.2325 32.8411 98.4509 32.5328 98.647 32.2163C99.0545 31.5916 99.3011 30.9076 99.4761 30.3992C99.563 30.1432 99.6276 29.9292 99.6687 29.7791Z" fill="black"/>
<path d="M93.537 33.5598C93.8188 33.3644 94.022 33.1177 94.1594 32.8432C94.2287 32.7071 94.2803 32.5605 94.3191 32.4116C94.3567 32.2603 94.3849 32.1068 94.3837 31.9451C94.3872 31.3006 94.1993 30.6247 93.9128 30.0232C93.6075 29.4171 93.2305 28.8959 92.931 28.5318C92.7807 28.348 92.6539 28.2049 92.5517 28.1049C92.4519 28.006 92.3944 27.9525 92.3944 27.9525C92.3944 27.9525 92.3791 28.0188 92.3603 28.1363C92.3345 28.2526 92.2957 28.4213 92.2605 28.6284C92.1842 29.0414 92.1454 29.6056 92.1078 30.207C92.0961 30.5072 92.1078 30.8224 92.1478 31.1354C92.1607 31.2157 92.1724 31.2924 92.1842 31.3704C92.1936 31.4483 92.2053 31.5239 92.2194 31.6007C92.2476 31.7543 92.2863 31.9079 92.3357 32.0544C92.5283 32.6477 92.8946 33.1934 93.537 33.5598Z" fill="black"/>
<path d="M98.0905 25.3526C97.9707 25.4829 97.8544 25.6178 97.7405 25.7551C97.6301 25.8924 97.5186 26.0308 97.4058 26.1704C97.1886 26.4508 97.0007 26.7381 96.8656 27.0313C96.7964 27.179 96.7447 27.3279 96.6989 27.478C96.6484 27.6292 96.6143 27.7793 96.5967 27.9329C96.5615 28.2412 96.5979 28.5588 96.7236 28.8915C97.4587 28.959 98.0681 28.6809 98.5743 28.1946C98.6999 28.076 98.8197 27.9422 98.9325 27.7979C99.0417 27.6525 99.1344 27.4978 99.226 27.3361C99.4069 27.0115 99.5595 26.659 99.6899 26.3042C99.7592 26.1274 99.8038 25.947 99.8472 25.769C99.8895 25.5911 99.9271 25.4165 99.96 25.2479C100.023 24.907 100.079 24.5906 100.099 24.316C100.131 23.7681 100.121 23.4074 100.121 23.4074C100.121 23.4074 99.8519 23.6308 99.4703 23.9891C99.1027 24.3463 98.5719 24.8267 98.0905 25.3526Z" fill="black"/>
<path d="M95.4432 27.6869C95.4843 27.5403 95.509 27.3902 95.5172 27.2366C95.5207 27.0831 95.4996 26.926 95.4702 26.769C95.4091 26.4572 95.2976 26.1489 95.152 25.8523C95.1156 25.7778 95.0768 25.7045 95.0369 25.6336C94.9934 25.5603 94.9453 25.4905 94.8971 25.4207C94.8008 25.2787 94.6975 25.1449 94.5942 25.0146C94.3816 24.7587 94.1585 24.526 93.9424 24.3236C93.8367 24.2224 93.7252 24.1293 93.6148 24.0433C93.5056 23.9583 93.4011 23.8804 93.3036 23.8106C92.9161 23.5337 92.6436 23.386 92.6436 23.386C92.6436 23.386 92.6401 23.6477 92.6835 24.0479C92.6976 24.148 92.7023 24.2573 92.7094 24.3736C92.7188 24.49 92.7293 24.6121 92.7458 24.7413C92.7728 24.9972 92.8339 25.2752 92.8879 25.5614C92.9372 25.8476 93.01 26.1419 93.1134 26.4316C93.165 26.577 93.2237 26.719 93.293 26.8609C93.3517 27.0005 93.4175 27.1389 93.4938 27.2716C93.8015 27.7997 94.2677 28.2604 94.9699 28.5001C95.2095 28.2581 95.361 27.98 95.4432 27.6869Z" fill="black"/>
<path d="M96.7571 21.639C96.6819 21.9554 96.6596 22.266 96.7089 22.572C96.7312 22.7244 96.7805 22.8733 96.8334 23.0234C96.8851 23.1734 96.9579 23.3212 97.053 23.4678C97.7799 23.3654 98.3436 22.9512 98.6912 22.3579C98.8697 22.0613 99.0106 21.7204 99.1198 21.3609C99.2173 21.0003 99.2654 20.621 99.2995 20.2453C99.3136 20.0568 99.3265 19.866 99.3276 19.6834C99.3229 19.5007 99.3124 19.3227 99.2995 19.1506C99.2725 18.8051 99.2349 18.4851 99.1938 18.2129C99.0834 17.6766 98.98 17.3311 98.98 17.3311C98.98 17.3311 98.7781 17.6161 98.5021 18.0582C98.3682 18.2746 98.2073 18.5328 98.03 18.8178C97.8586 19.1017 97.6812 19.4065 97.518 19.7206C97.3618 20.0312 97.1904 20.357 97.0542 20.678C96.9168 21.0026 96.8193 21.3225 96.7571 21.639Z" fill="black"/>
<path d="M95.3596 21.5459C95.2269 21.2609 95.0308 20.9933 94.8112 20.7455C94.702 20.6234 94.5857 20.5047 94.4636 20.3942C94.3438 20.2825 94.2029 20.1813 94.069 20.0847C93.523 19.6997 92.9722 19.4228 92.5154 19.2611C92.0692 19.0947 91.7686 19.0226 91.7686 19.0226C91.7686 19.0226 91.8308 19.2727 91.9764 19.6426C92.041 19.8288 92.1115 20.051 92.2113 20.2848C92.2594 20.4023 92.3134 20.5233 92.3733 20.6466C92.432 20.7699 92.4814 20.8979 92.546 21.027C92.6681 21.2818 92.8196 21.5412 92.9934 21.7902C93.1507 22.0403 93.3363 22.28 93.5559 22.4952C94.0103 22.9198 94.5399 23.256 95.2786 23.3247C95.3702 23.1804 95.4406 23.0338 95.4888 22.8849C95.5369 22.7348 95.5487 22.5848 95.551 22.4335C95.551 22.1334 95.4806 21.8332 95.3596 21.5459Z" fill="black"/>
<path d="M96.3649 11.8078C96.3649 11.8078 96.244 12.1243 96.0725 12.621C95.9011 13.1178 95.7085 13.7669 95.5276 14.4579C95.4407 14.8035 95.3797 15.1478 95.3268 15.4922C95.2728 15.8388 95.2481 16.1751 95.274 16.4938C95.2904 16.6497 95.3022 16.8102 95.3327 16.9603C95.3632 17.1127 95.4078 17.2593 95.4689 17.4001C95.53 17.5385 95.6075 17.6734 95.7061 17.8014C95.7965 17.9294 95.9034 18.0539 96.0326 18.1714C96.3731 18.0283 96.6491 17.8247 96.8675 17.5722C97.0895 17.3175 97.2269 17.022 97.3302 16.6904C97.3795 16.5252 97.4171 16.3519 97.4453 16.1739C97.4723 15.9947 97.4911 15.8098 97.4876 15.6271C97.4864 15.2595 97.4476 14.8791 97.3866 14.5103C97.2386 13.782 97.0037 13.0887 96.7712 12.6047C96.6597 12.3604 96.5599 12.1592 96.4882 12.0207C96.4119 11.8834 96.3649 11.8078 96.3649 11.8078Z" fill="black"/>
<path d="M94.1722 16.9523C94.1029 16.8173 94.023 16.687 93.9173 16.5695C93.7118 16.3299 93.4629 16.1193 93.1928 15.9344C92.9192 15.7517 92.6045 15.6075 92.3003 15.4853C92.1465 15.4248 91.9938 15.3701 91.8447 15.3248C91.6944 15.2759 91.537 15.2398 91.3914 15.2073C91.0943 15.1398 90.8218 15.0967 90.5893 15.0677C90.3556 15.0386 90.1642 15.0235 90.0233 15.0188C89.8836 15.0118 89.8037 15.013 89.8037 15.013C89.8037 15.013 89.8378 15.0688 89.9 15.1677C89.9611 15.2666 90.0433 15.4097 90.1537 15.5749C90.21 15.6586 90.2711 15.7471 90.3404 15.8425C90.3756 15.8878 90.4108 15.9367 90.4484 15.9855C90.4825 16.0356 90.5177 16.0856 90.5553 16.1379C90.7032 16.345 90.877 16.5614 91.0743 16.7755C91.2552 16.9918 91.4619 17.2071 91.6908 17.4025C91.7484 17.4537 91.8094 17.4991 91.8682 17.5479C91.9245 17.5956 91.9832 17.641 92.0431 17.6875C92.1617 17.7771 92.2886 17.8609 92.4213 17.9353C92.6855 18.0854 92.9849 18.2017 93.2926 18.2704C93.6003 18.3367 93.9373 18.3553 94.3002 18.2925C94.3507 18.1331 94.3824 17.9737 94.3894 17.8167C94.3894 17.6654 94.3706 17.5142 94.3331 17.3699C94.2955 17.2268 94.2403 17.0861 94.1722 16.9523Z" fill="black"/>
<path d="M93.7121 13.3358C94.3005 12.8972 94.5729 12.2841 94.6175 11.5966C94.634 11.2569 94.5964 10.8997 94.5212 10.5414C94.4414 10.1854 94.3145 9.83643 94.1725 9.4944C94.028 9.15586 93.8495 8.84525 93.6804 8.55325C93.5113 8.26357 93.3246 8.01578 93.1684 7.80289C93.0134 7.5865 92.869 7.42131 92.7668 7.30614C92.6646 7.19213 92.6071 7.12814 92.6071 7.12814C92.6071 7.12814 92.5495 7.46668 92.4955 7.9739C92.465 8.231 92.4333 8.53115 92.411 8.85456C92.3981 9.01394 92.3887 9.1803 92.3804 9.35014C92.3722 9.52116 92.3628 9.69799 92.3593 9.87249C92.3523 10.5705 92.3828 11.2918 92.573 11.8979C92.6611 12.2062 92.7915 12.4842 92.9817 12.7239C93.1614 12.9705 93.3962 13.1776 93.7121 13.3358Z" fill="black"/>
<path d="M91.2929 12.1187C90.7879 11.7465 90.1256 11.5254 89.4668 11.43C89.1439 11.3777 88.8163 11.3591 88.5121 11.3567C88.2091 11.3556 87.9355 11.3684 87.6983 11.3893C87.2215 11.4382 86.915 11.5033 86.915 11.5033C86.915 11.5033 86.9585 11.5533 87.0407 11.6383C87.1217 11.7232 87.245 11.8384 87.3883 11.9826C87.5327 12.1269 87.7148 12.2839 87.9109 12.4549C88.1046 12.6271 88.3301 12.8016 88.5661 12.9715C88.7975 13.1448 89.0547 13.3077 89.3247 13.4496C89.5878 13.5962 89.8696 13.7183 90.1667 13.7998C90.7539 13.9696 91.3951 13.9952 92.0773 13.6997C92.0938 13.367 92.0245 13.0634 91.8883 12.7958C91.7474 12.5352 91.5383 12.3084 91.2929 12.1187Z" fill="black"/>
</mask>
<g mask="url(#mask1_1_2133)">
<rect x="76.1221" y="5.00119" width="92" height="159" fill="url(#paint1_linear_1_2133)"/>
</g>
<defs>
<linearGradient id="paint0_linear_1_2133" x1="46" y1="159" x2="46" y2="0" gradientUnits="userSpaceOnUse">
<stop stopColor="white"/>
<stop offset="1" stopColor="#0D2D2E"/>
</linearGradient>
<linearGradient id="paint1_linear_1_2133" x1="122.122" y1="164.001" x2="122.122" y2="5.00119" gradientUnits="userSpaceOnUse">
<stop stopColor="white"/>
<stop offset="1" stopColor="#0D2D2E"/>
</linearGradient>
</defs>
</svg>
