<svg width="24" height="24" viewBox="0 0 75 76" fill="none" xmlns="http://www.w3.org/2000/svg">
  <path d="M69.6189 22.1393C67.8402 18.209 65.287 14.6803 62.0452 11.6393C58.8034 8.62705 55.0452 6.2459 50.8566 4.58197C46.5247 2.86066 41.9345 2 37.2009 2C32.4673 2 27.8771 2.86066 23.5451 4.58197C19.3566 6.2459 15.5984 8.59836 12.3566 11.6393C9.11478 14.6803 6.56153 18.209 4.78284 22.1393C2.94678 26.2131 2 30.5738 2 35.0492C2 42.8811 4.9262 50.3975 10.291 56.3648L7.4221 72L22.6845 65.2008C27.2459 67.1516 32.0943 68.127 37.1722 68.127C41.9058 68.127 46.496 67.2664 50.8279 65.5451C55.0164 63.8811 58.7746 61.5287 62.0164 58.4877C65.2582 55.4467 67.8115 51.918 69.5902 47.9877C71.4263 43.9139 72.373 39.5533 72.373 35.0779C72.4017 30.5738 71.455 26.2418 69.6189 22.1393Z" stroke="#1D1C1F" stroke-width="4"/>
  <path d="M51.4886 41.6469C49.9968 40.901 48.9067 40.442 48.1321 40.1551C47.6444 39.983 46.4969 39.4666 46.0952 39.7822C44.8329 40.815 43.4845 43.7412 42.0501 44.2863C38.4927 43.5978 35.1936 41.1592 32.6116 38.6633C31.4641 37.5732 29.3411 34.4748 28.8821 33.6428C28.796 32.7822 30.3452 31.6346 30.6894 30.9748C32.4681 28.9666 31.1198 27.7043 30.8903 26.8723C30.4887 26.0117 29.8002 24.4625 29.1977 23.2002C28.6813 22.3683 28.5664 21.1346 27.6484 20.6756C23.7468 18.6674 21.5092 22.6838 20.5912 24.7781C15.0543 38.1182 48.3329 63.5076 55.1034 46.0076C55.4477 44.4871 55.3042 43.9133 54.7878 43.2248C53.755 42.5076 52.5501 42.192 51.4886 41.6469Z" stroke="#1D1C1F" stroke-width="4"/>
</svg>
