<svg xmlns="http://www.w3.org/2000/svg" width="75" height="76" viewBox="0 0 75 76" fill="none">
  <path d="M69.6189 22.1393C67.8402 18.209 65.287 14.6803 62.0452 11.6393C58.8034 8.62705 55.0452 6.2459 50.8566 4.58197C46.5247 2.86066 41.9345 2 37.2009 2C32.4673 2 27.8771 2.86066 23.5451 4.58197C19.3566 6.2459 15.5984 8.59836 12.3566 11.6393C9.11478 14.6803 6.56153 18.209 4.78284 22.1393C2.94678 26.2131 2 30.5738 2 35.0492C2 42.8811 4.9262 50.3975 10.291 56.3648L7.4221 72L22.6845 65.2008C27.2459 67.1516 32.0943 68.127 37.1722 68.127C41.9058 68.127 46.496 67.2664 50.8279 65.5451C55.0164 63.8811 58.7746 61.5287 62.0164 58.4877C65.2582 55.4467 67.8115 51.918 69.5902 47.9877C71.4263 43.9139 72.373 39.5533 72.373 35.0779C72.4017 30.5738 71.455 26.2418 69.6189 22.1393Z" stroke="#1D1C1F" stroke-width="4"/>
</svg>
