<svg width="47" height="49" viewBox="0 0 47 49" fill="none" xmlns="http://www.w3.org/2000/svg">
<path d="M24 0.0898438C34.0278 0.0898438 42.6171 6.24066 46.2061 14.9746C43.5981 17.7482 42 21.4823 42 25.5898C42 29.1984 43.2329 32.5192 45.3008 35.1533C41.3004 42.8396 33.2643 48.0898 24 48.0898C10.7452 48.0898 0 37.3447 0 24.0898C0 10.835 10.7452 0.0898438 24 0.0898438Z" fill="#0D2D2E"/>
<path d="M23.7473 16.2651C23.8022 16.2178 23.857 16.1704 23.9135 16.1216C25.7354 14.6177 27.9761 13.9463 30.3534 14.1153C32.5704 14.3899 34.6134 15.4262 36.0587 17.1018C37.2789 18.6466 37.993 20.3749 37.9879 22.334C37.9887 22.4896 37.9887 22.4896 37.9895 22.6483C37.9908 22.9882 37.9908 23.3281 37.9905 23.668C37.9909 23.9057 37.9913 24.1435 37.9918 24.3812C37.9926 24.8781 37.9925 25.375 37.992 25.872C37.9914 26.5079 37.9931 27.1438 37.9954 27.7797C37.9969 28.2701 37.997 28.7605 37.9967 29.2509C37.9967 29.4853 37.9973 29.7198 37.9983 29.9543C37.9995 30.2821 37.9988 30.6099 37.9977 30.9377C37.9984 31.0339 37.9992 31.1301 38 31.2292C37.9933 32.0916 37.7835 32.7454 37.1659 33.3822C36.4716 33.9842 35.8021 34.1204 34.8849 34.0845C34.2068 34.0126 33.6071 33.7904 33.156 33.268C32.594 32.4149 32.4407 31.7621 32.4396 30.766C32.4391 30.6721 32.4385 30.5781 32.438 30.4813C32.437 30.2775 32.4361 30.0738 32.4354 29.8701C32.4342 29.5472 32.4323 29.2243 32.4301 28.9013C32.4239 27.9833 32.4185 27.0653 32.4152 26.1472C32.4131 25.5853 32.4095 25.0234 32.4051 24.4615C32.4037 24.2478 32.4028 24.0342 32.4025 23.8205C32.402 23.5209 32.3997 23.2214 32.3969 22.9219C32.3972 22.8344 32.3975 22.747 32.3979 22.6569C32.3869 21.8404 32.1839 21.0969 31.6538 20.4533C31.1096 19.9574 30.3365 19.608 29.5883 19.5707C28.8249 19.6251 28.1569 19.8164 27.5508 20.2716C27.4517 20.3038 27.3527 20.3361 27.2506 20.3693C27.1387 20.5494 27.1387 20.5494 27.0504 20.7602C27.0162 20.8212 26.982 20.8823 26.9468 20.9453C26.9128 21.0071 26.8789 21.069 26.8439 21.1327C26.8097 21.1938 26.7756 21.2549 26.7403 21.3178C26.5023 21.9085 26.5363 22.5572 26.5389 23.182C26.5388 23.3757 26.5388 23.5695 26.5387 23.7632C26.5389 23.8651 26.539 23.9671 26.5392 24.0721C26.5395 24.6155 26.5369 25.1589 26.5349 25.7023C26.5324 26.3922 26.5309 27.082 26.5324 27.7719C26.5336 28.3309 26.5318 28.8898 26.5281 29.4488C26.5273 29.6609 26.5275 29.8729 26.5288 30.0849C26.5415 32.3012 26.5415 32.3012 25.8493 33.1703C25.1256 33.8527 24.5223 34.0892 23.5141 34.0857C22.964 34.0719 22.5883 33.9707 22.1459 33.6589C22.0426 33.5944 21.9394 33.5299 21.8331 33.4635C21.1577 32.8529 20.9172 32.105 20.8792 31.2339C20.8695 30.7206 20.8731 30.2078 20.8783 29.6945C20.8782 29.4706 20.8777 29.2468 20.877 29.023C20.8757 28.4363 20.8775 27.8498 20.8805 27.2631C20.885 26.3237 20.8866 25.3844 20.8845 24.4449C20.8845 24.1183 20.8871 23.7918 20.8899 23.4651C20.89 23.2635 20.8899 23.0619 20.8898 22.8603C20.8912 22.7706 20.8927 22.6809 20.8942 22.5885C20.8895 21.8397 20.6706 21.2318 20.2816 20.5891C19.7053 20.0561 18.9392 19.6115 18.1344 19.5727C17.2256 19.6327 16.5526 19.8326 15.8526 20.412C15.1842 21.1989 15.0093 21.8221 15.0138 22.8206C15.0134 22.9184 15.013 23.0161 15.0127 23.1169C15.012 23.3287 15.0117 23.5405 15.0119 23.7522C15.012 24.0879 15.0107 24.4235 15.009 24.7592C15.0043 25.7133 15.0019 26.6675 15.0012 27.6216C15.0007 28.2058 14.9983 28.79 14.9947 29.3743C14.9937 29.5964 14.9934 29.8185 14.994 30.0406C14.9947 30.3518 14.993 30.663 14.9907 30.9743C14.9919 31.1107 14.9919 31.1107 14.9932 31.2499C14.9819 32.131 14.682 32.8352 14.0384 33.4635C13.1996 34.056 12.4537 34.1245 11.436 34.0498C11.126 33.9646 10.8951 33.842 10.6353 33.6589C10.5321 33.5944 10.4288 33.5299 10.3225 33.4635C9.66465 32.8713 9.40793 32.1231 9.36858 31.2747C9.35888 30.794 9.36247 30.3138 9.3677 29.833C9.36759 29.623 9.36716 29.4131 9.36642 29.2031C9.36508 28.6527 9.36695 28.1024 9.36987 27.552C9.37442 26.6717 9.37596 25.7915 9.37392 24.9112C9.37395 24.6059 9.37652 24.3006 9.37929 23.9953C9.38443 22.4287 9.17993 21.2323 8.10169 20.009C7.8697 19.8141 7.64556 19.6619 7.38853 19.502C6.76097 19.1034 6.19812 18.5674 6.03103 17.8286C5.92446 16.837 6.07974 16.1065 6.69414 15.3124C7.26621 14.7164 7.90373 14.4777 8.73352 14.4512C10.133 14.5074 11.1257 15.2877 12.1367 16.1674C12.4487 16.0275 12.7289 15.8525 13.0144 15.6669C16.561 13.3685 20.4681 13.7609 23.7473 16.2651Z" fill="#5FF25C"/>
</svg>
