<svg width="71" height="70" viewBox="0 0 71 70" fill="none" xmlns="http://www.w3.org/2000/svg">
<path d="M0.149414 35C0.149414 15.67 15.8194 0 35.1494 0C54.4794 0 70.1494 15.67 70.1494 35C70.1494 54.33 54.4794 70 35.1494 70C15.8194 70 0.149414 54.33 0.149414 35Z" fill="white"/>
<path d="M12.877 28.0032C12.877 22.6572 12.877 19.9843 13.9173 17.9424C14.8325 16.1463 16.2928 14.686 18.0889 13.7709C20.1307 12.7305 22.8037 12.7305 28.1497 12.7305H42.1497C47.4956 12.7305 50.1686 12.7305 52.2105 13.7709C54.0066 14.686 55.4669 16.1463 56.382 17.9424C57.4224 19.9843 57.4224 22.6572 57.4224 28.0032V42.0032C57.4224 47.3492 57.4224 50.0221 56.382 52.064C55.4669 53.8601 54.0066 55.3204 52.2105 56.2355C50.1686 57.2759 47.4956 57.2759 42.1497 57.2759H28.1497C22.8037 57.2759 20.1307 57.2759 18.0889 56.2355C16.2928 55.3204 14.8325 53.8601 13.9173 52.064C12.877 50.0221 12.877 47.3492 12.877 42.0032V28.0032Z" fill="#4087FC"/>
<path d="M22.8472 25.457C21.7342 25.457 20.832 26.4746 20.832 27.7298V38.7525C20.832 41.9532 23.1327 44.5479 25.9707 44.5479L37.9078 44.4343C39.0207 44.4343 39.9229 43.4168 39.9229 42.1616V31.0253C39.9229 27.8245 37.1927 25.4571 34.3548 25.4571L22.8472 25.457Z" fill="white"/>
<path d="M42.6469 29.7964C41.9268 30.5084 41.5138 31.5361 41.5138 32.6162V37.2286C41.5138 38.3087 41.9268 39.3364 42.6469 40.0484L47.1279 43.995C48.0397 44.8966 49.4684 44.1663 49.4684 42.7988V27.263C49.4684 25.8954 48.0397 25.1652 47.1279 26.0667L42.6469 29.7964Z" fill="white"/>
</svg>
