<svg width="78" height="78" viewBox="0 0 78 78" fill="none" xmlns="http://www.w3.org/2000/svg">
<path d="M38.8311 2.40918C59.0397 2.40918 75.4219 18.7914 75.4219 39C75.4219 59.2086 59.0397 75.5908 38.8311 75.5908C18.6225 75.5908 2.24023 59.2086 2.24023 39C2.24023 18.7914 18.6225 2.40918 38.8311 2.40918Z" fill="white"/>
<path d="M38.8311 2.40918C59.0397 2.40918 75.4219 18.7914 75.4219 39C75.4219 59.2086 59.0397 75.5908 38.8311 75.5908C18.6225 75.5908 2.24023 59.2086 2.24023 39C2.24023 18.7914 18.6225 2.40918 38.8311 2.40918Z" stroke="#F9F8F7" strokeWidth="3.18182"/>
<path d="M16.5586 32.5689C16.5586 27.0249 16.5586 24.2529 17.6375 22.1354C18.5866 20.2728 20.1009 18.7584 21.9635 17.8094C24.081 16.7305 26.853 16.7305 32.397 16.7305H45.2657C50.8096 16.7305 53.5816 16.7305 55.6991 17.8094C57.5617 18.7584 59.0761 20.2728 60.0251 22.1354C61.104 24.2529 61.104 27.0249 61.104 32.5689V45.4375C61.104 50.9815 61.104 53.7535 60.0251 55.871C59.0761 57.7336 57.5617 59.248 55.6991 60.197C53.5816 61.2759 50.8096 61.2759 45.2657 61.2759H32.397C26.853 61.2759 24.081 61.2759 21.9635 60.197C20.1009 59.248 18.5866 57.7336 17.6375 55.871C16.5586 53.7535 16.5586 50.9815 16.5586 45.4375V32.5689Z" fill="white"/>
<path d="M21.3311 51.0273C21.3311 52.2931 22.3651 53.3182 23.6392 53.3182H23.6723C22.3788 53.3182 21.3311 52.2931 21.3311 51.0273Z" fill="#FBBC05"/>
<path d="M41.1653 45.239H29.416L29.4023 53.3201H46.921C48.197 53.3201 49.2291 52.2949 49.2291 51.0292V45.8136L41.1653 39.2578V45.239Z" fill="#34A853"/>
<path d="M21.3311 45.2422V51.0324C21.3311 52.2982 22.3788 53.3233 23.6723 53.3233H29.4026L29.4163 45.2422H21.3311Z" fill="#1967D2"/>
<path d="M41.1663 33.2745V39.2556L49.2301 32.7514V26.9745C49.2301 25.7088 48.196 24.6836 46.922 24.6836H29.4521L29.4365 33.2745H41.1663Z" fill="#FBBC05"/>
<path d="M29.4514 24.6836L21.3311 33.2745H29.4377L29.4514 24.6836Z" fill="#EA4335"/>
<path d="M29.4377 33.2734H21.3311V45.2377H29.4163L29.4377 33.2734Z" fill="#4285F4"/>
<path d="M56.3197 48.9938V29.3303C55.8651 26.7205 53.0029 29.7121 53.0029 29.7121L49.2314 32.7532V45.8133L54.63 50.2022C56.5792 50.4581 56.3197 48.9938 56.3197 48.9938Z" fill="#34A853"/>
<path d="M41.167 39.2601L49.2327 45.8178V32.7578L41.167 39.2601Z" fill="#188038"/>
</svg>
