<svg width="163" height="98" viewBox="0 0 163 98" fill="none" xmlns="http://www.w3.org/2000/svg">
<path d="M161.15 3.79123C133.548 4.47364 103.065 11.9036 80.5677 28.7206C74.4501 33.2936 44.5714 55.4351 54.8578 65.2251C59.7845 69.914 64.1641 63.5593 65.3942 59.1793C67.8154 50.5573 68.9645 43.5083 67.4365 34.4222C65.0779 20.3972 58.2438 0.94267 41.04 1.86035C33.6151 2.2564 28.588 11.7506 27.826 17.9775C27.0789 24.0826 28.2234 29.7075 29.1492 35.7091C29.9016 40.587 30.1724 39.7272 25.4039 38.3881C13.4355 35.0269 -4.91657 43.1143 5.31576 57.2615C11.0568 65.1991 19.2994 68.6671 27.748 72.6335C30.9215 74.1234 36.2946 76.8643 39.834 76.963C43.6876 77.0704 41.3408 72.9082 38.9597 71.8799C33.0397 69.3233 29.0741 69.7048 24.5931 74.4131C20.5405 78.6712 18.4748 87.4719 23.0628 92.3513C25.6083 95.0585 24.3037 95.1125 21.4043 94.0939C19.1549 93.3037 13.1396 89.5491 14.8666 91.1927C15.4751 91.7718 20.544 96.5318 21.4581 96.2706C24.7126 95.3404 27.467 92.4923 30.3787 90.9453" stroke="#1C1C1C" strokeWidth="2.70634" strokeLinecap="round"/>
</svg>
